<?xml version="1.0" encoding="utf-8"?>
<!-- Generator: Adobe Illustrator 15.0.0, SVG Export Plug-In . SVG Version: 6.00 Build 0)  -->
<!DOCTYPE svg PUBLIC "-//W3C//DTD SVG 1.1//EN" "http://www.w3.org/Graphics/SVG/1.1/DTD/svg11.dtd">
<svg version="1.1" id="Layer_1" xmlns="http://www.w3.org/2000/svg" xmlns:xlink="http://www.w3.org/1999/xlink" x="0px" y="0px"
	 width="600px" height="300px" viewBox="0 0 600 300" enable-background="new 0 0 600 300" xml:space="preserve">
<rect fill="#FEF9E4" width="600" height="300"/>
<g id="XMLID_2_">
	<g>
		<path fill="#B9D871" d="M392.54,138.58l1.37,0.37c-0.061,0.02-0.11,0.05-0.16,0.08c-0.37,0.21-0.71,0.53-0.89,0.92
			c-0.11,0.25-0.16,0.53-0.13,0.81h-0.011l-1.359-0.38c0.05-0.02,0.109-0.05,0.159-0.08c0.641-0.36,1-0.75,1.03-1.53
			C392.55,138.7,392.55,138.64,392.54,138.58z"/>
		<path fill="#454545" d="M388.71,137.53l3.83,1.05c0.01,0.06,0.01,0.12,0.01,0.19c-0.03,0.78-0.39,1.17-1.03,1.53
			c-0.05,0.03-0.109,0.06-0.159,0.08c-0.091,0.05-0.17,0.08-0.261,0.12c-0.159,0.06-0.319,0.11-0.489,0.15
			c-0.37,0.1-0.75,0.15-1.13,0.18c-0.83,0.05-1.671-0.02-2.471-0.24l-0.87-0.24l-2.79-0.77c-0.81-0.22-0.149-2.64,0.66-2.45
			l1.55,0.42l2.12,0.58c0.11,0.03,0.21,0.05,0.32,0.07c0.02,0,0.05,0.01,0.07,0.01c0-0.03,0-0.06,0-0.09c0-0.1,0.02-0.21,0.06-0.31
			c0.03-0.08,0.07-0.16,0.13-0.21c0.05-0.05,0.12-0.08,0.2-0.09c0.03-0.01,0.07-0.01,0.11,0
			C388.62,137.51,388.67,137.52,388.71,137.53z"/>
		<path fill="#454545" d="M392.79,141.13c0.12,0.39,0.39,0.73,0.71,0.99c0.19,0.14,0.39,0.26,0.61,0.36
			c0.25,0.12,0.51,0.21,0.779,0.28l3.75,1.04c-0.88,0.67-1.659,0.81-2.72,0.49l-7.39-2.04c-1.11-0.34-1.82-0.9-2.391-1.9l0.87,0.24
			c0.8,0.22,1.641,0.29,2.471,0.24c0.38-0.03,0.76-0.08,1.13-0.18c0.17-0.04,0.33-0.09,0.489-0.15c0.091-0.04,0.17-0.07,0.261-0.12
			l1.359,0.38h0.011C392.73,140.89,392.75,141.01,392.79,141.13z"/>
		<path fill="#454545" d="M399.84,141.35c0.03-0.83-0.189-1.65-0.609-2.35l2.76,0.75c-0.66,0.49-0.99,1.09-1.13,1.98l-1.021-0.28
			C399.84,141.42,399.84,141.38,399.84,141.35z"/>
		<path fill="#454545" d="M399.23,139c0.42,0.7,0.64,1.52,0.609,2.35c0,0.03,0,0.07,0,0.1l-2.649-0.72v-0.01
			c-0.171-0.6-0.41-0.99-1.07-1.17l-2.21-0.6l-1.37-0.37l-3.83-1.05c-0.04-0.01-0.09-0.02-0.14-0.02c-0.04-0.01-0.08-0.01-0.11,0
			c-0.08,0.01-0.15,0.04-0.2,0.09c-0.06,0.05-0.1,0.13-0.13,0.21c-0.04,0.1-0.06,0.21-0.06,0.31c0,0.03,0,0.06,0,0.09
			c-0.021,0-0.051-0.01-0.07-0.01c-0.11-0.02-0.21-0.04-0.32-0.07l-2.12-0.58c0.061-0.4,0.15-0.74,0.301-1.03
			c0.01-0.01,0.01-0.01,0.01-0.02c0.18-0.35,0.43-0.64,0.78-0.9c0.13-0.1,0.27-0.19,0.43-0.28c0.77-0.42,1.45-0.49,2.29-0.25l7.41,2
			c0.229,0.06,0.45,0.14,0.66,0.25c0.199,0.1,0.399,0.21,0.579,0.35c0.391,0.27,0.721,0.61,1,1
			C399.1,138.78,399.17,138.89,399.23,139z"/>
		<path fill="#454545" d="M415.51,145.64c0.03-0.84-0.189-1.67-0.62-2.39l2.851,0.78c-0.67,0.5-1.01,1.1-1.16,2l-1.08-0.3
			C415.5,145.7,415.51,145.67,415.51,145.64z"/>
		<path fill="#454545" d="M411.48,148.6l-7.601-2.1c-0.43-0.13-0.8-0.29-1.12-0.5c-0.54-0.34-0.95-0.8-1.319-1.43l0.949,0.26
			c0.82,0.22,1.67,0.3,2.511,0.24c0.399-0.02,0.8-0.08,1.18-0.18c0.17-0.05,0.34-0.1,0.5-0.17c0.08-0.03,0.15-0.07,0.22-0.1
			l1.44,0.4h0.01c0.01,0.13,0.03,0.26,0.07,0.39c0.13,0.39,0.41,0.74,0.739,0.99c0.2,0.15,0.41,0.27,0.641,0.38
			c0.25,0.12,0.52,0.21,0.79,0.28l3.779,1.04v0.01C413.36,148.78,412.56,148.92,411.48,148.6z"/>
		<path fill="#454545" d="M414.89,143.25c0.431,0.72,0.65,1.55,0.62,2.39c0,0.03-0.01,0.06-0.01,0.09l-2.68-0.73
			c-0.181-0.63-0.44-1.02-1.11-1.2l-2.29-0.63l-1.45-0.39l-3.87-1.06c-0.05-0.01-0.1-0.02-0.149-0.02c-0.04-0.01-0.08-0.01-0.13,0
			c-0.07,0.01-0.15,0.04-0.21,0.09c-0.07,0.05-0.11,0.13-0.141,0.21c-0.04,0.1-0.06,0.21-0.069,0.32c0,0.03,0,0.06,0,0.09
			c-0.11-0.02-0.221-0.05-0.33-0.08l-2.21-0.6c0.14-0.89,0.47-1.49,1.13-1.98H402c0.11-0.09,0.22-0.17,0.35-0.24
			c0.24-0.14,0.471-0.24,0.7-0.31c0.561-0.17,1.09-0.15,1.72,0.03l7.61,2.05c0.24,0.07,0.46,0.15,0.68,0.26
			c0.21,0.1,0.4,0.22,0.591,0.35c0.399,0.29,0.75,0.64,1.029,1.04C414.76,143.03,414.83,143.14,414.89,143.25z"/>
		<path fill="#454545" d="M404.1,141.72l3.87,1.06c0.011,0.07,0.011,0.15,0.011,0.23c-0.04,0.76-0.381,1.14-1,1.51
			c-0.061,0.04-0.12,0.07-0.181,0.1c-0.069,0.03-0.14,0.07-0.22,0.1c-0.16,0.07-0.33,0.12-0.5,0.17c-0.38,0.1-0.78,0.16-1.18,0.18
			c-0.841,0.06-1.69-0.02-2.511-0.24l-0.949-0.26l-2.801-0.77l-3.75-1.04c-0.27-0.07-0.529-0.16-0.779-0.28
			c-0.221-0.1-0.42-0.22-0.61-0.36c-0.32-0.26-0.59-0.6-0.71-0.99c-0.04-0.12-0.06-0.24-0.06-0.37c-0.03-0.28,0.02-0.56,0.13-0.81
			c0.18-0.39,0.52-0.71,0.89-0.92c0.05-0.03,0.1-0.06,0.16-0.08l2.21,0.6c0.66,0.18,0.899,0.57,1.07,1.17v0.01l2.649,0.72
			l1.021,0.28l2.21,0.6c0.109,0.03,0.22,0.06,0.33,0.08c0-0.03,0-0.06,0-0.09c0.01-0.11,0.029-0.22,0.069-0.32
			c0.03-0.08,0.07-0.16,0.141-0.21c0.06-0.05,0.14-0.08,0.21-0.09c0.05-0.01,0.09-0.01,0.13,0C404,141.7,404.05,141.71,404.1,141.72
			z"/>
		<path fill="#454545" d="M424.32,148.6c0.16-0.4,0.479-0.74,0.85-0.96c0.061-0.04,0.13-0.08,0.21-0.12l2.37,0.65
			c0.64,0.22,0.96,0.56,1.14,1.22l2.341,0.64h0.01l-0.16,2.71l-0.74-0.2l-3.8-1.05c-0.271-0.08-0.55-0.17-0.81-0.29
			c-0.23-0.11-0.45-0.23-0.65-0.38c-0.34-0.25-0.63-0.6-0.78-1c-0.04-0.14-0.08-0.28-0.08-0.42
			C424.19,149.13,424.22,148.86,424.32,148.6z"/>
		<path fill="#454545" d="M424.21,149.4h0.01c0,0.14,0.04,0.28,0.08,0.42c0.15,0.4,0.44,0.75,0.78,1c0.2,0.15,0.42,0.27,0.65,0.38
			c0.26,0.12,0.539,0.21,0.81,0.29l3.8,1.05c-0.939,0.68-1.75,0.82-2.859,0.49l-7.811-2.17c-1.16-0.34-1.9-0.92-2.51-1.96l1.05,0.29
			c0.84,0.23,1.72,0.31,2.59,0.25c0.391-0.03,0.78-0.09,1.16-0.19c0.17-0.05,0.33-0.1,0.5-0.17c0.07-0.03,0.15-0.07,0.22-0.1
			L424.21,149.4z"/>
		<path fill="#454545" d="M431.23,150.03l-2.341-0.64c-0.18-0.66-0.5-1-1.14-1.22l-2.37-0.65l-1.54-0.42l-3.92-1.07
			c-0.05-0.01-0.1-0.02-0.15-0.02c-0.05-0.01-0.1-0.01-0.149,0c-0.08,0.01-0.16,0.04-0.23,0.09c-0.149,0.12-0.21,0.35-0.22,0.54
			c0,0.03,0,0.06,0,0.08c-0.09-0.02-0.18-0.03-0.27-0.06l-2.32-0.63c0.15-0.9,0.49-1.5,1.16-2h0.01c0.09-0.08,0.19-0.14,0.3-0.21
			c0.86-0.5,1.601-0.59,2.55-0.32l7.83,2.12c1.271,0.37,2.051,0.96,2.59,2.01c0.12,0.2,0.221,0.43,0.311,0.67l-0.09,1.73H431.23z"/>
		<path fill="#454545" d="M408.25,145.02c-0.03-0.28,0.02-0.56,0.13-0.82c0.17-0.39,0.49-0.71,0.86-0.93
			c0.06-0.03,0.12-0.06,0.18-0.1l2.29,0.63c0.67,0.18,0.93,0.57,1.11,1.2l2.68,0.73l1.08,0.3l2.32,0.63
			c0.09,0.03,0.18,0.04,0.27,0.06c0-0.02,0-0.05,0-0.08c0.01-0.19,0.07-0.42,0.22-0.54c0.07-0.05,0.15-0.08,0.23-0.09
			c0.05-0.01,0.1-0.01,0.149,0c0.051,0,0.101,0.01,0.15,0.02l3.92,1.07c0.01,0.09,0.01,0.18,0,0.27c-0.06,0.72-0.33,1.14-0.96,1.49
			c-0.06,0.04-0.13,0.08-0.2,0.12c-0.069,0.03-0.149,0.07-0.22,0.1c-0.17,0.07-0.33,0.12-0.5,0.17c-0.38,0.1-0.77,0.16-1.16,0.19
			c-0.87,0.06-1.75-0.02-2.59-0.25l-1.05-0.29l-2.891-0.8l-3.779-1.04c-0.271-0.07-0.54-0.16-0.79-0.28
			c-0.23-0.11-0.44-0.23-0.641-0.38c-0.329-0.25-0.609-0.6-0.739-0.99C408.28,145.28,408.26,145.15,408.25,145.02z"/>
		<path fill="#454545" d="M307.23,112.88v2.45h-0.011l-1.13-0.31l-1.53-0.42c-0.029-0.01-0.06-0.01-0.09-0.01
			c-0.02-0.01-0.05-0.01-0.069,0c-0.04,0.01-0.07,0.05-0.091,0.09c-0.09,0.14-0.109,0.32-0.109,0.48c0,0.03,0,0.06,0,0.08
			c-0.03,0-0.061-0.01-0.09-0.01c-0.11-0.01-0.21-0.02-0.32-0.04c-0.09-0.02-0.18-0.04-0.271-0.06l-1.64-0.45
			c0.101-0.82,0.34-1.4,0.9-1.84c0.18-0.15,0.399-0.28,0.67-0.4c0.59-0.25,1.1-0.29,1.72-0.11l2.05,0.55H307.23z"/>
		<path fill="#454545" d="M306.94,117.22l0.29,0.08l0.01,2.44h-0.01l-2.671-0.73c-0.989-0.31-1.619-0.82-2.119-1.73l0.449,0.12
			c0.7,0.19,1.42,0.25,2.141,0.21c0.359-0.02,0.72-0.06,1.08-0.13c0.159-0.04,0.31-0.08,0.46-0.13
			C306.7,117.32,306.82,117.27,306.94,117.22z"/>
		<path fill="#454545" d="M300.67,112.27l2.11,0.57c-0.561,0.44-0.8,1.02-0.9,1.84l-0.64-0.17c0-0.06,0-0.11,0-0.16
			C301.24,113.65,301.03,112.92,300.67,112.27z"/>
		<path fill="#454545" d="M307,117.19c-0.02,0.01-0.04,0.02-0.06,0.03c-0.12,0.05-0.24,0.1-0.37,0.13
			c-0.15,0.05-0.301,0.09-0.46,0.13c-0.36,0.07-0.721,0.11-1.08,0.13c-0.721,0.04-1.44-0.02-2.141-0.21l-0.449-0.12l-2.17-0.6
			l-3.62-1c-0.23-0.06-0.46-0.15-0.68-0.26c-0.19-0.09-0.36-0.2-0.51-0.34c-0.27-0.24-0.47-0.58-0.52-0.94
			c-0.01-0.07-0.02-0.15-0.02-0.22c0-0.29,0.09-0.58,0.25-0.83c0.23-0.34,0.59-0.59,0.97-0.75c0.01-0.01,0.03-0.01,0.05-0.02
			l1.73,0.47c0.59,0.16,0.73,0.55,0.89,1.05l2.43,0.67l0.64,0.17l1.64,0.45c0.091,0.02,0.181,0.04,0.271,0.06
			c0.11,0.02,0.21,0.03,0.32,0.04c0.029,0,0.06,0.01,0.09,0.01c0.2,0.02,0.41,0.03,0.62,0.02c0.229-0.01,0.46-0.03,0.689-0.07
			c0.181-0.03,0.36-0.07,0.521-0.15c0.02-0.01,0.04-0.01,0.06-0.02l1.13,0.31h0.011v1.75C307.15,117.12,307.08,117.16,307,117.19z"
			/>
		<path fill="#454545" d="M291.76,111.11l1.51,0.41c-0.02,0.01-0.03,0.02-0.05,0.02c-0.17,0.07-0.35,0.12-0.53,0.15
			c-0.22,0.04-0.44,0.06-0.67,0.07c-0.19,0-0.39,0-0.58-0.02c0-0.03,0-0.05,0-0.07c0-0.16,0.02-0.32,0.1-0.47
			c0.02-0.04,0.04-0.08,0.08-0.09c0.02-0.01,0.04-0.01,0.06-0.01S291.73,111.11,291.76,111.11z"/>
		<path fill="#454545" d="M294.94,114.14c0.05,0.36,0.25,0.7,0.52,0.94c0.15,0.14,0.32,0.25,0.51,0.34c0.22,0.11,0.45,0.2,0.68,0.26
			l3.62,1c-0.75,0.63-1.4,0.77-2.33,0.49l-1.3-0.36l-4.85-1.34c-1.01-0.28-1.58-0.83-2.08-1.7l0.39,0.11
			c0.69,0.18,1.42,0.24,2.13,0.2c0.36-0.02,0.71-0.06,1.06-0.14c0.16-0.03,0.32-0.07,0.48-0.12c0.11-0.03,0.23-0.08,0.33-0.12
			l0.82,0.22C294.92,113.99,294.93,114.07,294.94,114.14z"/>
		<path fill="#454545" d="M290.01,109.38c0.19-0.16,0.42-0.29,0.7-0.41c0.57-0.24,1.07-0.27,1.66-0.1l4.23,1.14l1.93,0.52
			c0.92,0.25,1.66,0.92,2.14,1.74c0.36,0.65,0.57,1.38,0.57,2.08c0,0.05,0,0.1,0,0.16l-2.43-0.67c-0.16-0.5-0.3-0.89-0.89-1.05
			l-1.73-0.47l-0.83-0.23l-2.09-0.57l-1.51-0.41c-0.03,0-0.06-0.01-0.08-0.01s-0.04,0-0.06,0.01c-0.04,0.01-0.06,0.05-0.08,0.09
			c-0.08,0.15-0.1,0.31-0.1,0.47c0,0.02,0,0.04,0,0.07c-0.04,0.01-0.08,0-0.12,0c-0.11-0.01-0.22-0.03-0.33-0.05
			c-0.09-0.01-0.18-0.03-0.27-0.06l-1.57-0.43C289.25,110.39,289.47,109.81,290.01,109.38z"/>
		<path fill="#454545" d="M287.98,108.83l2.03,0.55c-0.54,0.43-0.76,1.01-0.86,1.82l-0.6-0.16c0-0.05,0.01-0.11,0-0.16
			C288.55,110.19,288.34,109.46,287.98,108.83z"/>
		<path fill="#454545" d="M286.15,110.38l2.4,0.66l0.6,0.16l1.57,0.43c0.09,0.03,0.18,0.05,0.27,0.06c0.11,0.02,0.22,0.04,0.33,0.05
			c0.04,0,0.08,0.01,0.12,0c0.19,0.02,0.39,0.02,0.58,0.02c0.23-0.01,0.45-0.03,0.67-0.07c0.18-0.03,0.36-0.08,0.53-0.15
			c0.02,0,0.03-0.01,0.05-0.02l2.09,0.57c0,0.08,0,0.16-0.01,0.24c-0.02,0.08-0.04,0.16-0.07,0.24c-0.05,0.16-0.13,0.32-0.24,0.45
			c-0.22,0.3-0.55,0.51-0.89,0.66c-0.02,0.01-0.03,0.01-0.05,0.02c-0.1,0.04-0.22,0.09-0.33,0.12c-0.16,0.05-0.32,0.09-0.48,0.12
			c-0.35,0.08-0.7,0.12-1.06,0.14c-0.71,0.04-1.44-0.02-2.13-0.2l-0.39-0.11l-2.1-0.58l-3.59-0.99c-0.23-0.06-0.45-0.14-0.66-0.25
			c-0.18-0.09-0.35-0.19-0.5-0.33c-0.27-0.24-0.47-0.58-0.52-0.94c-0.01-0.07-0.01-0.14-0.01-0.21c0-0.29,0.1-0.59,0.27-0.83
			c0.23-0.34,0.6-0.57,0.97-0.73c0.01-0.01,0.01-0.01,0.03-0.02h0.01l1.67,0.46C285.86,109.51,286,109.89,286.15,110.38z"/>
		<path fill="#454545" d="M280.73,108.13c-0.18,0.07-0.36,0.11-0.54,0.14c-0.23,0.04-0.45,0.06-0.68,0.07
			c-0.17,0.01-0.34,0-0.51-0.01c0-0.03,0-0.04,0-0.06c0-0.16,0.01-0.32,0.08-0.46c0.01-0.02,0.03-0.05,0.04-0.07
			c0.01-0.01,0.03-0.03,0.04-0.04c0.03-0.01,0.08,0,0.11,0.01l1.49,0.41C280.75,108.12,280.74,108.13,280.73,108.13z"/>
		<path fill="#454545" d="M287.98,108.83c0.36,0.63,0.57,1.36,0.57,2.05c0.01,0.05,0,0.11,0,0.16l-2.4-0.66
			c-0.15-0.49-0.29-0.87-0.87-1.03l-1.67-0.46h-0.01l-0.75-0.2l-2.09-0.57l-1.49-0.41c-0.03-0.01-0.08-0.02-0.11-0.01
			c-0.01,0.01-0.03,0.03-0.04,0.04c-0.01,0.02-0.03,0.05-0.04,0.07c-0.07,0.14-0.08,0.3-0.08,0.46c0,0.02,0,0.03,0,0.06
			c-0.06,0-0.12,0-0.18-0.01c-0.1-0.01-0.2-0.02-0.3-0.04c-0.1-0.01-0.19-0.03-0.29-0.06l-1.5-0.41c0.13-1.1,0.48-1.78,1.56-2.23
			c0.54-0.22,1.02-0.24,1.59-0.09l6.01,1.63C286.79,107.36,287.51,108.02,287.98,108.83z"/>
		<path fill="#454545" d="M280.76,108.12l2.09,0.57c0,0.08,0,0.16-0.02,0.24c-0.01,0.07-0.03,0.15-0.06,0.23
			c-0.05,0.15-0.14,0.3-0.24,0.43c-0.23,0.3-0.56,0.51-0.91,0.66c-0.01,0-0.02,0.01-0.03,0.01c-0.12,0.05-0.24,0.09-0.37,0.13
			c-0.16,0.05-0.32,0.09-0.48,0.12c-0.34,0.07-0.69,0.11-1.04,0.13c-0.7,0.03-1.4-0.02-2.08-0.2l-0.34-0.09l-2.63-0.73
			c-0.91-0.25-0.3-2.44,0.61-2.21l1.47,0.4l1.5,0.41c0.1,0.03,0.19,0.05,0.29,0.06c0.1,0.02,0.2,0.03,0.3,0.04
			c0.06,0.01,0.12,0.01,0.18,0.01c0.17,0.01,0.34,0.02,0.51,0.01c0.23-0.01,0.45-0.03,0.68-0.07c0.18-0.03,0.36-0.07,0.54-0.14
			C280.74,108.13,280.75,108.12,280.76,108.12z"/>
		<path fill="#454545" d="M285.33,113.68l-6-1.66c-0.99-0.27-1.55-0.82-2.05-1.67l0.34,0.09c0.68,0.18,1.38,0.23,2.08,0.2
			c0.35-0.02,0.7-0.06,1.04-0.13c0.16-0.03,0.32-0.07,0.48-0.12c0.13-0.04,0.25-0.08,0.37-0.13l0.74,0.21c0,0.07,0,0.14,0.01,0.21
			c0.05,0.36,0.25,0.7,0.52,0.94c0.15,0.14,0.32,0.24,0.5,0.33c0.21,0.11,0.43,0.19,0.66,0.25l3.59,0.99
			C286.89,113.82,286.25,113.95,285.33,113.68z"/>
		<path fill="#454545" d="M207.34,88.85l0.11,2.24L207.11,91l-3.46-0.95c-0.2-0.06-0.4-0.13-0.59-0.23
			c-0.16-0.09-0.3-0.19-0.43-0.32c-0.23-0.23-0.38-0.56-0.39-0.89c0-0.04,0-0.08,0.01-0.12c0.02-0.29,0.15-0.57,0.33-0.79
			c0.17-0.2,0.39-0.35,0.63-0.46c0.11-0.06,0.23-0.11,0.35-0.16h0.01l1.35,0.37c0.08,0.03,0.14,0.07,0.2,0.12
			c0.08,0.06,0.15,0.14,0.21,0.22c0.07,0.09,0.13,0.18,0.18,0.28c0.05,0.1,0.1,0.21,0.13,0.31L207.34,88.85z"/>
		<path fill="#454545" d="M203.65,90.05l3.46,0.95c-0.62,0.59-1.18,0.72-2,0.48l-5.08-1.41c-0.88-0.24-1.37-0.75-1.81-1.51v-0.01
			h0.01h0.01c0.59,0.16,1.2,0.2,1.82,0.18c0.32-0.01,0.64-0.04,0.96-0.1c0.16-0.03,0.31-0.06,0.46-0.09
			c0.14-0.04,0.28-0.08,0.42-0.13c0.01,0,0.02-0.01,0.03-0.01l0.32,0.09c-0.01,0.04-0.01,0.08-0.01,0.12
			c0.01,0.33,0.16,0.66,0.39,0.89c0.13,0.13,0.27,0.23,0.43,0.32C203.25,89.92,203.45,89.99,203.65,90.05z"/>
		<path fill="#454545" d="M198.15,84.83c-0.14,0.19-0.24,0.4-0.32,0.61c-0.04,0.13-0.08,0.26-0.1,0.39
			c-0.03,0.12-0.05,0.25-0.06,0.37l-0.26-0.07c0-0.06,0-0.12,0-0.19c-0.03-0.6-0.22-1.25-0.55-1.82l0.01-0.01l1.53,0.42l0.01,0.01
			C198.31,84.62,198.23,84.72,198.15,84.83z"/>
		<path fill="#454545" d="M207.24,86.79l0.1,2.06l-1.7-0.47c-0.03-0.1-0.08-0.21-0.13-0.31c-0.05-0.1-0.11-0.19-0.18-0.28
			c-0.06-0.08-0.13-0.16-0.21-0.22c-0.06-0.05-0.12-0.09-0.2-0.12l-1.35-0.37h-0.01L203.24,87l-2.08-0.57l-1.28-0.35
			c-0.08,0.17-0.11,0.33-0.09,0.52c0,0,0,0.01,0,0.02c-0.32,0-0.65-0.04-0.99-0.11l-1.13-0.31c0.01-0.12,0.03-0.25,0.06-0.37
			c0.02-0.13,0.06-0.26,0.1-0.39c0.08-0.21,0.18-0.42,0.32-0.61c0.08-0.11,0.16-0.21,0.26-0.29c0.21-0.23,0.47-0.39,0.76-0.48
			c0.42-0.14,0.8-0.15,1.23-0.03l5.09,1.37C206.29,85.65,206.81,86.07,207.24,86.79z"/>
		<path fill="#454545" d="M201.16,86.43l2.08,0.57c0,0.08-0.01,0.16-0.03,0.24c-0.24,0.11-0.46,0.26-0.63,0.46
			c-0.18,0.22-0.31,0.5-0.33,0.79l-0.32-0.09c-0.01,0-0.02,0.01-0.03,0.01c-0.14,0.05-0.28,0.09-0.42,0.13
			c-0.15,0.03-0.3,0.06-0.46,0.09c-0.32,0.06-0.64,0.09-0.96,0.1c-0.62,0.02-1.23-0.02-1.82-0.18h-0.01h-0.01l-1.57-0.43l-3.44-0.95
			c-0.2-0.05-0.39-0.13-0.57-0.23c-0.16-0.08-0.31-0.18-0.43-0.31c-0.23-0.23-0.37-0.56-0.38-0.89c0-0.03,0-0.07,0.01-0.1
			c0.02-0.29,0.14-0.58,0.34-0.79c0.19-0.21,0.43-0.36,0.69-0.48c0.1-0.04,0.2-0.08,0.3-0.12l1.31,0.36
			c0.07,0.02,0.14,0.06,0.19,0.11c0.08,0.06,0.14,0.13,0.2,0.21c0.07,0.09,0.13,0.18,0.18,0.28c0.05,0.1,0.09,0.21,0.13,0.31
			l2.23,0.61l0.26,0.07l1.13,0.31c0.34,0.07,0.67,0.11,0.99,0.11C200.25,86.62,200.69,86.56,201.16,86.43z"/>
		<path fill="#454545" d="M189.69,85.88c0.33-0.01,0.66-0.04,0.99-0.1c0.15-0.02,0.31-0.05,0.46-0.09c0.13-0.03,0.27-0.07,0.4-0.12
			c0.01,0,0.02-0.01,0.03-0.01l0.27,0.08c-0.01,0.03-0.01,0.07-0.01,0.1c0.01,0.33,0.15,0.66,0.38,0.89
			c0.12,0.13,0.27,0.23,0.43,0.31c0.18,0.1,0.37,0.18,0.57,0.23l3.44,0.95c-0.61,0.58-1.15,0.71-1.96,0.48l-4.97-1.38
			c-0.88-0.24-1.36-0.75-1.79-1.51C188.5,85.86,189.1,85.9,189.69,85.88z"/>
		<path fill="#454545" d="M188.87,81.26c0.41-0.13,0.78-0.14,1.19-0.02l4.98,1.34c0.8,0.22,1.42,0.82,1.82,1.54
			c0.33,0.57,0.52,1.22,0.55,1.82c0,0.07,0,0.13,0,0.19l-2.23-0.61c-0.04-0.1-0.08-0.21-0.13-0.31c-0.05-0.1-0.11-0.19-0.18-0.28
			c-0.06-0.08-0.12-0.15-0.2-0.21c-0.05-0.05-0.12-0.09-0.19-0.11l-1.31-0.36l-0.28-0.07l-2.08-0.57c-0.79,0.21-1.53,0.24-2.33,0.08
			l-1.09-0.3C187.48,82.31,187.76,81.63,188.87,81.26z"/>
		<path fill="#454545" d="M190.68,85.78c-0.33,0.06-0.66,0.09-0.99,0.1c-0.59,0.02-1.19-0.02-1.76-0.17h-0.01l-2.47-0.68
			c-0.69-0.19-0.59-0.65-0.44-1.2c0.16-0.55,0.32-0.99,1-0.81l1.38,0.37l1.09,0.3c0.8,0.16,1.54,0.13,2.33-0.08l2.08,0.57
			c0,0.06-0.01,0.12-0.02,0.19c-0.26,0.12-0.5,0.27-0.69,0.48c-0.2,0.21-0.32,0.5-0.34,0.79l-0.27-0.08c-0.01,0-0.02,0.01-0.03,0.01
			c-0.13,0.05-0.27,0.09-0.4,0.12C190.99,85.73,190.83,85.76,190.68,85.78z"/>
		<polygon fill="#F1E188" points="539.68,125.69 507.08,149.96 432.34,130.8 468.54,109.3 		"/>
		<polygon fill="#F1E188" points="405,94.66 366.18,113.84 307.21,98.73 347.92,81.51 		"/>
		<polygon fill="#F1E188" points="207.93,72.5 249.53,58.84 296.35,69.62 254.31,85.17 206.59,72.94 		"/>
		<polygon fill="#FFFFFF" points="206.84,49 163.33,61.85 123.94,51.75 167.75,39.99 		"/>
		<polygon fill="#A7DCE1" points="507.08,149.96 500.07,225.12 428.24,202.18 431.08,152.74 431.24,150.03 431.33,148.3 
			431.37,147.72 432.34,130.8 		"/>
		<polygon fill="#A7DCE1" points="366.18,113.84 364.4,181.79 307.29,163.54 307.24,119.74 307.23,117.3 307.23,117.08 
			307.23,115.33 307.23,112.88 307.21,98.73 		"/>
		<polygon fill="#A7DCE1" points="207.24,86.79 206.59,72.94 254.31,85.17 255.89,147.13 209.39,132.27 208.04,103.57 207.45,91.09 
			207.34,88.85 		"/>
		<polygon fill="#FFFFFF" points="163.33,61.85 167.12,118.77 128.54,106.45 123.94,51.75 		"/>
		<polygon fill="#B9D871" points="539.68,125.69 532.12,196.04 500.07,225.12 507.08,149.96 		"/>
		<path fill="#B9D871" d="M401.44,144.57c0.369,0.63,0.779,1.09,1.319,1.43l-0.56,12.62l-37.8,23.17l1.779-67.95L405,94.66
			l-1.95,44.54c-0.229,0.07-0.46,0.17-0.7,0.31c-0.13,0.07-0.239,0.15-0.35,0.24h-0.01l-2.76-0.75
			c-0.061-0.11-0.131-0.22-0.211-0.33c-0.279-0.39-0.609-0.73-1-1c-0.18-0.14-0.38-0.25-0.579-0.35c-0.21-0.11-0.431-0.19-0.66-0.25
			l-7.41-2c-0.84-0.24-1.521-0.17-2.29,0.25c-0.16,0.09-0.3,0.18-0.43,0.28c-0.391,0.02-0.65,0.53-0.78,0.9c0,0.01,0,0.01-0.01,0.02
			c-0.15,0.29-0.24,0.63-0.301,1.03l-1.55-0.42c-0.81-0.19-1.47,2.23-0.66,2.45l2.79,0.77c0.57,1,1.28,1.56,2.391,1.9l7.39,2.04
			c1.061,0.32,1.84,0.18,2.72-0.49L401.44,144.57z"/>
		<path fill="#B9D871" d="M290.01,109.38l-2.03-0.55c-0.47-0.81-1.19-1.47-2.09-1.71l-6.01-1.63c-0.57-0.15-1.05-0.13-1.59,0.09
			c-1.08,0.45-1.43,1.13-1.56,2.23l-1.47-0.4c-0.91-0.23-1.52,1.96-0.61,2.21l2.63,0.73c0.5,0.85,1.06,1.4,2.05,1.67l6,1.66
			c0.92,0.27,1.56,0.14,2.28-0.49l2.1,0.58c0.5,0.87,1.07,1.42,2.08,1.7l4.85,1.34l0.07,11.43l-40.82,18.89l-1.58-61.96l42.04-15.55
			l0.25,40.39l-4.23-1.14c-0.59-0.17-1.09-0.14-1.66,0.1C290.43,109.09,290.2,109.22,290.01,109.38z"/>
		<path fill="#FFFFFF" d="M206.59,72.94l0.65,13.85c-0.43-0.72-0.95-1.14-1.75-1.39l-5.09-1.37c-0.43-0.12-0.81-0.11-1.23,0.03
			c-0.29,0.09-0.55,0.25-0.76,0.48l-0.01-0.01l-1.53-0.42l-0.01,0.01c-0.4-0.72-1.02-1.32-1.82-1.54l-4.98-1.34
			c-0.41-0.12-0.78-0.11-1.19,0.02c-1.11,0.37-1.39,1.05-1.48,2.13l-1.38-0.37c-0.68-0.18-0.84,0.26-1,0.81
			c-0.15,0.55-0.25,1.01,0.44,1.2l2.47,0.68h0.01c0.43,0.76,0.91,1.27,1.79,1.51l4.97,1.38c0.81,0.23,1.35,0.1,1.96-0.48l1.57,0.43
			v0.01c0.44,0.76,0.93,1.27,1.81,1.51l5.08,1.41c0.82,0.24,1.38,0.11,2-0.48l0.34,0.09l0.59,12.48l-40.92,15.2l-3.79-56.92
			L206.84,49l1.09,23.5L206.59,72.94z"/>
	</g>
	<g>
		<path fill="none" stroke="#000000" stroke-width="0.5" stroke-linecap="round" stroke-linejoin="round" d="M418.05,143.82
			c0.86-0.5,1.601-0.59,2.55-0.32"/>
		<path fill="none" stroke="#000000" stroke-width="0.5" stroke-linecap="round" stroke-linejoin="round" d="M297,113.32
			c0.09,0.05,0.18,0.08,0.27,0.1"/>
		<polyline fill="none" stroke="#000000" stroke-width="0.5" stroke-linecap="round" stroke-linejoin="round" points="
			300.66,112.27 300.67,112.27 302.78,112.84 302.81,112.85 		"/>
		<path fill="none" stroke="#000000" stroke-width="0.5" stroke-linecap="round" stroke-linejoin="round" d="M296.14,112.34
			c0.01-0.01,0.03-0.01,0.05-0.02"/>
		<path fill="none" stroke="#000000" stroke-width="0.5" stroke-linecap="round" stroke-linejoin="round" d="M387.68,138.13
			c0.11,0.03,0.21,0.05,0.32,0.07c0.02,0,0.05,0.01,0.07,0.01c0.1,0.02,0.189,0.03,0.29,0.04c0.229,0.03,0.479,0.04,0.72,0.03
			c0.22,0,0.45-0.02,0.68-0.06c0.17-0.03,0.33-0.07,0.49-0.14"/>
		<path fill="none" stroke="#000000" stroke-width="0.5" stroke-linecap="round" stroke-linejoin="round" d="M426.54,151.49
			c-0.271-0.08-0.55-0.17-0.81-0.29c-0.23-0.11-0.45-0.23-0.65-0.38c-0.34-0.25-0.63-0.6-0.78-1c-0.04-0.14-0.08-0.28-0.08-0.42
			c-0.029-0.27,0-0.54,0.101-0.8c0.16-0.4,0.479-0.74,0.85-0.96"/>
		<path fill="none" stroke="#000000" stroke-width="0.5" stroke-linecap="round" stroke-linejoin="round" d="M419.92,146.03
			c-0.05-0.01-0.1-0.02-0.15-0.02c-0.05-0.01-0.1-0.01-0.149,0c-0.08,0.01-0.16,0.04-0.23,0.09c-0.149,0.12-0.21,0.35-0.22,0.54"/>
		<polyline fill="none" stroke="#000000" stroke-width="0.5" stroke-linecap="round" stroke-linejoin="round" points="
			297.27,113.42 298.81,113.84 301.24,114.51 301.88,114.68 303.52,115.13 		"/>
		<polyline fill="none" stroke="#000000" stroke-width="0.5" stroke-linecap="round" stroke-linejoin="round" points="302.89,117.4 
			302.44,117.28 300.27,116.68 296.65,115.68 		"/>
		<path fill="none" stroke="#000000" stroke-width="0.5" stroke-linecap="round" stroke-linejoin="round" d="M307.23,117.08
			c-0.08,0.04-0.15,0.08-0.23,0.11"/>
		<path fill="none" stroke="#000000" stroke-width="0.5" stroke-linecap="round" stroke-linejoin="round" d="M306.03,115.04
			c0.02-0.01,0.04-0.01,0.06-0.02"/>
		<polyline fill="none" stroke="#000000" stroke-width="0.5" stroke-linecap="round" stroke-linejoin="round" points="
			297.94,117.17 296.64,116.81 291.79,115.47 		"/>
		
			<line fill="none" stroke="#000000" stroke-width="0.5" stroke-linecap="round" stroke-linejoin="round" x1="294.1" y1="113.7" x2="294.92" y2="113.92"/>
		<path fill="none" stroke="#000000" stroke-width="0.5" stroke-linecap="round" stroke-linejoin="round" d="M291.79,115.47
			c-1.01-0.28-1.58-0.83-2.08-1.7"/>
		<path fill="none" stroke="#000000" stroke-width="0.5" stroke-linecap="round" stroke-linejoin="round" d="M291.44,111.67
			c0,0.02,0,0.04,0,0.07v0.01"/>
		<path fill="none" stroke="#000000" stroke-width="0.5" stroke-linecap="round" stroke-linejoin="round" d="M290.71,108.97
			c0.57-0.24,1.07-0.27,1.66-0.1"/>
		<path fill="none" stroke="#000000" stroke-width="0.5" stroke-linecap="round" stroke-linejoin="round" d="M289.15,111.2
			c0.1-0.81,0.32-1.39,0.86-1.82c0.19-0.16,0.42-0.29,0.7-0.41"/>
		<polyline fill="none" stroke="#000000" stroke-width="0.5" stroke-linecap="round" stroke-linejoin="round" points="
			292.37,108.87 296.6,110.01 298.53,110.53 		"/>
		<polyline fill="none" stroke="#000000" stroke-width="0.5" stroke-linecap="round" stroke-linejoin="round" points="
			297.92,112.79 296.19,112.32 295.36,112.09 293.27,111.52 291.76,111.11 		"/>
		<polyline fill="none" stroke="#000000" stroke-width="0.5" stroke-linecap="round" stroke-linejoin="round" points="
			284.63,109.97 286.15,110.38 288.55,111.04 289.15,111.2 290.72,111.63 		"/>
		<path fill="none" stroke="#000000" stroke-width="0.5" stroke-linecap="round" stroke-linejoin="round" d="M301.24,114.35
			c0,0.05,0,0.1,0,0.16"/>
		<path fill="none" stroke="#000000" stroke-width="0.5" stroke-linecap="round" stroke-linejoin="round" d="M300.27,116.68
			c-0.75,0.63-1.4,0.77-2.33,0.49"/>
		<path fill="none" stroke="#000000" stroke-width="0.5" stroke-linecap="round" stroke-linejoin="round" d="M298.53,110.53
			c0.92,0.25,1.66,0.92,2.14,1.74c0.36,0.65,0.57,1.38,0.57,2.08"/>
		<path fill="none" stroke="#000000" stroke-width="0.5" stroke-linecap="round" stroke-linejoin="round" d="M298.81,113.84
			c-0.16-0.5-0.3-0.89-0.89-1.05"/>
		<polyline fill="none" stroke="#000000" stroke-width="0.5" stroke-linecap="round" stroke-linejoin="round" points="290.1,113.88 
			289.71,113.77 287.61,113.19 284.02,112.2 		"/>
		<path fill="none" stroke="#000000" stroke-width="0.5" stroke-linecap="round" stroke-linejoin="round" d="M284.38,109.87
			c0.08,0.05,0.16,0.08,0.25,0.1"/>
		<polyline fill="none" stroke="#000000" stroke-width="0.5" stroke-linecap="round" stroke-linejoin="round" points="
			287.98,108.83 290.01,109.38 290.05,109.39 		"/>
		<path fill="none" stroke="#000000" stroke-width="0.5" stroke-linecap="round" stroke-linejoin="round" d="M283.57,108.91
			c0.01-0.01,0.01-0.01,0.03-0.02"/>
		<path fill="none" stroke="#000000" stroke-width="0.5" stroke-linecap="round" stroke-linejoin="round" d="M293.22,111.54
			c0.02,0,0.03-0.01,0.05-0.02"/>
		
			<line fill="none" stroke="#000000" stroke-width="0.5" stroke-linecap="round" stroke-linejoin="round" x1="285.33" y1="113.68" x2="279.33" y2="112.02"/>
		
			<line fill="none" stroke="#000000" stroke-width="0.5" stroke-linecap="round" stroke-linejoin="round" x1="281.59" y1="110.26" x2="282.33" y2="110.47"/>
		<path fill="none" stroke="#000000" stroke-width="0.5" stroke-linecap="round" stroke-linejoin="round" d="M278.29,105.58
			c0.54-0.22,1.02-0.24,1.59-0.09"/>
		<path fill="none" stroke="#000000" stroke-width="0.5" stroke-linecap="round" stroke-linejoin="round" d="M279,108.27
			c0,0.02,0,0.03,0,0.06v0.01"/>
		<path fill="none" stroke="#000000" stroke-width="0.5" stroke-linecap="round" stroke-linejoin="round" d="M279.33,112.02
			c-0.99-0.27-1.55-0.82-2.05-1.67"/>
		<path fill="none" stroke="#000000" stroke-width="0.5" stroke-linecap="round" stroke-linejoin="round" d="M276.73,107.81
			c0.13-1.1,0.48-1.78,1.56-2.23"/>
		
			<line fill="none" stroke="#000000" stroke-width="0.5" stroke-linecap="round" stroke-linejoin="round" x1="279.88" y1="105.49" x2="285.89" y2="107.12"/>
		<polyline fill="none" stroke="#000000" stroke-width="0.5" stroke-linecap="round" stroke-linejoin="round" points="
			285.28,109.35 283.61,108.89 283.6,108.89 282.85,108.69 280.76,108.12 279.27,107.71 		"/>
		<path fill="none" stroke="#000000" stroke-width="0.5" stroke-linecap="round" stroke-linejoin="round" d="M287.61,113.19
			c-0.72,0.63-1.36,0.76-2.28,0.49"/>
		<path fill="none" stroke="#000000" stroke-width="0.5" stroke-linecap="round" stroke-linejoin="round" d="M391.52,140.3
			c-0.05,0.03-0.109,0.06-0.159,0.08c-0.091,0.05-0.17,0.08-0.261,0.12c-0.159,0.06-0.319,0.11-0.489,0.15
			c-0.37,0.1-0.75,0.15-1.13,0.18c-0.83,0.05-1.671-0.02-2.471-0.24"/>
		<path fill="none" stroke="#000000" stroke-width="0.5" stroke-linecap="round" stroke-linejoin="round" d="M422.88,148.86
			c-0.06,0.04-0.13,0.08-0.2,0.12c-0.069,0.03-0.149,0.07-0.22,0.1c-0.17,0.07-0.33,0.12-0.5,0.17c-0.38,0.1-0.77,0.16-1.16,0.19
			c-0.87,0.06-1.75-0.02-2.59-0.25"/>
		<path fill="none" stroke="#000000" stroke-width="0.5" stroke-linecap="round" stroke-linejoin="round" d="M403.88,146.5
			c-0.43-0.13-0.8-0.29-1.12-0.5c-0.54-0.34-0.95-0.8-1.319-1.43"/>
		<path fill="none" stroke="#000000" stroke-width="0.5" stroke-linecap="round" stroke-linejoin="round" d="M402.35,139.51
			c0.24-0.14,0.471-0.24,0.7-0.31c0.561-0.17,1.09-0.15,1.72,0.03"/>
		<path fill="none" stroke="#000000" stroke-width="0.5" stroke-linecap="round" stroke-linejoin="round" d="M414.27,148.11
			c-0.909,0.67-1.71,0.81-2.789,0.49"/>
		<path fill="none" stroke="#000000" stroke-width="0.5" stroke-linecap="round" stroke-linejoin="round" d="M395.07,140.09
			c0.16,0.09,0.31,0.15,0.489,0.19"/>
		
			<line fill="none" stroke="#000000" stroke-width="0.5" stroke-linecap="round" stroke-linejoin="round" x1="399.23" y1="139" x2="401.99" y2="139.75"/>
		<path fill="none" stroke="#000000" stroke-width="0.5" stroke-linecap="round" stroke-linejoin="round" d="M393.75,139.03
			c0.05-0.03,0.1-0.06,0.16-0.08"/>
		<path fill="none" stroke="#000000" stroke-width="0.5" stroke-linecap="round" stroke-linejoin="round" d="M407.98,143.01
			c-0.04,0.76-0.381,1.14-1,1.51"/>
		
			<line fill="none" stroke="#000000" stroke-width="0.5" stroke-linecap="round" stroke-linejoin="round" x1="395.92" y1="144.29" x2="388.53" y2="142.25"/>
		<path fill="none" stroke="#000000" stroke-width="0.5" stroke-linecap="round" stroke-linejoin="round" d="M407.97,142.78
			c0.011,0.07,0.011,0.15,0.011,0.23"/>
		
			<line fill="none" stroke="#000000" stroke-width="0.5" stroke-linecap="round" stroke-linejoin="round" x1="391.36" y1="140.38" x2="392.72" y2="140.76"/>
		<path fill="none" stroke="#000000" stroke-width="0.5" stroke-linecap="round" stroke-linejoin="round" d="M403.4,142.32
			c0,0.03,0,0.06,0,0.09"/>
		<path fill="none" stroke="#000000" stroke-width="0.5" stroke-linecap="round" stroke-linejoin="round" d="M415.51,145.64
			c0,0.03-0.01,0.06-0.01,0.09"/>
		<path fill="none" stroke="#000000" stroke-width="0.5" stroke-linecap="round" stroke-linejoin="round" d="M412.82,145
			c-0.181-0.63-0.44-1.02-1.11-1.2"/>
		<polyline fill="none" stroke="#000000" stroke-width="0.5" stroke-linecap="round" stroke-linejoin="round" points="
			397.19,140.73 399.84,141.45 400.86,141.73 403.07,142.33 		"/>
		
			<line fill="none" stroke="#000000" stroke-width="0.5" stroke-linecap="round" stroke-linejoin="round" x1="395.56" y1="140.28" x2="397.19" y2="140.72"/>
		<polyline fill="none" stroke="#000000" stroke-width="0.5" stroke-linecap="round" stroke-linejoin="round" points="
			402.39,144.83 401.44,144.57 398.64,143.8 394.89,142.76 		"/>
		<path fill="none" stroke="#000000" stroke-width="0.5" stroke-linecap="round" stroke-linejoin="round" d="M423.84,147.1
			c0.01,0.09,0.01,0.18,0,0.27"/>
		
			<line fill="none" stroke="#000000" stroke-width="0.5" stroke-linecap="round" stroke-linejoin="round" x1="411.48" y1="148.6" x2="403.88" y2="146.5"/>
		
			<line fill="none" stroke="#000000" stroke-width="0.5" stroke-linecap="round" stroke-linejoin="round" x1="406.8" y1="144.62" x2="408.24" y2="145.02"/>
		<polyline fill="none" stroke="#000000" stroke-width="0.5" stroke-linecap="round" stroke-linejoin="round" points="
			418.21,149.19 417.16,148.9 414.27,148.1 410.49,147.06 		"/>
		<path fill="none" stroke="#000000" stroke-width="0.5" stroke-linecap="round" stroke-linejoin="round" d="M428.89,149.39
			c-0.18-0.66-0.5-1-1.14-1.22"/>
		<polyline fill="none" stroke="#000000" stroke-width="0.5" stroke-linecap="round" stroke-linejoin="round" points="
			411.17,144.55 412.82,145 415.5,145.73 416.58,146.03 418.9,146.66 		"/>
		<path fill="none" stroke="#000000" stroke-width="0.5" stroke-linecap="round" stroke-linejoin="round" d="M428.43,145.62
			c1.271,0.37,2.051,0.96,2.59,2.01c0.12,0.2,0.221,0.43,0.311,0.67"/>
		<path fill="none" stroke="#000000" stroke-width="0.5" stroke-linecap="round" stroke-linejoin="round" d="M423.84,147.37
			c-0.06,0.72-0.33,1.14-0.96,1.49"/>
		<path fill="none" stroke="#000000" stroke-width="0.5" stroke-linecap="round" stroke-linejoin="round" d="M400.86,141.73
			c0.14-0.89,0.47-1.49,1.13-1.98H402c0.11-0.09,0.22-0.17,0.35-0.24"/>
		
			<line fill="none" stroke="#000000" stroke-width="0.5" stroke-linecap="round" stroke-linejoin="round" x1="404.77" y1="139.23" x2="412.38" y2="141.28"/>
		<polyline fill="none" stroke="#000000" stroke-width="0.5" stroke-linecap="round" stroke-linejoin="round" points="411.71,143.8 
			409.42,143.17 407.97,142.78 404.1,141.72 		"/>
		<path fill="none" stroke="#000000" stroke-width="0.5" stroke-linecap="round" stroke-linejoin="round" d="M430.34,152.54
			c-0.939,0.68-1.75,0.82-2.859,0.49"/>
		<path fill="none" stroke="#000000" stroke-width="0.5" stroke-linecap="round" stroke-linejoin="round" d="M409.24,143.27
			c0.06-0.03,0.12-0.06,0.18-0.1"/>
		
			<line fill="none" stroke="#000000" stroke-width="0.5" stroke-linecap="round" stroke-linejoin="round" x1="417.75" y1="144.03" x2="417.76" y2="144.03"/>
		
			<line fill="none" stroke="#000000" stroke-width="0.5" stroke-linecap="round" stroke-linejoin="round" x1="414.89" y1="143.25" x2="417.74" y2="144.03"/>
		<polyline fill="none" stroke="#000000" stroke-width="0.5" stroke-linecap="round" stroke-linejoin="round" points="
			277.62,110.44 277.28,110.35 274.65,109.62 		"/>
		
			<line fill="none" stroke="#000000" stroke-width="0.5" stroke-linecap="round" stroke-linejoin="round" x1="307.23" y1="119.74" x2="304.56" y2="119.01"/>
		
			<line fill="none" stroke="#000000" stroke-width="0.5" stroke-linecap="round" stroke-linejoin="round" x1="306.94" y1="117.22" x2="307.23" y2="117.3"/>
		<path fill="none" stroke="#000000" stroke-width="0.5" stroke-linecap="round" stroke-linejoin="round" d="M195.18,85.52
			c-0.04-0.1-0.08-0.21-0.13-0.31c-0.05-0.1-0.11-0.19-0.18-0.28c-0.06-0.08-0.12-0.15-0.2-0.21c-0.05-0.05-0.12-0.09-0.19-0.11"/>
		
			<line fill="none" stroke="#000000" stroke-linecap="round" stroke-linejoin="round" x1="532.12" y1="196.04" x2="539.68" y2="125.69"/>
		
			<line fill="none" stroke="#000000" stroke-linecap="round" stroke-linejoin="round" x1="468.54" y1="109.3" x2="539.68" y2="125.69"/>
		
			<line fill="none" stroke="#000000" stroke-linecap="round" stroke-linejoin="round" x1="532.12" y1="196.04" x2="500.07" y2="225.12"/>
		<path fill="none" stroke="#000000" stroke-width="0.5" stroke-linecap="round" stroke-linejoin="round" d="M412.38,141.28
			c0.24,0.07,0.46,0.15,0.68,0.26c0.21,0.1,0.4,0.22,0.591,0.35c0.399,0.29,0.75,0.64,1.029,1.04c0.08,0.1,0.15,0.21,0.21,0.32
			c0.431,0.72,0.65,1.55,0.62,2.39"/>
		
			<line fill="none" stroke="#000000" stroke-linecap="round" stroke-linejoin="round" x1="432.34" y1="130.8" x2="468.54" y2="109.3"/>
		<polyline fill="none" stroke="#000000" stroke-linecap="round" stroke-linejoin="round" points="428.24,202.18 431.08,152.74 
			431.24,150.03 431.33,148.3 431.37,147.72 432.34,130.8 		"/>
		<path fill="none" stroke="#000000" stroke-width="0.5" stroke-linecap="round" stroke-linejoin="round" d="M410.49,147.06
			c-0.271-0.07-0.54-0.16-0.79-0.28c-0.23-0.11-0.44-0.23-0.641-0.38c-0.329-0.25-0.609-0.6-0.739-0.99
			c-0.04-0.13-0.061-0.26-0.07-0.39c-0.03-0.28,0.02-0.56,0.13-0.82c0.17-0.39,0.49-0.71,0.86-0.93"/>
		<path fill="none" stroke="#000000" stroke-width="0.5" stroke-linecap="round" stroke-linejoin="round" d="M404.1,141.72
			c-0.05-0.01-0.1-0.02-0.149-0.02c-0.04-0.01-0.08-0.01-0.13,0c-0.07,0.01-0.15,0.04-0.21,0.09c-0.07,0.05-0.11,0.13-0.141,0.21
			c-0.04,0.1-0.06,0.21-0.069,0.32"/>
		<path fill="none" stroke="#000000" stroke-width="0.5" stroke-linecap="round" stroke-linejoin="round" d="M195.04,82.58
			c0.8,0.22,1.42,0.82,1.82,1.54c0.33,0.57,0.52,1.22,0.55,1.82"/>
		
			<line fill="none" stroke="#000000" stroke-width="0.5" stroke-linecap="round" stroke-linejoin="round" x1="190.06" y1="81.24" x2="195.04" y2="82.58"/>
		<polyline fill="none" stroke="#000000" stroke-width="0.5" stroke-linecap="round" stroke-linejoin="round" points="194.48,84.61 
			193.17,84.25 192.89,84.18 190.81,83.61 189.57,83.27 189.51,83.25 		"/>
		<path fill="none" stroke="#000000" stroke-width="0.5" stroke-linecap="round" stroke-linejoin="round" d="M187.39,83.39
			c0.09-1.08,0.37-1.76,1.48-2.13"/>
		<path fill="none" stroke="#000000" stroke-width="0.5" stroke-linecap="round" stroke-linejoin="round" d="M388.71,137.53
			c-0.04-0.01-0.09-0.02-0.14-0.02c-0.04-0.01-0.08-0.01-0.11,0c-0.08,0.01-0.15,0.04-0.2,0.09c-0.06,0.05-0.1,0.13-0.13,0.21
			c-0.04,0.1-0.06,0.21-0.06,0.31"/>
		<path fill="none" stroke="#000000" stroke-width="0.5" stroke-linecap="round" stroke-linejoin="round" d="M385.87,136.5
			c0.18-0.35,0.43-0.64,0.78-0.9c0.13-0.1,0.27-0.19,0.43-0.28"/>
		<path fill="none" stroke="#000000" stroke-width="0.5" stroke-linecap="round" stroke-linejoin="round" d="M385.56,137.55
			c0.061-0.4,0.15-0.74,0.301-1.03"/>
		<path fill="none" stroke="#000000" stroke-width="0.5" stroke-linecap="round" stroke-linejoin="round" d="M387.08,135.32
			c0.77-0.42,1.45-0.49,2.29-0.25"/>
		<path fill="none" stroke="#000000" stroke-width="0.5" stroke-linecap="round" stroke-linejoin="round" d="M189.57,83.27
			c-0.07,0.17-0.09,0.33-0.08,0.51"/>
		<path fill="none" stroke="#000000" stroke-width="0.5" stroke-linecap="round" stroke-linejoin="round" d="M189.72,87.22
			c-0.88-0.24-1.36-0.75-1.79-1.51"/>
		
			<line fill="none" stroke="#000000" stroke-width="0.5" stroke-linecap="round" stroke-linejoin="round" x1="191.57" y1="85.56" x2="191.84" y2="85.64"/>
		<path fill="none" stroke="#000000" stroke-width="0.5" stroke-linecap="round" stroke-linejoin="round" d="M383.35,139.58
			c-0.81-0.22-0.149-2.64,0.66-2.45"/>
		<path fill="none" stroke="#000000" stroke-width="0.5" stroke-linecap="round" stroke-linejoin="round" d="M385.8,136.74
			c0.01-0.06,0.04-0.14,0.061-0.22c0.01-0.01,0.01-0.01,0.01-0.02c0.13-0.37,0.39-0.88,0.78-0.9"/>
		<path fill="none" stroke="#000000" stroke-width="0.5" stroke-linecap="round" stroke-linejoin="round" d="M388.07,138.12
			c0,0.03,0,0.06,0,0.09"/>
		<path fill="none" stroke="#000000" stroke-width="0.5" stroke-linecap="round" stroke-linejoin="round" d="M188.87,81.26
			c0.41-0.13,0.78-0.14,1.19-0.02"/>
		
			<line fill="none" stroke="#000000" stroke-width="0.5" stroke-linecap="round" stroke-linejoin="round" x1="194.69" y1="88.6" x2="189.72" y2="87.22"/>
		<path fill="none" stroke="#000000" stroke-width="0.5" stroke-linecap="round" stroke-linejoin="round" d="M202.28,88.25
			c-0.11,0.06-0.23,0.11-0.35,0.15c-0.01,0-0.02,0.01-0.03,0.01"/>
		<path fill="none" stroke="#000000" stroke-width="0.5" stroke-linecap="round" stroke-linejoin="round" d="M203.24,87
			c0,0.08-0.01,0.16-0.03,0.24"/>
		<path fill="none" stroke="#000000" stroke-width="0.5" stroke-linecap="round" stroke-linejoin="round" d="M197.41,85.94
			c0,0.07,0,0.13,0,0.19"/>
		<path fill="none" stroke="#000000" stroke-width="0.5" stroke-linecap="round" stroke-linejoin="round" d="M419.67,150.86
			c-1.16-0.34-1.9-0.92-2.51-1.96"/>
		<path fill="none" stroke="#000000" stroke-width="0.5" stroke-linecap="round" stroke-linejoin="round" d="M198.8,86.51
			c0.34,0.07,0.67,0.11,0.99,0.11c0.46,0,0.9-0.06,1.37-0.19"/>
		<path fill="none" stroke="#000000" stroke-width="0.5" stroke-linecap="round" stroke-linejoin="round" d="M410.65,144.34
			c0.159,0.1,0.33,0.17,0.52,0.21"/>
		<path fill="none" stroke="#000000" stroke-width="0.5" stroke-linecap="round" stroke-linejoin="round" d="M398.64,143.8
			c-0.88,0.67-1.659,0.81-2.72,0.49"/>
		<path fill="none" stroke="#000000" stroke-width="0.5" stroke-linecap="round" stroke-linejoin="round" d="M399.84,141.35
			c0,0.03,0,0.07,0,0.1"/>
		<path fill="none" stroke="#000000" stroke-width="0.5" stroke-linecap="round" stroke-linejoin="round" d="M396.78,137.07
			c0.229,0.06,0.45,0.14,0.66,0.25c0.199,0.1,0.399,0.21,0.579,0.35c0.391,0.27,0.721,0.61,1,1c0.08,0.11,0.15,0.22,0.211,0.33
			c0.42,0.7,0.64,1.52,0.609,2.35"/>
		
			<line fill="none" stroke="#000000" stroke-width="0.5" stroke-linecap="round" stroke-linejoin="round" x1="389.37" y1="135.07" x2="396.78" y2="137.07"/>
		<polyline fill="none" stroke="#000000" stroke-width="0.5" stroke-linecap="round" stroke-linejoin="round" points="
			396.12,139.55 393.91,138.95 392.54,138.58 388.71,137.53 		"/>
		<path fill="none" stroke="#000000" stroke-width="0.5" stroke-linecap="round" stroke-linejoin="round" d="M281.62,110.25
			c-0.01,0-0.02,0.01-0.03,0.01c-0.12,0.05-0.24,0.09-0.37,0.13c-0.16,0.05-0.32,0.09-0.48,0.12c-0.34,0.07-0.69,0.11-1.04,0.13
			c-0.7,0.03-1.4-0.02-2.08-0.2"/>
		<path fill="none" stroke="#000000" stroke-width="0.5" stroke-linecap="round" stroke-linejoin="round" d="M397.19,140.73v-0.01
			c-0.171-0.6-0.41-0.99-1.07-1.17"/>
		<path fill="none" stroke="#000000" stroke-width="0.5" stroke-linecap="round" stroke-linejoin="round" d="M278.23,108.22
			c0.1,0.03,0.19,0.05,0.29,0.06c0.1,0.02,0.2,0.03,0.3,0.04c0.06,0.01,0.12,0.01,0.18,0.01c0.17,0.01,0.34,0.02,0.51,0.01
			c0.23-0.01,0.45-0.03,0.68-0.07c0.18-0.03,0.36-0.07,0.54-0.14"/>
		<path fill="none" stroke="#000000" stroke-width="0.5" stroke-linecap="round" stroke-linejoin="round" d="M286.15,110.38
			c-0.15-0.49-0.29-0.87-0.87-1.03"/>
		
			<line fill="none" stroke="#000000" stroke-linecap="round" stroke-linejoin="round" x1="296.71" y1="128.24" x2="296.64" y2="116.81"/>
		
			<line fill="none" stroke="#000000" stroke-linecap="round" stroke-linejoin="round" x1="296.71" y1="128.24" x2="255.89" y2="147.13"/>
		
			<line fill="none" stroke="#000000" stroke-linecap="round" stroke-linejoin="round" x1="255.89" y1="147.13" x2="209.39" y2="132.27"/>
		<polyline fill="none" stroke="#000000" stroke-linecap="round" stroke-linejoin="round" points="209.39,132.27 208.04,103.57 
			207.45,91.09 207.34,88.85 207.24,86.79 206.59,72.94 		"/>
		
			<line fill="none" stroke="#000000" stroke-linecap="round" stroke-linejoin="round" x1="249.53" y1="58.84" x2="296.35" y2="69.62"/>
		
			<line fill="none" stroke="#000000" stroke-linecap="round" stroke-linejoin="round" x1="296.35" y1="69.62" x2="254.31" y2="85.17"/>
		
			<line fill="none" stroke="#000000" stroke-linecap="round" stroke-linejoin="round" x1="296.6" y1="110.01" x2="296.35" y2="69.62"/>
		
			<line fill="none" stroke="#000000" stroke-linecap="round" stroke-linejoin="round" x1="255.89" y1="147.13" x2="254.31" y2="85.17"/>
		
			<line fill="none" stroke="#000000" stroke-linecap="round" stroke-linejoin="round" x1="163.33" y1="61.85" x2="123.94" y2="51.75"/>
		<polyline fill="none" stroke="#000000" stroke-linecap="round" stroke-linejoin="round" points="206.59,72.94 207.93,72.5 
			249.53,58.84 		"/>
		
			<line fill="none" stroke="#000000" stroke-linecap="round" stroke-linejoin="round" x1="167.12" y1="118.77" x2="128.54" y2="106.45"/>
		<path fill="none" stroke="#000000" stroke-width="0.5" stroke-linecap="round" stroke-linejoin="round" d="M282.85,108.69
			c0,0.08,0,0.16-0.02,0.24c-0.01,0.07-0.03,0.15-0.06,0.23c-0.05,0.15-0.14,0.3-0.24,0.43c-0.23,0.3-0.56,0.51-0.91,0.66"/>
		
			<line fill="none" stroke="#000000" stroke-linecap="round" stroke-linejoin="round" x1="208.04" y1="103.57" x2="167.12" y2="118.77"/>
		
			<line fill="none" stroke="#000000" stroke-linecap="round" stroke-linejoin="round" x1="167.12" y1="118.77" x2="163.33" y2="61.85"/>
		<line fill="none" stroke="#000000" stroke-linecap="round" stroke-linejoin="round" x1="206.84" y1="49" x2="163.33" y2="61.85"/>
		<path fill="none" stroke="#000000" stroke-width="0.5" stroke-linecap="round" stroke-linejoin="round" d="M274.65,109.62
			c-0.91-0.25-0.3-2.44,0.61-2.21"/>
		<path fill="none" stroke="#000000" stroke-width="0.5" stroke-linecap="round" stroke-linejoin="round" d="M185.45,85.03
			c-0.69-0.19-0.59-0.65-0.44-1.2c0.16-0.55,0.32-0.99,1-0.81"/>
		
			<line fill="none" stroke="#000000" stroke-linecap="round" stroke-linejoin="round" x1="123.94" y1="51.75" x2="167.75" y2="39.99"/>
		
			<line fill="none" stroke="#000000" stroke-linecap="round" stroke-linejoin="round" x1="128.54" y1="106.45" x2="123.94" y2="51.75"/>
		<path fill="none" stroke="#000000" stroke-width="0.5" stroke-linecap="round" stroke-linejoin="round" d="M201.9,88.41
			c-0.14,0.05-0.28,0.09-0.42,0.13c-0.15,0.03-0.3,0.06-0.46,0.09c-0.32,0.06-0.64,0.09-0.96,0.1c-0.62,0.02-1.23-0.02-1.82-0.18"/>
		<path fill="none" stroke="#000000" stroke-width="0.5" stroke-linecap="round" stroke-linejoin="round" d="M193.65,85.1
			c0.04,0.01,0.08,0.03,0.12,0.04"/>
		
			<line fill="none" stroke="#000000" stroke-width="0.5" stroke-linecap="round" stroke-linejoin="round" x1="196.87" y1="84.11" x2="198.4" y2="84.53"/>
		<path fill="none" stroke="#000000" stroke-width="0.5" stroke-linecap="round" stroke-linejoin="round" d="M193.21,87.17
			c-0.2-0.05-0.39-0.13-0.57-0.23c-0.16-0.08-0.31-0.18-0.43-0.31c-0.23-0.23-0.37-0.56-0.38-0.89c0-0.03,0-0.07,0.01-0.1
			c0.02-0.29,0.14-0.58,0.34-0.79c0.19-0.21,0.43-0.36,0.69-0.48c0.1-0.04,0.2-0.08,0.3-0.12"/>
		<path fill="none" stroke="#000000" stroke-width="0.5" stroke-linecap="round" stroke-linejoin="round" d="M205.64,88.38
			c-0.03-0.1-0.08-0.21-0.13-0.31c-0.05-0.1-0.11-0.19-0.18-0.28c-0.06-0.08-0.13-0.16-0.21-0.22c-0.06-0.05-0.12-0.09-0.2-0.12"/>
		<path fill="none" stroke="#000000" stroke-width="0.5" stroke-linecap="round" stroke-linejoin="round" d="M205.49,85.4
			c0.8,0.25,1.32,0.67,1.75,1.39c0.01,0,0.01,0.01,0.01,0.01"/>
		<path fill="none" stroke="#000000" stroke-width="0.5" stroke-linecap="round" stroke-linejoin="round" d="M207.11,91
			c-0.62,0.59-1.18,0.72-2,0.48"/>
		<path fill="none" stroke="#000000" stroke-width="0.5" stroke-linecap="round" stroke-linejoin="round" d="M418.9,146.66
			c0.09,0.03,0.18,0.04,0.27,0.06c0.01,0,0.03,0.01,0.04,0.01c0.12,0.02,0.23,0.04,0.35,0.06c0.24,0.02,0.49,0.04,0.74,0.04
			c0.22-0.01,0.45-0.02,0.67-0.06c0.17-0.03,0.34-0.07,0.5-0.15"/>
		<polyline fill="none" stroke="#000000" stroke-width="0.5" stroke-linecap="round" stroke-linejoin="round" points="
			384.01,137.13 385.56,137.55 387.68,138.13 		"/>
		<polyline fill="none" stroke="#000000" stroke-width="0.5" stroke-linecap="round" stroke-linejoin="round" points="
			427.23,148.94 428.89,149.39 431.23,150.03 		"/>
		<polyline fill="none" stroke="#000000" stroke-width="0.5" stroke-linecap="round" stroke-linejoin="round" points="207.45,91.09 
			207.11,91 203.65,90.05 		"/>
		<path fill="none" stroke="#000000" stroke-width="0.5" stroke-linecap="round" stroke-linejoin="round" d="M392.54,138.58
			c0.01,0.06,0.01,0.12,0.01,0.19"/>
		<polyline fill="none" stroke="#000000" stroke-width="0.5" stroke-linecap="round" stroke-linejoin="round" points="
			387.01,140.59 386.14,140.35 383.35,139.58 		"/>
		<polyline fill="none" stroke="#000000" stroke-width="0.5" stroke-linecap="round" stroke-linejoin="round" points="
			431.08,152.74 430.34,152.54 426.54,151.49 		"/>
		<polyline fill="none" stroke="#000000" stroke-width="0.5" stroke-linecap="round" stroke-linejoin="round" points="204.22,87.99 
			205.64,88.38 207.34,88.85 		"/>
		
			<line fill="none" stroke="#000000" stroke-width="0.5" stroke-linecap="round" stroke-linejoin="round" x1="187.92" y1="85.71" x2="185.45" y2="85.03"/>
		<path fill="none" stroke="#000000" stroke-width="0.5" stroke-linecap="round" stroke-linejoin="round" d="M196.65,88.12
			c-0.61,0.58-1.15,0.71-1.96,0.48"/>
		<line fill="none" stroke="#000000" stroke-linecap="round" stroke-linejoin="round" x1="167.75" y1="39.99" x2="206.84" y2="49"/>
		<line fill="none" stroke="#000000" stroke-linecap="round" stroke-linejoin="round" x1="207.93" y1="72.5" x2="206.84" y2="49"/>
		<path fill="none" stroke="#000000" stroke-width="0.5" stroke-linecap="round" stroke-linejoin="round" d="M303.52,115.13
			c0.091,0.02,0.181,0.04,0.271,0.06c0.11,0.02,0.21,0.03,0.32,0.04c0.029,0,0.06,0.01,0.09,0.01c0.2,0.02,0.41,0.03,0.62,0.02
			c0.229-0.01,0.46-0.03,0.689-0.07c0.181-0.03,0.36-0.07,0.521-0.15"/>
		<path fill="none" stroke="#000000" stroke-width="0.5" stroke-linecap="round" stroke-linejoin="round" d="M291.76,111.11
			c-0.03,0-0.06-0.01-0.08-0.01s-0.04,0-0.06,0.01c-0.04,0.01-0.06,0.05-0.08,0.09c-0.08,0.15-0.1,0.31-0.1,0.47"/>
		<path fill="none" stroke="#000000" stroke-width="0.5" stroke-linecap="round" stroke-linejoin="round" d="M284.02,112.2
			c-0.23-0.06-0.45-0.14-0.66-0.25c-0.18-0.09-0.35-0.19-0.5-0.33c-0.27-0.24-0.47-0.58-0.52-0.94c-0.01-0.07-0.01-0.14-0.01-0.21
			c0-0.29,0.1-0.59,0.27-0.83c0.23-0.34,0.6-0.57,0.97-0.73"/>
		<path fill="none" stroke="#000000" stroke-width="0.5" stroke-linecap="round" stroke-linejoin="round" d="M290.72,111.63
			c0.09,0.03,0.18,0.05,0.27,0.06c0.11,0.02,0.22,0.04,0.33,0.05c0.04,0,0.08,0.01,0.12,0c0.19,0.02,0.39,0.02,0.58,0.02
			c0.23-0.01,0.45-0.03,0.67-0.07c0.18-0.03,0.36-0.08,0.53-0.15"/>
		<polyline fill="none" stroke="#000000" stroke-width="0.5" stroke-linecap="round" stroke-linejoin="round" points="
			307.22,115.33 306.09,115.02 304.56,114.6 		"/>
		<path fill="none" stroke="#000000" stroke-width="0.5" stroke-linecap="round" stroke-linejoin="round" d="M394.89,142.76
			c-0.27-0.07-0.529-0.16-0.779-0.28c-0.221-0.1-0.42-0.22-0.61-0.36c-0.32-0.26-0.59-0.6-0.71-0.99c-0.04-0.12-0.06-0.24-0.06-0.37
			c-0.03-0.28,0.02-0.56,0.13-0.81c0.18-0.39,0.52-0.71,0.89-0.92"/>
		<path fill="none" stroke="#000000" stroke-width="0.5" stroke-linecap="round" stroke-linejoin="round" d="M406.98,144.52
			c-0.061,0.04-0.12,0.07-0.181,0.1c-0.069,0.03-0.14,0.07-0.22,0.1c-0.16,0.07-0.33,0.12-0.5,0.17c-0.38,0.1-0.78,0.16-1.18,0.18
			c-0.841,0.06-1.69-0.02-2.511-0.24"/>
		<path fill="none" stroke="#000000" stroke-width="0.5" stroke-linecap="round" stroke-linejoin="round" d="M403.07,142.33
			c0.109,0.03,0.22,0.06,0.33,0.08c0.109,0.02,0.22,0.04,0.34,0.05c0.24,0.03,0.479,0.04,0.72,0.04c0.24-0.01,0.47-0.03,0.69-0.07
			c0.17-0.03,0.34-0.07,0.489-0.14"/>
		<path fill="none" stroke="#000000" stroke-width="0.5" stroke-linecap="round" stroke-linejoin="round" d="M304.56,119.01
			c-0.989-0.31-1.619-0.82-2.119-1.73"/>
		<path fill="none" stroke="#000000" stroke-width="0.5" stroke-linecap="round" stroke-linejoin="round" d="M191.54,85.57
			c-0.13,0.05-0.27,0.09-0.4,0.12c-0.15,0.04-0.31,0.07-0.46,0.09c-0.33,0.06-0.66,0.09-0.99,0.1c-0.59,0.02-1.19-0.02-1.76-0.17
			h-0.01"/>
		<path fill="none" stroke="#000000" stroke-width="0.5" stroke-linecap="round" stroke-linejoin="round" d="M303.45,112.44
			c0.59-0.25,1.1-0.29,1.72-0.11"/>
		
			<line fill="none" stroke="#000000" stroke-linecap="round" stroke-linejoin="round" x1="364.4" y1="181.79" x2="366.18" y2="113.84"/>
		
			<line fill="none" stroke="#000000" stroke-linecap="round" stroke-linejoin="round" x1="402.2" y1="158.62" x2="364.4" y2="181.79"/>
		<line fill="none" stroke="#000000" stroke-linecap="round" stroke-linejoin="round" x1="347.92" y1="81.51" x2="405" y2="94.66"/>
		<polyline fill="none" stroke="#000000" stroke-linecap="round" stroke-linejoin="round" points="403.05,139.22 403.05,139.2 
			405,94.66 		"/>
		<polyline fill="none" stroke="#000000" stroke-width="0.5" stroke-linecap="round" stroke-linejoin="round" points="193.77,85.14 
			195.18,85.52 197.41,86.13 197.67,86.2 198.8,86.51 		"/>
		<polyline fill="none" stroke="#000000" stroke-width="0.5" stroke-linecap="round" stroke-linejoin="round" points="198.23,88.55 
			198.22,88.55 196.65,88.12 193.21,87.17 		"/>
		
			<line fill="none" stroke="#000000" stroke-linecap="round" stroke-linejoin="round" x1="539.68" y1="125.69" x2="507.08" y2="149.96"/>
		
			<line fill="none" stroke="#000000" stroke-linecap="round" stroke-linejoin="round" x1="500.07" y1="225.12" x2="507.08" y2="149.96"/>
		
			<line fill="none" stroke="#000000" stroke-linecap="round" stroke-linejoin="round" x1="500.07" y1="225.12" x2="428.24" y2="202.18"/>
		
			<line fill="none" stroke="#000000" stroke-linecap="round" stroke-linejoin="round" x1="507.08" y1="149.96" x2="432.34" y2="130.8"/>
		
			<line fill="none" stroke="#000000" stroke-linecap="round" stroke-linejoin="round" x1="254.31" y1="85.17" x2="206.59" y2="72.94"/>
		<polyline fill="none" stroke="#000000" stroke-linecap="round" stroke-linejoin="round" points="307.29,163.54 307.24,119.74 
			307.23,117.3 307.23,117.08 307.23,115.33 307.23,112.88 307.21,98.73 		"/>
		<polyline fill="none" stroke="#000000" stroke-linecap="round" stroke-linejoin="round" points="402.2,158.62 402.76,146 
			402.76,145.97 		"/>
		
			<line fill="none" stroke="#000000" stroke-linecap="round" stroke-linejoin="round" x1="307.21" y1="98.73" x2="347.92" y2="81.51"/>
		<path fill="none" stroke="#000000" stroke-width="0.5" stroke-linecap="round" stroke-linejoin="round" d="M296.65,115.68
			c-0.23-0.06-0.46-0.15-0.68-0.26c-0.19-0.09-0.36-0.2-0.51-0.34c-0.27-0.24-0.47-0.58-0.52-0.94c-0.01-0.07-0.02-0.15-0.02-0.22
			c0-0.29,0.09-0.58,0.25-0.83c0.23-0.34,0.59-0.59,0.97-0.75"/>
		<path fill="none" stroke="#000000" stroke-width="0.5" stroke-linecap="round" stroke-linejoin="round" d="M307,117.19
			c-0.02,0.01-0.04,0.02-0.06,0.03c-0.12,0.05-0.24,0.1-0.37,0.13c-0.15,0.05-0.301,0.09-0.46,0.13c-0.36,0.07-0.721,0.11-1.08,0.13
			c-0.721,0.04-1.44-0.02-2.141-0.21"/>
		<path fill="none" stroke="#000000" stroke-width="0.5" stroke-linecap="round" stroke-linejoin="round" d="M419.17,146.64
			c0,0.03,0,0.06,0,0.08"/>
		<path fill="none" stroke="#000000" stroke-width="0.5" stroke-linecap="round" stroke-linejoin="round" d="M416.58,146.03
			c0.15-0.9,0.49-1.5,1.16-2h0.01c0.09-0.08,0.19-0.14,0.3-0.21"/>
		
			<line fill="none" stroke="#000000" stroke-width="0.5" stroke-linecap="round" stroke-linejoin="round" x1="201.93" y1="88.4" x2="202.25" y2="88.49"/>
		
			<line fill="none" stroke="#000000" stroke-width="0.5" stroke-linecap="round" stroke-linejoin="round" x1="420.6" y1="143.5" x2="428.43" y2="145.62"/>
		<polyline fill="none" stroke="#000000" stroke-width="0.5" stroke-linecap="round" stroke-linejoin="round" points="
			427.75,148.17 425.38,147.52 423.84,147.1 419.92,146.03 		"/>
		<path fill="none" stroke="#000000" stroke-width="0.5" stroke-linecap="round" stroke-linejoin="round" d="M204.08,87.95
			c0.05,0.02,0.09,0.03,0.14,0.04"/>
		<path fill="none" stroke="#000000" stroke-width="0.5" stroke-linecap="round" stroke-linejoin="round" d="M426.66,148.7
			c0.18,0.12,0.359,0.19,0.57,0.24"/>
		<path fill="none" stroke="#000000" stroke-width="0.5" stroke-linecap="round" stroke-linejoin="round" d="M203.65,90.05
			c-0.2-0.06-0.4-0.13-0.59-0.23c-0.16-0.09-0.3-0.19-0.43-0.32c-0.23-0.23-0.38-0.56-0.39-0.89c0-0.04,0-0.08,0.01-0.12
			c0.02-0.29,0.15-0.57,0.33-0.79c0.17-0.2,0.39-0.35,0.63-0.46c0.11-0.06,0.23-0.11,0.35-0.16"/>
		<polyline fill="none" stroke="#000000" stroke-width="0.5" stroke-linecap="round" stroke-linejoin="round" points="186.01,83.02 
			187.39,83.39 188.48,83.69 		"/>
		<path fill="none" stroke="#000000" stroke-width="0.5" stroke-linecap="round" stroke-linejoin="round" d="M425.17,147.64
			c0.061-0.04,0.13-0.08,0.21-0.12"/>
		<polyline fill="none" stroke="#000000" stroke-width="0.5" stroke-linecap="round" stroke-linejoin="round" points="431,147.62 
			431.02,147.63 431.37,147.72 		"/>
		
			<line fill="none" stroke="#000000" stroke-width="0.5" stroke-linecap="round" stroke-linejoin="round" x1="427.48" y1="153.03" x2="419.67" y2="150.86"/>
		
			<line fill="none" stroke="#000000" stroke-width="0.5" stroke-linecap="round" stroke-linejoin="round" x1="422.68" y1="148.98" x2="424.21" y2="149.4"/>
		
			<line fill="none" stroke="#000000" stroke-width="0.5" stroke-linecap="round" stroke-linejoin="round" x1="205.11" y1="91.48" x2="200.03" y2="90.07"/>
		<path fill="none" stroke="#000000" stroke-width="0.5" stroke-linecap="round" stroke-linejoin="round" d="M191.86,85.44
			c-0.09,0.05-0.19,0.09-0.29,0.12c-0.01,0-0.02,0.01-0.03,0.01"/>
		<path fill="none" stroke="#000000" stroke-width="0.5" stroke-linecap="round" stroke-linejoin="round" d="M192.89,84.18
			c0,0.06-0.01,0.12-0.02,0.19"/>
		<path fill="none" stroke="#000000" stroke-width="0.5" stroke-linecap="round" stroke-linejoin="round" d="M199.88,86.08
			c-0.08,0.17-0.11,0.33-0.09,0.52"/>
		<path fill="none" stroke="#000000" stroke-width="0.5" stroke-linecap="round" stroke-linejoin="round" d="M199.17,84.06
			c0.42-0.14,0.8-0.15,1.23-0.03"/>
		<path fill="none" stroke="#000000" stroke-width="0.5" stroke-linecap="round" stroke-linejoin="round" d="M200.03,90.07
			c-0.88-0.24-1.37-0.75-1.81-1.51"/>
		<path fill="none" stroke="#000000" stroke-width="0.5" stroke-linecap="round" stroke-linejoin="round" d="M197.67,86.2
			c0.01-0.12,0.03-0.25,0.06-0.37c0.02-0.13,0.06-0.26,0.1-0.39c0.08-0.21,0.18-0.42,0.32-0.61c0.08-0.11,0.16-0.21,0.26-0.29
			c0.21-0.23,0.47-0.39,0.76-0.48"/>
		
			<line fill="none" stroke="#000000" stroke-width="0.5" stroke-linecap="round" stroke-linejoin="round" x1="200.4" y1="84.03" x2="205.49" y2="85.4"/>
		<path fill="none" stroke="#000000" stroke-width="0.5" stroke-linecap="round" stroke-linejoin="round" d="M199.79,86.6
			c0,0,0,0.01,0,0.02"/>
		<path fill="none" stroke="#000000" stroke-width="0.5" stroke-linecap="round" stroke-linejoin="round" d="M188.48,83.69
			c0.8,0.16,1.54,0.13,2.33-0.08"/>
		<path fill="none" stroke="#000000" stroke-width="0.5" stroke-linecap="round" stroke-linejoin="round" d="M280.73,108.13
			c0.01,0,0.02-0.01,0.03-0.01"/>
		<polyline fill="none" stroke="#000000" stroke-width="0.5" stroke-linecap="round" stroke-linejoin="round" points="
			275.26,107.41 276.73,107.81 278.23,108.22 		"/>
		<path fill="none" stroke="#000000" stroke-width="0.5" stroke-linecap="round" stroke-linejoin="round" d="M304.2,115.16
			c0,0.03,0,0.06,0,0.08"/>
		
			<line fill="none" stroke="#000000" stroke-linecap="round" stroke-linejoin="round" x1="366.18" y1="113.84" x2="307.21" y2="98.73"/>
		
			<line fill="none" stroke="#000000" stroke-linecap="round" stroke-linejoin="round" x1="364.4" y1="181.79" x2="307.29" y2="163.54"/>
		
			<line fill="none" stroke="#000000" stroke-linecap="round" stroke-linejoin="round" x1="405" y1="94.66" x2="366.18" y2="113.84"/>
		<polyline fill="none" stroke="#000000" stroke-width="0.5" stroke-linecap="round" stroke-linejoin="round" points="204.92,87.45 
			203.57,87.08 203.56,87.08 203.24,87 201.16,86.43 199.88,86.08 199.83,86.07 		"/>
		<path fill="none" stroke="#000000" stroke-width="0.5" stroke-linecap="round" stroke-linejoin="round" d="M392.55,138.77
			c-0.03,0.78-0.39,1.17-1.03,1.53"/>
		<path fill="none" stroke="#000000" stroke-width="0.5" stroke-linecap="round" stroke-linejoin="round" d="M294.15,113.68
			c-0.02,0.01-0.03,0.01-0.05,0.02c-0.1,0.04-0.22,0.09-0.33,0.12c-0.16,0.05-0.32,0.09-0.48,0.12c-0.35,0.08-0.7,0.12-1.06,0.14
			c-0.71,0.04-1.44-0.02-2.13-0.2"/>
		<path fill="none" stroke="#000000" stroke-width="0.5" stroke-linecap="round" stroke-linejoin="round" d="M295.36,112.09
			c0,0.08,0,0.16-0.01,0.24c-0.02,0.08-0.04,0.16-0.07,0.24c-0.05,0.16-0.13,0.32-0.24,0.45c-0.22,0.3-0.55,0.51-0.89,0.66"/>
		<path fill="none" stroke="#000000" stroke-width="0.5" stroke-linecap="round" stroke-linejoin="round" d="M279.27,107.71
			c-0.03-0.01-0.08-0.02-0.11-0.01c-0.01,0.01-0.03,0.03-0.04,0.04c-0.01,0.02-0.03,0.05-0.04,0.07c-0.07,0.14-0.08,0.3-0.08,0.46"
			/>
		<path fill="none" stroke="#000000" stroke-width="0.5" stroke-linecap="round" stroke-linejoin="round" d="M288.55,110.88
			c0.01,0.05,0,0.11,0,0.16"/>
		<path fill="none" stroke="#000000" stroke-width="0.5" stroke-linecap="round" stroke-linejoin="round" d="M285.89,107.12
			c0.9,0.24,1.62,0.9,2.09,1.71c0.36,0.63,0.57,1.36,0.57,2.05"/>
		<path fill="none" stroke="#000000" stroke-width="0.5" stroke-linecap="round" stroke-linejoin="round" d="M301.88,114.68
			c0.101-0.82,0.34-1.4,0.9-1.84c0.18-0.15,0.399-0.28,0.67-0.4"/>
		
			<line fill="none" stroke="#000000" stroke-width="0.5" stroke-linecap="round" stroke-linejoin="round" x1="305.17" y1="112.33" x2="307.22" y2="112.88"/>
		<path fill="none" stroke="#000000" stroke-width="0.5" stroke-linecap="round" stroke-linejoin="round" d="M388.53,142.25
			c-1.11-0.34-1.82-0.9-2.391-1.9"/>
		<path fill="none" stroke="#000000" stroke-width="0.5" stroke-linecap="round" stroke-linejoin="round" d="M304.56,114.6
			c-0.029-0.01-0.06-0.01-0.09-0.01c-0.02-0.01-0.05-0.01-0.069,0c-0.04,0.01-0.07,0.05-0.091,0.09
			c-0.09,0.14-0.109,0.32-0.109,0.48"/>
	</g>
</g>
<rect x="47.5" y="196.5" fill="#FFFFFF" stroke="#000000" stroke-width="0.75" stroke-miterlimit="10" width="11.5" height="11.5"/>
<rect x="47.375" y="216.25" fill="#F1E188" stroke="#000000" stroke-width="0.75" stroke-miterlimit="10" width="11.5" height="11.5"/>
<rect x="47.25" y="235.25" fill="#A7DCE1" stroke="#000000" stroke-width="0.75" stroke-miterlimit="10" width="11.5" height="11.5"/>
<rect x="47.125" y="255.25" fill="#B9D871" stroke="#000000" stroke-width="0.75" stroke-miterlimit="10" width="11.5" height="11.5"/>
<text transform="matrix(1 0 0 1 65 206)" font-family="'MyriadPro-Bold'" font-size="12">Genesis Block</text>
<text transform="matrix(1 0 0 1 65 226.666)" font-family="'MyriadPro-Bold'" font-size="12">Data</text>
<text transform="matrix(1 0 0 1 64 245.666)" font-family="'MyriadPro-Bold'" font-size="12">Current Block Hash</text>
<text transform="matrix(1 0 0 1 64.3335 265.666)" font-family="'MyriadPro-Bold'" font-size="12">Previous Block Hash</text>
</svg>
