<?xml version="1.0" encoding="utf-8"?>
<!-- Generator: Adobe Illustrator 15.0.0, SVG Export Plug-In . SVG Version: 6.00 Build 0)  -->
<!DOCTYPE svg PUBLIC "-//W3C//DTD SVG 1.1//EN" "http://www.w3.org/Graphics/SVG/1.1/DTD/svg11.dtd">
<svg version="1.1" id="Layer_1" xmlns="http://www.w3.org/2000/svg" xmlns:xlink="http://www.w3.org/1999/xlink" x="0px" y="0px"
	 width="600px" height="300px" viewBox="0 0 600 300" enable-background="new 0 0 600 300" xml:space="preserve">
<g id="XMLID_1_">
	<g>
		<path fill="#A6DCE1" d="M600,0v300H0V0H600z M498,36.08c0.24-0.12,0.47-0.33-0.74-0.86c-1.21-0.53-3.859-1.37-5.56-2.4
			c-1.7-1.02-2.45-2.23-3.25-3.56c-0.811-1.34-1.67-2.81-2.21-4.18c-0.53-1.36-0.74-2.63-0.88-3.67c-0.15-1.05-0.23-1.87-0.57-2.49
			c-0.35-0.62-0.96-1.03-1.45-1.31c-0.49-0.28-0.859-0.42-1.16-0.52c-0.3-0.1-0.54-0.16-0.89,0.1c-0.34,0.26-0.82,0.84-1.15,1.33
			c-0.33,0.49-0.51,0.89-0.87,1.15c-0.359,0.26-0.899,0.39-1.35,0.48c-0.46,0.09-0.84,0.15-1.21,0.13
			c-0.37-0.03-0.74-0.15-1.01-0.53c-0.271-0.38-0.45-1.02-0.88-1.14c-0.021,2.33-0.08,5.8-0.101,8.6
			c-0.02,2.81,0.011,4.95-0.01,6.59c-0.01,1.63-0.06,2.75-0.16,3.57c-0.1,0.82-0.24,1.34-0.109,1.83c0.14,0.48,0.56,0.94,0.96,1.26
			c0.399,0.32,0.79,0.49,0.79,0.63c0,0.15-0.391,0.27-0.73,0.36c-0.35,0.09-0.66,0.15-1.05,0.57c-0.391,0.42-0.86,1.2-1.63,2.09
			c-0.771,0.89-1.851,1.88-2.61,2.63c-0.75,0.76-1.189,1.27-2.16,1.79c-0.97,0.52-2.47,1.05-4.609,1.72
			c-2.141,0.67-4.91,1.48-7.181,2.22c-2.27,0.74-4.05,1.4-5.35,1.93c-1.3,0.54-2.11,0.95-2.96,1.45c-0.86,0.5-1.74,1.1-2.521,2.04
			c-0.779,0.94-1.449,2.23-1.909,3.38c-0.461,1.15-0.711,2.17-0.811,3.24c-0.11,1.07-0.06,2.2-0.16,2.91
			c-0.09,0.7-0.34,0.99-0.39,1.51c-0.04,0.51,0.12,1.26,0.27,1.82c0.15,0.56,0.29,0.93,0.28,1.16s-0.17,0.31-0.51,0.54
			c-0.36,0.22-0.9,0.59-1.54,1.04c-0.63,0.45-1.37,0.98-1.811,1.17c-0.43,0.19-0.579,0.04-1.939,0.33
			c-1.37,0.29-3.96,1.02-6.07,1.75c-2.1,0.74-3.72,1.47-4.62,1.92c-0.89,0.45-1.06,0.61-1.109,0.87c-0.051,0.25,0.01,0.59,0.33,1.21
			c0.33,0.61,0.899,1.51,1.26,2.04c0.359,0.53,0.51,0.7,0.34,1.47s-0.65,2.14-2.05,4.02c-1.41,1.87-3.75,4.24-5.9,6.18
			c-2.149,1.95-4.1,3.45-5.95,4.73c-1.84,1.28-3.569,2.32-5.18,3.16c-1.62,0.84-3.11,1.47-4.36,2.04
			c-1.26,0.56-2.27,1.06-2.949,1.32c-0.69,0.25-1.051,0.28-1.101-0.02c-0.05-0.3,0.21-0.93,0.08-1.25
			c-0.14-0.31-0.67-0.31-1.33-0.31s-1.43,0-1.89,0c-0.45,0-0.57,0-0.68-0.19c-0.101-0.18-0.19-0.55-0.181-1.72
			c0-1.18,0.101-3.16,0.33-4.46c0.23-1.31,0.601-1.95,1.101-2.65c0.5-0.71,1.14-1.48,1.6-2.01c0.46-0.52,0.75-0.78,0.93-1.46
			c0.181-0.67,0.25-1.76-0.17-3.48c-0.41-1.73-1.3-4.1-2.1-5.67c-0.8-1.58-1.51-2.35-2.021-2.81c-0.52-0.47-0.83-0.64-1.12-0.45
			c-0.29,0.18-0.54,0.7-0.84,1.63c-0.29,0.92-0.609,2.24-1.239,3.09c-0.631,0.84-1.551,1.22-2.351,1.55
			c-0.81,0.33-1.5,0.63-2.01-0.1c-0.521-0.72-0.86-2.46-0.57-3.57c0.29-1.11,1.21-1.59,1.82-2.03s0.92-0.85,1.16-1.51
			c0.239-0.66,0.41-1.57,0.13-2.37c-0.28-0.79-1.01-1.47-1.43-2.17c-0.41-0.7-0.511-1.42-0.561-1.94s-0.06-0.84-0.21-1.37
			c-0.15-0.52-0.43-1.26-1.34-1.94c-0.92-0.69-2.47-1.32-4.29-1.73c-1.811-0.4-3.89-0.57-4.94-0.61c-1.05-0.04-1.08,0.05-0.939,0.38
			c0.13,0.33,0.43,0.91,0.8,1.54c0.38,0.63,0.83,1.31,0.93,1.78c0.09,0.46-0.17,0.72-0.62,0.84c-0.46,0.13-1.109,0.13-1.479,0.21
			c-0.38,0.07-0.49,0.21-0.48,1.26c0,1.04,0.11,2.98,0.061,4.01c-0.05,1.04-0.26,1.15-0.521,1.16c-0.25,0.01-0.56-0.09-0.8-0.49
			c-0.24-0.4-0.41-1.1-0.59-1.46c-0.17-0.36-0.35-0.38-0.8-0.05c-0.44,0.34-1.15,1.02-1.601,1.64c-0.439,0.61-0.63,1.17-0.8,2.24
			s-0.319,2.66-0.24,4.04c0.091,1.38,0.421,2.56,0.851,4.36c0.43,1.81,0.95,4.25,1.66,6.81c0.72,2.57,1.63,5.26,1.88,7.31
			c0.24,2.04-0.17,3.45-0.96,4.79c-0.79,1.33-1.96,2.6-2.74,3.48c-0.77,0.88-1.15,1.38-1.59,1.53c-0.45,0.15-0.97-0.04-1.891-0.58
			c-0.93-0.53-2.27-1.39-3.47-2.66c-1.21-1.27-2.28-2.95-2.93-5.44c-0.65-2.49-0.88-5.81-0.811-9.52
			c0.061-3.71,0.431-7.82,0.7-10.11c0.26-2.28,0.431-2.74,0.41-2.98c-0.02-0.24-0.22-0.25-0.76-0.02
			c-0.53,0.24-1.391,0.72-1.891,1.11c-0.5,0.4-0.649,0.71-0.81,1.02c-0.17,0.31-0.35,0.64-0.58,0.77c-0.229,0.14-0.5,0.09-0.47-0.51
			c0.02-0.59,0.34-1.73,1.24-4.28c0.899-2.55,2.38-6.5,3.239-8.71c0.86-2.21,1.091-2.66,2.25-3.12c1.17-0.46,3.261-0.92,4.811-1.4
			c1.56-0.47,2.58-0.95,4.27-1.4c1.681-0.45,4.03-0.87,5.37-0.93c1.33-0.07,1.65,0.22,1.91,0.3c0.25,0.09,0.44-0.03,0.44-0.36
			c-0.011-0.32-0.2-0.87-0.341-1.28c-0.13-0.42-0.189-0.71-0.619-0.99c-0.44-0.28-1.24-0.55-1.91-0.6
			c-0.66-0.05-1.19,0.12-1.771,0.17c-0.59,0.06-1.24-0.01-1.56-0.23c-0.33-0.22-0.32-0.6-0.34-1.02
			c-0.021-0.43-0.061-0.91-0.141-1.22c-0.08-0.32-0.2-0.47-0.529-0.47c-0.33,0-0.87,0.16-2.07,0.54c-1.2,0.37-3.08,0.96-4.62,1.62
			s-2.73,1.38-3.99,2.06c-1.25,0.67-2.55,1.29-3.229,1.66c-0.69,0.36-0.75,0.47-0.98,0.4c-0.229-0.07-0.63-0.32-0.99-0.71
			c-0.359-0.4-0.68-0.95-1.18-1.5c-0.49-0.56-1.16-1.13-1.54-1.48c-0.38-0.36-0.47-0.5-0.91-0.37c-0.439,0.13-1.229,0.52-1.859,1.01
			c-0.62,0.49-1.08,1.08-1.351,1.39c-0.27,0.3-0.35,0.33-0.46-0.19c-0.12-0.52-0.25-1.58-0.25-2.23c0-0.64,0.15-0.88,0.59-1.53
			c0.45-0.64,1.19-1.69,1.61-2.3c0.41-0.61,0.5-0.78,0.31-0.83c-0.18-0.05-0.63,0.01-0.989,0.05c-0.36,0.05-0.63,0.08-1.261,0.55
			c-0.619,0.47-1.6,1.37-2.56,2.35c-0.96,0.99-1.9,2.05-3.08,3.35c-1.18,1.31-2.61,2.85-3.4,3.65c-0.8,0.8-0.979,0.85-1.409,0.91
			c-0.431,0.05-1.11,0.12-1.99,0.33c-0.87,0.22-1.93,0.58-2.69,0.7c-0.75,0.12-1.199-0.01-1.34-0.51
			c-0.14-0.51,0.021-1.38,0.15-1.92c0.12-0.53,0.189-0.73,0.029-0.72c-0.17,0.02-0.569,0.24-1.22,0.62
			c-0.649,0.38-1.55,0.92-2.34,1.3s-1.49,0.61-2.04,0.75c-0.54,0.14-0.95,0.18-1.26-0.34c-0.311-0.52-0.521-1.6,0.149-2.98
			c0.681-1.38,2.24-3.05,4.16-4.76s4.2-3.44,5.41-4.38c1.21-0.95,1.36-1.1,1.12-1.29c-0.25-0.18-0.87-0.4-1.92-0.45
			c-1.04-0.06-2.5,0.04-3.53,0.3c-1.03,0.26-1.64,0.69-2.45,0.95c-0.81,0.27-1.83,0.36-2.76,0.25c-0.93-0.11-1.77-0.43-2.87-0.91
			c-1.109-0.47-2.489-1.11-3.52-1.61c-1.04-0.51-1.73-0.89-2.891-1.17c-1.159-0.28-2.779-0.47-3.89-0.46
			c-1.12,0-1.729,0.19-2.83,0.37c-1.1,0.17-2.689,0.32-3.77,0.29c-1.07-0.04-1.63-0.27-1.96-0.62c-0.33-0.34-0.431-0.8-0.58-1.28
			c-0.15-0.47-0.351-0.95-0.49-1.2c-0.14-0.24-0.22-0.25-0.66-0.16c-0.45,0.09-1.25,0.28-2.65,0.74c-1.4,0.45-3.38,1.18-5.77,1.48
			c-2.39,0.31-5.19,0.19-7.73,0.18c-2.55-0.01-4.85,0.08-6.81-0.06c-1.95-0.15-3.57-0.52-5.3-0.58s-3.56,0.18-6.57,0.55
			c-3,0.36-7.18,0.84-10.04,1.26c-2.86,0.42-4.4,0.78-6.49,0.95c-2.08,0.16-4.71,0.13-8.23,0.11c-3.52-0.03-7.93-0.06-11.47-0.2
			s-6.2-0.39-9.48-0.65c-3.28-0.25-7.17-0.52-11.76-0.82c-4.58-0.31-9.86-0.66-17.41-1.33c-7.56-0.66-17.39-1.63-23.71-2.27
			c-6.31-0.64-9.1-0.95-12.36-1.44c-3.26-0.48-7-1.14-12.8-2.18c-5.8-1.03-13.66-2.44-17.95-3.27s-5-1.09-5.56-1.28
			c-0.57-0.18-0.98-0.29-1.41-0.04c-0.44,0.24-0.89,0.84-1.35,1.68c-0.47,0.84-0.94,1.92-1.35,2.77c-0.41,0.84-0.74,1.45-1.53,1.72
			c-0.8,0.27-2.04,0.19-3.61-0.44c-1.57-0.64-3.46-1.83-5.6-3.56c0.13,6.58,0.62,7.9,0.92,9.6c0.3,1.71,0.4,3.8,0.38,6.13
			c-0.01,2.32-0.15,4.88-0.3,6.71s-0.3,2.93-0.54,4.07c-0.24,1.14-0.56,2.33-0.91,3.17c-0.35,0.85-0.72,1.34-1.25,2.17
			c-0.53,0.83-1.21,1.99-1.61,2.71c-0.4,0.71-0.52,0.99-0.62,1.81c-0.09,0.81-0.16,2.15-0.4,3.64c-0.24,1.49-0.65,3.13-0.88,4.09
			c-0.23,0.97-0.29,1.26-1.06,2.06c-0.77,0.81-2.26,2.13-3.22,3.25c-0.95,1.11-1.39,2.03-1.67,3.42c-0.28,1.38-0.4,3.23-0.36,4.97
			c0.03,1.75,0.22,3.38,0.29,5.39c0.06,2.01,0,4.39-0.24,6.07c-0.25,1.68-0.69,2.66-1.32,3.77c-0.64,1.12-1.46,2.37-1.96,3.17
			c-0.5,0.8-0.67,1.16-0.64,1.63c0.04,0.47,0.27,1.05,0.75,1.7s1.19,1.35,1.62,1.92c0.44,0.56,0.58,0.97,0.57,1.85
			c-0.01,0.61-0.1,1.43-0.21,2.32l-7.86,4v3.79h6.91c0.04,0.31,0.1,0.63,0.2,0.95h-7.11v3.79h2.66v16.97h-2.66v3.79h15.52
			c-0.04,0.12-0.06,0.26-0.08,0.42c-0.01,0.16-0.01,0.34,0,0.53H82.38v4.73h20.8c0.17,0.35,0.35,0.72,0.54,1.079
			c0.74,1.431,1.66,2.98,2.4,4.341c0.73,1.359,1.29,2.54,1.66,3.729c0.38,1.2,0.56,2.4,0.65,3.66c0.1,1.25,0.1,2.56,0.1,3.24
			c0,0.67,0,0.7,0.28,0.779c0.29,0.07,0.86,0.181,1.91,0.381c1.06,0.189,2.59,0.47,3.85,0.8c1.25,0.34,2.22,0.729,2.78,1.18
			c0.56,0.44,0.71,0.93,0.73,1.37c0.03,0.43-0.08,0.8,0.06,1.21c0.13,0.42,0.49,0.87,1.32,1.16s2.12,0.42,3.04,0.58
			c0.92,0.17,1.47,0.359,1.77,0.54c0.29,0.18,0.34,0.34,0.39,0.81c0.05,0.47,0.11,1.24,0.13,1.72c0.02,0.48,0.01,0.671,0.23,0.73
			c0.22,0.07,0.67,0,1.52,0.32c0.85,0.31,2.09,1,3.23,2.029c1.14,1.03,2.17,2.391,2.7,3.271c0.53,0.88,0.55,1.29,0.53,2.16
			c-0.03,0.88-0.1,2.229-0.14,3.02c-0.03,0.79-0.03,1.01,0.18,1.12c0.21,0.1,0.63,0.09,1.17,0.24c0.53,0.149,1.18,0.46,1.7,0.66
			c0.52,0.199,0.91,0.279,2.01,0.33c1.1,0.04,2.92,0.05,4.65,0.069c1.73,0.03,3.37,0.08,4.74,0.05c1.37-0.029,2.48-0.13,3.46-0.229
			s1.84-0.18,2.44-0.15c0.6,0.03,0.95,0.181,1.23,0.42c0.29,0.25,0.51,0.591,0.55,1.181c0.03,0.59-0.11,1.41-0.1,1.899
			c0,0.49,0.17,0.63,0.57,0.75s1.04,0.21,2.78,0.801c1.73,0.59,4.55,1.689,7.53,3.239c2.99,1.55,6.14,3.561,8.77,5.12
			c2.62,1.57,4.72,2.69,6.49,3.391c1.77,0.699,3.22,0.979,5.32,1.199c2.11,0.221,4.87,0.391,7.37,0.53
			c2.49,0.13,4.72,0.22,6.85,0.28c2.13,0.06,4.16,0.09,5.22,0.08c1.06-0.021,1.15-0.08,1.19-0.67c0.04-0.591,0.04-1.721,0.13-2.511
			c0.09-0.779,0.28-1.22,0.93-1.54c0.65-0.33,1.77-0.54,3.3-0.529c1.54,0,3.5,0.229,5.41,0.42c1.91,0.2,3.77,0.37,4.91,0.56
			c1.14,0.19,1.57,0.4,2.93,1.42c1.36,1.03,3.64,2.86,5.83,4.74c2.18,1.88,4.27,3.8,5.75,5.14c1.48,1.33,2.35,2.08,3.02,3.141
			c0.68,1.06,1.16,2.43,1.6,3.84c0.43,1.4,0.81,2.84,1.42,4.06c0.62,1.23,1.46,2.23,2.36,3.12c0.91,0.891,1.87,1.67,3.15,2.2
			c1.27,0.53,2.85,0.83,3.69,0.97c0.84,0.141,0.95,0.13,1.34-1.02c0.4-1.15,1.09-3.44,1.79-4.87c0.7-1.42,1.41-1.98,2.98-2.38
			c1.56-0.4,3.99-0.63,6.01-0.601c2.02,0.03,3.64,0.341,4.52,0.561c0.88,0.229,1.02,0.38,2.11,1.63c1.09,1.25,3.14,3.6,5.41,6.59
			c2.27,2.98,4.77,6.601,6.66,9.44s3.16,4.91,4.19,6.52c1.03,1.61,1.81,2.771,2.54,4.09c0.74,1.32,1.42,2.811,1.82,3.761
			c0.41,0.949,0.54,1.359,0.58,1.64c0.03,0.29-0.02,0.45,0.21,0.46s0.74-0.12,2.72,0.28c1.98,0.399,5.41,1.35,7.729,2.1
			c2.311,0.76,3.49,1.34,4.07,0.851c0.16-2.11-0.109-2.41-0.54-3.15c-0.42-0.75-1.01-1.94-1.34-2.94s-0.4-1.81-0.33-2.58
			c0.061-0.76,0.25-1.47,0.3-1.859c0.04-0.391-0.06-0.47-0.43-0.53c-0.37-0.05-1.02-0.1-1.5-0.14s-0.81-0.08-0.96-0.471
			c-0.16-0.399-0.16-1.149-0.17-1.63c-0.01-0.479-0.04-0.67,0.06-0.779c0.11-0.11,0.36-0.141,0.62,0.05
			c0.25,0.189,0.521,0.6,0.94,0.819c0.43,0.211,1.01,0.24,1.529,0.08c0.511-0.17,0.95-0.52,1.16-0.88
			c0.21-0.359,0.181-0.729-0.109-1.17c-0.301-0.439-0.86-0.97-1.32-1.51c-0.47-0.55-0.85-1.12-0.96-1.44
			c-0.1-0.31,0.07-0.38,0.71-0.279c0.64,0.09,1.76,0.34,2.34,0.319c0.59-0.01,0.641-0.29,0.46-0.83c-0.18-0.54-0.58-1.35-0.8-1.899
			c-0.22-0.561-0.26-0.88-0.05-1.11c0.2-0.22,0.649-0.359,0.95-0.31c0.31,0.05,0.46,0.279,0.93,0.18c0.46-0.1,1.24-0.53,1.439-1.01
			c0.2-0.48-0.159-1.01-0.22-1.26c-0.06-0.261,0.2-0.221,0.771-0.131c0.56,0.101,1.439,0.261,1.81,0.171
			c0.38-0.091,0.25-0.431-0.06-0.87c-0.32-0.431-0.82-0.96-1.15-1.38c-0.33-0.431-0.479-0.771-0.3-1.03
			c0.17-0.26,0.68-0.44,1.24-0.41c0.56,0.03,1.17,0.26,1.51,0.54c0.34,0.27,0.43,0.58,0.79,0.76c0.37,0.17,1.01,0.2,1.859-0.2
			c0.841-0.399,1.881-1.239,2.811-2.189c0.939-0.96,1.77-2.03,2.77-2.96c1-0.94,2.17-1.73,2.87-2.141c0.7-0.399,0.95-0.43,1.09-0.52
			c0.141-0.1,0.181-0.26-0.1-0.8c-0.28-0.53-0.89-1.44-1.24-2.09c-0.34-0.641-0.43-1.021-0.279-1.28
			c0.159-0.271,0.569-0.42,1.01-0.601c0.439-0.18,0.91-0.38,1.3-0.63c0.39-0.239,0.7-0.52,0.9-0.649c0.189-0.12,0.27-0.08,0.38,0.05
			c0.1,0.12,0.239,0.32,0.31,0.72c0.07,0.4,0.08,0.99,0.11,1.38c0.04,0.38,0.1,0.551,0.54,0.57c0.439,0.021,1.26-0.1,1.72-0.16
			c0.46-0.05,0.56-0.03,0.65-0.24c0.1-0.199,0.18-0.619,0.37-0.96c0.18-0.34,0.46-0.609,0.76-0.779c0.29-0.181,0.6-0.271,0.85-0.351
			c0.24-0.09,0.41-0.17,0.49-0.399c0.08-0.221,0.07-0.59,0.14-0.84c0.07-0.24,0.21-0.36,0.34-0.58c0.12-0.221,0.221-0.53,0.36-0.771
			c0.15-0.22,0.34-0.36,0.7-0.42c0.37-0.06,0.899-0.03,1.189,0.03c0.29,0.06,0.33,0.16,0.29,0.54c-0.05,0.38-0.18,1.029-0.21,1.479
			c-0.02,0.44,0.061,0.681,0.15,0.78c0.09,0.11,0.19,0.08,0.5-0.14c0.3-0.221,0.82-0.631,2.17-0.801c1.36-0.17,3.55-0.1,5,0.131
			c1.44,0.229,2.15,0.619,2.9,0.8c0.76,0.18,1.56,0.16,1.989,0.149c0.431-0.01,0.49,0,0.44-0.09c-0.04-0.1-0.19-0.29-0.15-0.72
			c0.051-0.44,0.28-1.11,0.73-1.69s1.11-1.069,2.02-1.069c0.91,0,2.07,0.489,2.94,1.1c0.86,0.61,1.439,1.33,1.82,1.61
			c0.369,0.279,0.55,0.13,0.819-0.17c0.28-0.311,0.67-0.75,0.99-0.78c0.31-0.03,0.56,0.37,0.83,1.16c0.28,0.79,0.59,1.989,0.82,2.59
			c0.229,0.59,0.39,0.58,0.83,0.51c0.439-0.07,1.149-0.2,1.52-0.37c0.36-0.18,0.38-0.399,0.71-0.91c0.34-0.51,1-1.31,1.5-1.699
			c0.5-0.391,0.85-0.37,1.16-0.37c0.32,0.01,0.61,0.01,0.87,0.26c0.25,0.25,0.479,0.75,0.78,1.09c0.3,0.33,0.67,0.5,0.84,0.34
			c0.17-0.149,0.14-0.63-0.16-0.96s-0.87-0.529-1.09-1c-0.23-0.47-0.12-1.22,0.26-1.649c0.38-0.431,1.04-0.53,1.61-0.44
			c0.569,0.08,1.069,0.35,1.479,0.72c0.42,0.37,0.75,0.841,1.04,1.271c0.28,0.439,0.5,0.84,0.75,0.82
			c0.25-0.011,0.51-0.431,0.86-0.421c0.34,0,0.76,0.44,1.38,0.771c0.609,0.33,1.42,0.56,1.96,0.55c0.55-0.01,0.83-0.25,0.35-0.58
			c-0.47-0.34-1.72-0.77-2.89-1.37c-1.17-0.609-2.28-1.39-2.62-2.05c-0.35-0.66,0.07-1.189,0.71-1.76c0.65-0.57,1.51-1.18,1.58-1.73
			c0.07-0.55-0.66-1.05-1.24-0.909c-0.59,0.14-1.04,0.909-1.359,1.409c-0.33,0.5-0.551,0.721-1.54,0.67
			c-0.99-0.04-2.761-0.35-3.75-0.71c-0.99-0.369-1.2-0.779-1.29-1.3c-0.101-0.52-0.07-1.14,0.279-1.66
			c0.341-0.529,0.99-0.96,1.7-1.149c0.72-0.19,1.5-0.15,2.42,0.12c0.92,0.27,1.98,0.76,2.681,0.58c0.699-0.19,1.04-1.051,1.63-1.82
			c0.59-0.76,1.43-1.45,2.81-1.98c1.37-0.529,3.271-0.909,4.66-0.88c1.39,0.03,2.26,0.471,2.729,0.59
			c0.48,0.131,0.561-0.05,0.49-0.68c-0.069-0.62-0.279-1.689-0.38-2.39c-0.09-0.69-0.08-1.011,0.15-1.16
			c0.239-0.15,0.689-0.13,1.14-0.17c0.45-0.03,0.89-0.12,1.01,0.03c0.12,0.159-0.08,0.55-0.189,0.89
			c-0.11,0.34-0.12,0.64,0.149,1.05c0.28,0.4,0.841,0.93,1.23,1.24c0.39,0.31,0.61,0.39,1.62,0.13c1-0.26,2.8-0.87,4.27-1.2
			c1.471-0.33,2.601-0.38,4.061-0.39c1.47-0.01,3.26,0.02,4.91,0.24c1.649,0.22,3.14,0.649,4.3,1.13
			c1.149,0.489,1.95,1.04,2.55,1.55c0.6,0.5,0.99,0.96,1.33,1.33c0.34,0.359,0.63,0.63,0.81,0.68c0.19,0.04,0.271-0.13,0.54-0.52
			c0.28-0.391,0.76-0.99,1.391-1.61c0.64-0.61,1.42-1.24,1.89-1.78s0.62-0.989,0.83-1.439c0.22-0.45,0.5-0.891,0.84-1.181
			s0.74-0.42,1.37-0.529c0.63-0.101,1.49-0.16,2.42-0.101c0.93,0.061,1.94,0.25,3.04,0.86s2.3,1.64,3.5,2.6
			c1.2,0.971,2.4,1.86,3.35,2.431c0.94,0.56,1.641,0.79,2.21,0.85c0.57,0.06,1-0.06,1.301-0.1c0.31-0.04,0.47-0.011,0.819,1.18
			c0.34,1.18,0.86,3.53,1.16,5.04s0.4,2.189,0.47,2.79c0.07,0.6,0.12,1.11,0.19,1.42c0.06,0.31,0.15,0.43,0.41,0.49
			c0.26,0.069,0.689,0.09,1.229,0.13c0.53,0.05,1.17,0.13,1.54,0.229c0.36,0.11,0.471,0.24,0.44,0.71
			c-0.021,0.471-0.17,1.271-0.29,2.03c-0.12,0.771-0.22,1.49-0.41,2.04s-0.479,0.93-0.42,1.23c0.07,0.31,0.5,0.54,1.26,1.229
			c0.76,0.69,1.84,1.851,2.49,2.55c0.64,0.69,0.84,0.92,0.94,0.83c0.1-0.09,0.1-0.5,0.02-0.87c-0.08-0.359-0.24-0.68,0-0.899
			c0.24-0.23,0.88-0.38,1.32-0.41c0.43-0.04,0.68,0.04,0.77,0.24c0.101,0.199,0.061,0.52-0.02,1.199c-0.08,0.671-0.2,1.7-0.12,2.211
			c0.08,0.51,0.359,0.5,0.46,0.21c0.09-0.28,0.01-0.841,0.42-1.101c0.42-0.26,1.34-0.22,1.9-0.22c0.56,0.01,0.77-0.021,0.539,0.3
			c-0.239,0.3-0.909,0.95-1.239,1.43c-0.34,0.49-0.34,0.811,0.029,1.19c0.37,0.39,1.11,0.84,2.431,1.8
			c1.319,0.96,3.21,2.42,4.88,3.72c1.66,1.311,3.11,2.44,3.8,3.131c0.69,0.68,0.62,0.92,0.45,1.17s-0.45,0.52-0.5,0.739
			c-0.061,0.221,0.11,0.4,0.52,0.19c0.41-0.21,1.061-0.8,1.761-1.18c0.699-0.37,1.439-0.53,1.989-0.62
			c0.551-0.09,0.9-0.12,1.03-0.78s0.04-1.95-0.09-2.97c-0.13-1.01-0.311-1.75-0.29-3.24c0.01-1.5,0.22-3.76,0.28-5.32
			c0.06-1.55-0.03-2.399-0.471-3.39c-0.439-1-1.239-2.13-2.89-4.3c-1.66-2.16-4.17-5.351-6.77-8.681
			c-2.61-3.319-5.301-6.779-7.311-9.68c-2.01-2.899-3.35-5.229-4.46-7.33c-1.11-2.09-2-3.939-2.53-5.59
			c-0.529-1.66-0.699-3.11-0.779-4.03c-0.07-0.92-0.04-1.31-0.021-1.55c0.021-0.25,0.03-0.35,0.311-0.3
			c0.279,0.06,0.83,0.26,1.149,0.3c0.32,0.03,0.42-0.1,0.41-1.51c0-1.41-0.09-4.08,0.57-6.55c0.649-2.48,2.05-4.74,3.359-6.49
			c1.311-1.75,2.53-2.97,3.67-4.24c1.15-1.27,2.23-2.59,2.851-3.71c0.609-1.11,0.77-2.04,0.91-3.21c0.14-1.18,0.27-2.6,0.58-3.689
			c0.319-1.091,0.819-1.83,1.5-2.5c0.68-0.671,1.529-1.25,2.43-1.61c0.91-0.36,1.87-0.5,2.46-0.67c0.6-0.17,0.83-0.37,0.85-0.8
			c0.021-0.431-0.18-1.08,0.21-1.87c0.4-0.79,1.381-1.721,2.03-3.011c0.65-1.289,0.97-2.939,1.3-3.92
			c0.33-0.979,0.69-1.29,1.2-1.529c0.521-0.24,1.2-0.4,1.851-0.5c0.649-0.11,1.26-0.15,1.72-0.34c0.46-0.181,0.77-0.5,0.81-0.771
			c0.04-0.28-0.18-0.5-0.43-0.79c-0.25-0.3-0.521-0.67-0.76-0.75c-0.24-0.08-0.44,0.13-0.53,0.05c-0.1-0.069-0.09-0.439-0.07-1.01
			c0.011-0.58,0.04-1.37,0.66-2.35s1.82-2.15,2.53-2.95c0.71-0.8,0.92-1.22,1.06-1.7c0.141-0.48,0.21-1.01-0.26-1.92
			s-1.47-2.21-2.22-3.58c-0.74-1.38-1.221-2.82-1.61-3.71s-0.68-1.22-1.11-1.52c-0.43-0.29-1-0.54-1.46-0.55
			c-0.449-0.01-0.79,0.24-1.14,0.24c-0.35-0.01-0.71-0.27-1.35-1.55c-0.641-1.28-1.57-3.6-2.7-6.21c-1.14-2.62-2.48-5.54-3.2-7.24
			c-0.72-1.71-0.83-2.2-0.89-2.65v-0.01h6c0,0.24-0.12,0.53-0.42,0.89c-0.351,0.44-0.971,0.99-1.271,1.43
			c-0.3,0.45-0.29,0.8-0.22,1.1c0.07,0.31,0.189,0.57,0.41,0.58c0.22,0,0.529-0.24,0.67-0.62c0.149-0.37,0.12-0.87,0.42-1.17
			c0.3-0.3,0.91-0.42,1.3-0.39c0.38,0.03,0.53,0.2,0.79,0.58c0.26,0.39,0.63,0.99,0.87,1.44c0.229,0.45,0.35,0.75,0.47,1.09
			c0.12,0.33,0.25,0.71,0.4,0.82c0.149,0.11,0.319-0.05,0.76-0.72c0.44-0.66,1.16-1.84,1.6-2.67c0.45-0.83,0.62-1.32,0.271-2.08
			c-0.04-0.09-0.09-0.18-0.15-0.28h17.63v-4.74h-21.59c-0.3-0.33-0.6-0.65-0.88-0.95h18.68v-3.79h-2.649V89.81h2.649v-3.79H469.32
			c0.27-0.32,0.58-0.64,0.92-0.95h9.779v-3.79l-1.06-0.54c0.87-0.35,1.63-0.67,2.13-0.91c0.95-0.48,0.91-0.68,0.75-1.28
			c-0.16-0.59-0.45-1.57-0.43-2.38c0.02-0.81,0.33-1.45,0.7-1.82c0.37-0.38,0.779-0.48,1.06-0.38c0.271,0.1,0.41,0.41,0.48,0.8
			c0.08,0.39,0.09,0.86,0.42,0.92c0.34,0.05,0.989-0.29,1.46-0.5c0.47-0.2,0.76-0.27,1.31-0.11c0.54,0.16,1.34,0.54,1.84,0.88
			c0.521,0.35,0.74,0.66,1.051,0.71c0.31,0.06,0.72-0.15,0.55-0.4c-0.16-0.24-0.891-0.53-1.181-0.8c-0.29-0.28-0.14-0.55,0.131-0.82
			c0.26-0.27,0.64-0.54,0.6-0.77c-0.03-0.23-0.47-0.42-1.61-0.8c-1.13-0.38-2.96-0.96-4.26-2.14s-2.08-2.97-2.37-4.69
			c-0.3-1.72-0.13-3.36,0.13-5.57c0.261-2.21,0.601-4.97,0.88-6.69c0.29-1.71,0.53-2.38,0.511-3c-0.021-0.63-0.311-1.21-0.391-1.5
			c-0.08-0.3,0.04-0.3,0.771-0.44c0.729-0.14,2.069-0.43,3.06-0.54c1-0.12,1.65-0.05,2.04-0.11c0.391-0.06,0.51-0.24,0.22-0.75
			c-0.3-0.51-1-1.36-1.279-2.38c-0.28-1.03-0.12-2.23,0.12-2.96c0.25-0.73,0.59-0.98,0.779-1.16c0.19-0.18,0.23-0.28,0.87-0.19
			c0.65,0.08,1.91,0.36,2.83,0.45c0.92,0.09,1.51,0,1.811-0.13c0.29-0.13,0.29-0.3,0.25-0.61c-0.04-0.32-0.11-0.77,0.13-1.23
			c0.239-0.45,0.8-0.9,1.34-1.42c0.54-0.53,1.06-1.13,1.45-1.46C497.5,36.24,497.76,36.21,498,36.08z M465.48,129.39
			c0.05-0.61-0.25-1.7-0.471-2.81c-0.22-1.11-0.37-2.23-0.5-2.85c-0.13-0.6-0.25-0.7-0.279-0.49c-0.03,0.2,0.029,0.71-0.08,1.89
			c-0.11,1.17-0.391,3.01-0.341,3.97c0.051,0.96,0.44,1.05,0.83,1.04C465.03,130.12,465.43,130,465.48,129.39z M436.54,238.41
			c0.07-0.15-0.08-0.36-0.19-0.67c-0.109-0.311-0.18-0.721-0.35-1.01c-0.17-0.29-0.46-0.461-0.67-0.391
			c-0.22,0.08-0.38,0.4-0.28,0.84c0.11,0.44,0.47,1,0.8,1.23C436.18,238.65,436.47,238.56,436.54,238.41z M294.43,277.13
			c0.63-0.24,0.48-0.3-0.01-0.46c-0.5-0.15-1.34-0.4-2.23-0.51c-0.88-0.101-1.81-0.07-2.02,0.29c-0.2,0.37,0.31,1.069,1.27,1.2
			C292.4,277.79,293.8,277.37,294.43,277.13z M287.15,272.03c0.4,0.1,0.59,0.08,0.57-0.05c-0.02-0.141-0.25-0.4-0.61-0.671
			c-0.36-0.27-0.85-0.569-1.13-0.54c-0.29,0.03-0.36,0.381-0.1,0.66C286.15,271.71,286.75,271.93,287.15,272.03z M284.88,267.42
			c0.08-0.72,0.1-1.6-0.19-2.27c-0.29-0.681-0.9-1.141-1.28-1.28c-0.38-0.13-0.53,0.06-0.46,0.32c0.07,0.27,0.37,0.609,0.5,1.189
			c0.14,0.58,0.12,1.41,0.27,2.101c0.15,0.689,0.48,1.239,0.71,1.239C284.66,268.71,284.8,268.15,284.88,267.42z"/>
		<path fill="#F1E188" d="M497.26,35.22c1.21,0.53,0.98,0.74,0.74,0.86c-0.24,0.13-0.5,0.16-0.89,0.48
			c-0.391,0.33-0.91,0.93-1.45,1.46c-0.54,0.52-1.101,0.97-1.34,1.42c-0.24,0.46-0.17,0.91-0.13,1.23c0.04,0.31,0.04,0.48-0.25,0.61
			c-0.301,0.13-0.891,0.22-1.811,0.13c-0.92-0.09-2.18-0.37-2.83-0.45c-0.64-0.09-0.68,0.01-0.87,0.19
			c-0.189,0.18-0.529,0.43-0.779,1.16c-0.24,0.73-0.4,1.93-0.12,2.96c0.279,1.02,0.979,1.87,1.279,2.38
			c0.29,0.51,0.171,0.69-0.22,0.75c-0.39,0.06-1.04-0.01-2.04,0.11c-0.99,0.11-2.33,0.4-3.06,0.54c-0.73,0.14-0.851,0.14-0.771,0.44
			c0.08,0.29,0.37,0.87,0.391,1.5c0.02,0.62-0.221,1.29-0.511,3c-0.279,1.72-0.619,4.48-0.88,6.69c-0.26,2.21-0.43,3.85-0.13,5.57
			c0.29,1.72,1.07,3.51,2.37,4.69s3.13,1.76,4.26,2.14c1.141,0.38,1.58,0.57,1.61,0.8c0.04,0.23-0.34,0.5-0.6,0.77
			c-0.271,0.27-0.421,0.54-0.131,0.82c0.29,0.27,1.021,0.56,1.181,0.8c0.17,0.25-0.24,0.46-0.55,0.4
			c-0.311-0.05-0.53-0.36-1.051-0.71c-0.5-0.34-1.3-0.72-1.84-0.88c-0.55-0.16-0.84-0.09-1.31,0.11c-0.471,0.21-1.12,0.55-1.46,0.5
			c-0.33-0.06-0.34-0.53-0.42-0.92c-0.07-0.39-0.21-0.7-0.48-0.8c-0.28-0.1-0.689,0-1.06,0.38c-0.37,0.37-0.681,1.01-0.7,1.82
			c-0.021,0.81,0.27,1.79,0.43,2.38c0.16,0.6,0.2,0.8-0.75,1.28c-0.5,0.24-1.26,0.56-2.13,0.91l-16.72-8.5l-17.78,9.04v3.79h25.78
			c-0.34,0.31-0.65,0.63-0.92,0.95h-24.86v3.79h2.65v16.97h-2.65v3.79h16.88c0.28,0.3,0.58,0.62,0.88,0.95h-21.55v4.74h13.61v0.01
			c0.06,0.45,0.17,0.94,0.89,2.65c0.72,1.7,2.061,4.62,3.2,7.24c1.13,2.61,2.06,4.93,2.7,6.21c0.64,1.28,1,1.54,1.35,1.55
			c0.35,0,0.69-0.25,1.14-0.24c0.46,0.01,1.03,0.26,1.46,0.55c0.431,0.3,0.721,0.63,1.11,1.52s0.87,2.33,1.61,3.71
			c0.75,1.37,1.75,2.67,2.22,3.58s0.4,1.44,0.26,1.92c-0.14,0.48-0.35,0.9-1.06,1.7c-0.71,0.8-1.91,1.97-2.53,2.95
			s-0.649,1.77-0.66,2.35c-0.02,0.57-0.029,0.94,0.07,1.01c0.09,0.08,0.29-0.13,0.53-0.05c0.239,0.08,0.51,0.45,0.76,0.75
			c0.25,0.29,0.47,0.51,0.43,0.79c-0.04,0.271-0.35,0.59-0.81,0.771c-0.46,0.189-1.07,0.229-1.72,0.34
			c-0.65,0.1-1.33,0.26-1.851,0.5c-0.51,0.239-0.87,0.55-1.2,1.529c-0.33,0.98-0.649,2.631-1.3,3.92
			c-0.649,1.29-1.63,2.221-2.03,3.011c-0.39,0.79-0.189,1.439-0.21,1.87c-0.02,0.43-0.25,0.63-0.85,0.8
			c-0.59,0.17-1.55,0.31-2.46,0.67c-0.9,0.36-1.75,0.939-2.43,1.61c-0.681,0.67-1.181,1.409-1.5,2.5
			c-0.311,1.09-0.44,2.51-0.58,3.689c-0.141,1.17-0.301,2.1-0.91,3.21c-0.62,1.12-1.7,2.44-2.851,3.71
			c-1.14,1.271-2.359,2.49-3.67,4.24c-1.31,1.75-2.71,4.01-3.359,6.49c-0.66,2.47-0.57,5.14-0.57,6.55
			c0.01,1.41-0.09,1.54-0.41,1.51c-0.319-0.04-0.87-0.24-1.149-0.3c-0.28-0.05-0.29,0.05-0.311,0.3c-0.02,0.24-0.05,0.63,0.021,1.55
			c0.08,0.92,0.25,2.37,0.779,4.03c0.53,1.65,1.42,3.5,2.53,5.59c1.11,2.101,2.45,4.431,4.46,7.33c2.01,2.9,4.7,6.36,7.311,9.68
			c2.6,3.33,5.109,6.521,6.77,8.681c1.65,2.17,2.45,3.3,2.89,4.3c0.44,0.99,0.53,1.84,0.471,3.39c-0.061,1.561-0.271,3.82-0.28,5.32
			c-0.021,1.49,0.16,2.23,0.29,3.24c0.13,1.02,0.22,2.31,0.09,2.97s-0.479,0.69-1.03,0.78c-0.55,0.09-1.29,0.25-1.989,0.62
			c-0.7,0.38-1.351,0.97-1.761,1.18c-0.409,0.21-0.58,0.03-0.52-0.19c0.05-0.22,0.33-0.489,0.5-0.739s0.24-0.49-0.45-1.17
			c-0.689-0.69-2.14-1.82-3.8-3.131c-1.67-1.3-3.561-2.76-4.88-3.72c-1.32-0.96-2.061-1.41-2.431-1.8
			c-0.369-0.38-0.369-0.7-0.029-1.19c0.33-0.479,1-1.13,1.239-1.43c0.23-0.32,0.021-0.29-0.539-0.3c-0.561,0-1.48-0.04-1.9,0.22
			c-0.41,0.26-0.33,0.82-0.42,1.101c-0.101,0.29-0.38,0.3-0.46-0.21c-0.08-0.511,0.04-1.54,0.12-2.211c0.08-0.68,0.12-1,0.02-1.199
			c-0.09-0.2-0.34-0.28-0.77-0.24c-0.44,0.03-1.08,0.18-1.32,0.41c-0.24,0.22-0.08,0.54,0,0.899c0.08,0.37,0.08,0.78-0.02,0.87
			c-0.101,0.09-0.301-0.14-0.94-0.83c-0.65-0.699-1.73-1.859-2.49-2.55c-0.76-0.689-1.189-0.92-1.26-1.229
			c-0.06-0.301,0.229-0.681,0.42-1.23s0.29-1.27,0.41-2.04c0.12-0.76,0.27-1.56,0.29-2.03c0.03-0.47-0.08-0.6-0.44-0.71
			c-0.37-0.1-1.01-0.18-1.54-0.229c-0.54-0.04-0.97-0.061-1.229-0.13c-0.26-0.061-0.351-0.181-0.41-0.49
			c-0.07-0.31-0.12-0.82-0.19-1.42c-0.069-0.601-0.17-1.28-0.47-2.79s-0.82-3.86-1.16-5.04c-0.35-1.19-0.51-1.22-0.819-1.18
			c-0.301,0.04-0.73,0.159-1.301,0.1c-0.569-0.06-1.27-0.29-2.21-0.85c-0.949-0.57-2.149-1.46-3.35-2.431
			c-1.2-0.96-2.4-1.989-3.5-2.6s-2.11-0.8-3.04-0.86c-0.93-0.06-1.79,0-2.42,0.101c-0.63,0.109-1.03,0.239-1.37,0.529
			s-0.62,0.73-0.84,1.181c-0.21,0.45-0.36,0.899-0.83,1.439s-1.25,1.17-1.89,1.78c-0.631,0.62-1.11,1.22-1.391,1.61
			c-0.27,0.39-0.35,0.56-0.54,0.52c-0.18-0.05-0.47-0.32-0.81-0.68c-0.34-0.37-0.73-0.83-1.33-1.33c-0.6-0.51-1.4-1.061-2.55-1.55
			c-1.16-0.48-2.65-0.91-4.3-1.13c-1.65-0.221-3.44-0.25-4.91-0.24c-1.46,0.01-2.59,0.06-4.061,0.39c-1.47,0.33-3.27,0.94-4.27,1.2
			c-1.01,0.26-1.23,0.18-1.62-0.13c-0.39-0.311-0.95-0.84-1.23-1.24c-0.27-0.41-0.26-0.71-0.149-1.05
			c0.109-0.34,0.31-0.73,0.189-0.89c-0.12-0.15-0.56-0.061-1.01-0.03c-0.45,0.04-0.9,0.02-1.14,0.17
			c-0.23,0.149-0.24,0.47-0.15,1.16c0.101,0.7,0.311,1.77,0.38,2.39c0.07,0.63-0.01,0.811-0.49,0.68
			c-0.47-0.119-1.34-0.56-2.729-0.59c-1.39-0.029-3.29,0.351-4.66,0.88c-1.38,0.53-2.22,1.221-2.81,1.98
			c-0.59,0.77-0.931,1.63-1.63,1.82c-0.7,0.18-1.761-0.311-2.681-0.58c-0.92-0.271-1.7-0.311-2.42-0.12
			c-0.71,0.189-1.359,0.62-1.7,1.149c-0.35,0.521-0.38,1.141-0.279,1.66c0.09,0.521,0.3,0.931,1.29,1.3
			c0.989,0.36,2.76,0.67,3.75,0.71c0.989,0.051,1.21-0.17,1.54-0.67c0.319-0.5,0.77-1.27,1.359-1.409
			c0.58-0.141,1.311,0.359,1.24,0.909c-0.07,0.551-0.93,1.16-1.58,1.73c-0.64,0.57-1.06,1.1-0.71,1.76
			c0.34,0.66,1.45,1.44,2.62,2.05c1.17,0.601,2.42,1.03,2.89,1.37c0.48,0.33,0.2,0.57-0.35,0.58c-0.54,0.01-1.351-0.22-1.96-0.55
			c-0.62-0.33-1.04-0.771-1.38-0.771c-0.351-0.01-0.61,0.41-0.86,0.421c-0.25,0.02-0.47-0.381-0.75-0.82
			c-0.29-0.43-0.62-0.9-1.04-1.271c-0.41-0.37-0.91-0.64-1.479-0.72c-0.57-0.09-1.23,0.01-1.61,0.44
			c-0.38,0.43-0.49,1.18-0.26,1.649c0.22,0.471,0.79,0.67,1.09,1s0.33,0.811,0.16,0.96c-0.17,0.16-0.54-0.01-0.84-0.34
			c-0.301-0.34-0.53-0.84-0.78-1.09c-0.26-0.25-0.55-0.25-0.87-0.26c-0.311,0-0.66-0.021-1.16,0.37c-0.5,0.39-1.16,1.189-1.5,1.699
			c-0.33,0.511-0.35,0.73-0.71,0.91c-0.37,0.17-1.08,0.3-1.52,0.37c-0.44,0.07-0.601,0.08-0.83-0.51c-0.23-0.601-0.54-1.8-0.82-2.59
			c-0.271-0.79-0.521-1.19-0.83-1.16c-0.32,0.03-0.71,0.47-0.99,0.78c-0.27,0.3-0.45,0.449-0.819,0.17c-0.381-0.28-0.96-1-1.82-1.61
			c-0.87-0.61-2.03-1.1-2.94-1.1c-0.909,0-1.569,0.489-2.02,1.069s-0.68,1.25-0.73,1.69c-0.04,0.43,0.11,0.62,0.15,0.72
			c0.05,0.09-0.01,0.08-0.44,0.09c-0.43,0.011-1.229,0.03-1.989-0.149c-0.75-0.181-1.46-0.57-2.9-0.8c-1.45-0.23-3.64-0.301-5-0.131
			c-1.35,0.17-1.87,0.58-2.17,0.801c-0.31,0.22-0.41,0.25-0.5,0.14c-0.09-0.1-0.17-0.34-0.15-0.78c0.03-0.45,0.16-1.1,0.21-1.479
			c0.04-0.38,0-0.48-0.29-0.54c-0.29-0.061-0.819-0.09-1.189-0.03c-0.36,0.06-0.55,0.2-0.7,0.42c-0.14,0.24-0.24,0.55-0.36,0.771
			c-0.13,0.22-0.27,0.34-0.34,0.58c-0.069,0.25-0.06,0.619-0.14,0.84c-0.08,0.229-0.25,0.31-0.49,0.399
			c-0.25,0.08-0.56,0.17-0.85,0.351c-0.3,0.17-0.58,0.439-0.76,0.779c-0.19,0.341-0.271,0.761-0.37,0.96
			c-0.091,0.21-0.19,0.19-0.65,0.24c-0.46,0.061-1.28,0.181-1.72,0.16c-0.44-0.02-0.5-0.19-0.54-0.57
			c-0.03-0.39-0.04-0.979-0.11-1.38c-0.07-0.399-0.21-0.6-0.31-0.72c-0.11-0.13-0.19-0.17-0.38-0.05c-0.2,0.13-0.511,0.41-0.9,0.649
			c-0.39,0.25-0.86,0.45-1.3,0.63c-0.44,0.181-0.851,0.33-1.01,0.601c-0.15,0.26-0.061,0.64,0.279,1.28
			c0.351,0.649,0.96,1.56,1.24,2.09c0.28,0.54,0.24,0.7,0.1,0.8c-0.14,0.09-0.39,0.12-1.09,0.52c-0.7,0.41-1.87,1.2-2.87,2.141
			c-1,0.93-1.83,2-2.77,2.96c-0.93,0.95-1.97,1.79-2.811,2.189c-0.85,0.4-1.489,0.37-1.859,0.2c-0.36-0.18-0.45-0.49-0.79-0.76
			c-0.34-0.28-0.95-0.51-1.51-0.54c-0.561-0.03-1.07,0.15-1.24,0.41c-0.18,0.26-0.03,0.6,0.3,1.03c0.33,0.42,0.83,0.949,1.15,1.38
			c0.31,0.439,0.439,0.779,0.06,0.87c-0.37,0.09-1.25-0.07-1.81-0.171c-0.57-0.09-0.83-0.13-0.771,0.131
			c0.061,0.25,0.42,0.779,0.22,1.26c-0.199,0.479-0.979,0.91-1.439,1.01c-0.47,0.1-0.62-0.13-0.93-0.18
			c-0.301-0.05-0.75,0.09-0.95,0.31c-0.21,0.23-0.17,0.55,0.05,1.11c0.22,0.55,0.62,1.359,0.8,1.899c0.181,0.54,0.13,0.82-0.46,0.83
			c-0.58,0.021-1.7-0.229-2.34-0.319c-0.64-0.101-0.81-0.03-0.71,0.279c0.11,0.32,0.49,0.891,0.96,1.44
			c0.46,0.54,1.02,1.07,1.32,1.51c0.29,0.44,0.319,0.811,0.109,1.17c-0.21,0.36-0.649,0.71-1.16,0.88
			c-0.52,0.16-1.1,0.131-1.529-0.08c-0.42-0.22-0.69-0.63-0.94-0.819c-0.26-0.19-0.51-0.16-0.62-0.05
			c-0.1,0.109-0.069,0.3-0.06,0.779c0.01,0.48,0.01,1.23,0.17,1.63c0.15,0.391,0.479,0.431,0.96,0.471s1.13,0.09,1.5,0.14
			c0.37,0.061,0.47,0.14,0.43,0.53c-0.05,0.39-0.239,1.1-0.3,1.859c-0.07,0.771,0,1.58,0.33,2.58s0.92,2.19,1.34,2.94
			c0.431,0.74,0.7,1.04,0.54,3.15c-0.58,0.489-1.76-0.091-4.07-0.851c-2.319-0.75-5.75-1.7-7.729-2.1
			c-1.98-0.4-2.49-0.271-2.72-0.28s-0.18-0.17-0.21-0.46c-0.04-0.28-0.17-0.69-0.58-1.64c-0.4-0.95-1.08-2.44-1.82-3.761
			c-0.73-1.319-1.51-2.479-2.54-4.09c-1.03-1.609-2.3-3.68-4.19-6.52s-4.39-6.46-6.66-9.44c-2.27-2.99-4.32-5.34-5.41-6.59
			c-1.09-1.25-1.23-1.4-2.11-1.63c-0.88-0.22-2.5-0.53-4.52-0.561c-2.02-0.029-4.45,0.2-6.01,0.601c-1.57,0.399-2.28,0.96-2.98,2.38
			c-0.7,1.43-1.39,3.72-1.79,4.87c-0.39,1.149-0.5,1.16-1.34,1.02c-0.84-0.14-2.42-0.439-3.69-0.97c-1.28-0.53-2.24-1.31-3.15-2.2
			c-0.9-0.89-1.74-1.89-2.36-3.12c-0.61-1.22-0.99-2.659-1.42-4.06c-0.44-1.41-0.92-2.78-1.6-3.84
			c-0.67-1.061-1.54-1.811-3.02-3.141c-1.48-1.34-3.57-3.26-5.75-5.14c-2.19-1.88-4.47-3.71-5.83-4.74
			c-1.36-1.02-1.79-1.229-2.93-1.42c-1.14-0.189-3-0.359-4.91-0.56c-1.91-0.19-3.87-0.42-5.41-0.42
			c-1.53-0.011-2.65,0.199-3.3,0.529c-0.65,0.32-0.84,0.761-0.93,1.54c-0.09,0.79-0.09,1.92-0.13,2.511
			c-0.04,0.59-0.13,0.649-1.19,0.67c-1.06,0.01-3.09-0.021-5.22-0.08c-2.13-0.061-4.36-0.15-6.85-0.28
			c-2.5-0.14-5.26-0.31-7.37-0.53c-2.1-0.22-3.55-0.5-5.32-1.199c-1.77-0.7-3.87-1.82-6.49-3.391c-2.63-1.56-5.78-3.57-8.77-5.12
			c-2.98-1.55-5.8-2.649-7.53-3.239c-1.74-0.591-2.38-0.681-2.78-0.801s-0.57-0.26-0.57-0.75c-0.01-0.489,0.13-1.31,0.1-1.899
			c-0.04-0.59-0.26-0.931-0.55-1.181c-0.28-0.239-0.63-0.39-1.23-0.42c-0.6-0.029-1.46,0.051-2.44,0.15s-2.09,0.2-3.46,0.229
			c-1.37,0.03-3.01-0.02-4.74-0.05c-1.73-0.02-3.55-0.029-4.65-0.069c-1.1-0.051-1.49-0.131-2.01-0.33
			c-0.52-0.2-1.17-0.511-1.7-0.66c-0.54-0.15-0.96-0.141-1.17-0.24c-0.21-0.11-0.21-0.33-0.18-1.12c0.04-0.79,0.11-2.14,0.14-3.02
			c0.02-0.87,0-1.28-0.53-2.16c-0.53-0.88-1.56-2.24-2.7-3.271c-1.14-1.029-2.38-1.72-3.23-2.029c-0.85-0.32-1.3-0.25-1.52-0.32
			c-0.22-0.06-0.21-0.25-0.23-0.73c-0.02-0.479-0.08-1.25-0.13-1.72c-0.05-0.47-0.1-0.63-0.39-0.81c-0.3-0.181-0.85-0.37-1.77-0.54
			c-0.92-0.16-2.21-0.29-3.04-0.58s-1.19-0.74-1.32-1.16c-0.14-0.41-0.03-0.78-0.06-1.21c-0.02-0.44-0.17-0.93-0.73-1.37
			c-0.56-0.45-1.53-0.84-2.78-1.18c-1.26-0.33-2.79-0.61-3.85-0.8c-1.05-0.2-1.62-0.311-1.91-0.381
			c-0.28-0.079-0.28-0.109-0.28-0.779c0-0.681,0-1.99-0.1-3.24c-0.09-1.26-0.27-2.46-0.65-3.66c-0.37-1.189-0.93-2.37-1.66-3.729
			c-0.74-1.36-1.66-2.91-2.4-4.341c-0.19-0.359-0.37-0.729-0.54-1.079h22.35v-4.73h-23.92c-0.01-0.19-0.01-0.37,0-0.53
			c0.02-0.16,0.04-0.3,0.08-0.42h20.05v-3.79h-2.66v-16.97h2.66v-3.79H93.28c-0.1-0.32-0.16-0.64-0.2-0.95h28.66v-3.79l-17.78-9.05
			l-9.93,5.05c0.11-0.89,0.2-1.71,0.21-2.32c0.01-0.88-0.13-1.29-0.57-1.85c-0.43-0.57-1.14-1.27-1.62-1.92s-0.71-1.23-0.75-1.7
			c-0.03-0.47,0.14-0.83,0.64-1.63c0.5-0.8,1.32-2.05,1.96-3.17c0.63-1.11,1.07-2.09,1.32-3.77c0.24-1.68,0.3-4.06,0.24-6.07
			c-0.07-2.01-0.26-3.64-0.29-5.39c-0.04-1.74,0.08-3.59,0.36-4.97c0.28-1.39,0.72-2.31,1.67-3.42c0.96-1.12,2.45-2.44,3.22-3.25
			c0.77-0.8,0.83-1.09,1.06-2.06c0.23-0.96,0.64-2.6,0.88-4.09c0.24-1.49,0.31-2.83,0.4-3.64c0.1-0.82,0.22-1.1,0.62-1.81
			c0.4-0.72,1.08-1.88,1.61-2.71c0.53-0.83,0.9-1.32,1.25-2.17c0.35-0.84,0.67-2.03,0.91-3.17c0.24-1.14,0.39-2.24,0.54-4.07
			s0.29-4.39,0.3-6.71c0.02-2.33-0.08-4.42-0.38-6.13c-0.3-1.7-0.79-3.02-0.92-9.6c2.14,1.73,4.03,2.92,5.6,3.56
			c1.57,0.63,2.81,0.71,3.61,0.44c0.79-0.27,1.12-0.88,1.53-1.72c0.41-0.85,0.88-1.93,1.35-2.77c0.46-0.84,0.91-1.44,1.35-1.68
			c0.43-0.25,0.84-0.14,1.41,0.04c0.56,0.19,1.27,0.45,5.56,1.28s12.15,2.24,17.95,3.27c5.8,1.04,9.54,1.7,12.8,2.18
			c3.26,0.49,6.05,0.8,12.36,1.44c6.32,0.64,16.15,1.61,23.71,2.27c7.55,0.67,12.83,1.02,17.41,1.33c4.59,0.3,8.48,0.57,11.76,0.82
			c3.28,0.26,5.94,0.51,9.48,0.65s7.95,0.17,11.47,0.2c3.52,0.02,6.15,0.05,8.23-0.11c2.09-0.17,3.63-0.53,6.49-0.95
			c2.86-0.42,7.04-0.9,10.04-1.26c3.01-0.37,4.84-0.61,6.57-0.55s3.35,0.43,5.3,0.58c1.96,0.14,4.26,0.05,6.81,0.06
			c2.54,0.01,5.34,0.13,7.73-0.18c2.39-0.3,4.37-1.03,5.77-1.48c1.4-0.46,2.2-0.65,2.65-0.74c0.44-0.09,0.521-0.08,0.66,0.16
			c0.14,0.25,0.34,0.73,0.49,1.2c0.149,0.48,0.25,0.94,0.58,1.28c0.33,0.35,0.89,0.58,1.96,0.62c1.08,0.03,2.67-0.12,3.77-0.29
			c1.101-0.18,1.71-0.37,2.83-0.37c1.11-0.01,2.73,0.18,3.89,0.46c1.16,0.28,1.851,0.66,2.891,1.17c1.03,0.5,2.41,1.14,3.52,1.61
			c1.101,0.48,1.94,0.8,2.87,0.91c0.93,0.11,1.95,0.02,2.76-0.25c0.811-0.26,1.42-0.69,2.45-0.95c1.03-0.26,2.49-0.36,3.53-0.3
			c1.05,0.05,1.67,0.27,1.92,0.45c0.24,0.19,0.09,0.34-1.12,1.29c-1.21,0.94-3.49,2.67-5.41,4.38s-3.479,3.38-4.16,4.76
			c-0.67,1.38-0.46,2.46-0.149,2.98c0.31,0.52,0.72,0.48,1.26,0.34c0.55-0.14,1.25-0.37,2.04-0.75s1.69-0.92,2.34-1.3
			c0.65-0.38,1.05-0.6,1.22-0.62c0.16-0.01,0.091,0.19-0.029,0.72c-0.13,0.54-0.29,1.41-0.15,1.92c0.141,0.5,0.59,0.63,1.34,0.51
			c0.761-0.12,1.82-0.48,2.69-0.7c0.88-0.21,1.56-0.28,1.99-0.33c0.43-0.06,0.609-0.11,1.409-0.91c0.79-0.8,2.221-2.34,3.4-3.65
			c1.18-1.3,2.12-2.36,3.08-3.35c0.96-0.98,1.94-1.88,2.56-2.35c0.631-0.47,0.9-0.5,1.261-0.55c0.359-0.04,0.81-0.1,0.989-0.05
			c0.19,0.05,0.101,0.22-0.31,0.83c-0.42,0.61-1.16,1.66-1.61,2.3c-0.439,0.65-0.59,0.89-0.59,1.53c0,0.65,0.13,1.71,0.25,2.23
			c0.11,0.52,0.19,0.49,0.46,0.19c0.271-0.31,0.73-0.9,1.351-1.39c0.63-0.49,1.42-0.88,1.859-1.01c0.44-0.13,0.53,0.01,0.91,0.37
			c0.38,0.35,1.05,0.92,1.54,1.48c0.5,0.55,0.82,1.1,1.18,1.5c0.36,0.39,0.761,0.64,0.99,0.71c0.23,0.07,0.29-0.04,0.98-0.4
			c0.68-0.37,1.979-0.99,3.229-1.66c1.26-0.68,2.45-1.4,3.99-2.06s3.42-1.25,4.62-1.62c1.2-0.38,1.74-0.54,2.07-0.54
			c0.329,0,0.449,0.15,0.529,0.47c0.08,0.31,0.12,0.79,0.141,1.22c0.02,0.42,0.01,0.8,0.34,1.02c0.319,0.22,0.97,0.29,1.56,0.23
			c0.58-0.05,1.11-0.22,1.771-0.17c0.67,0.05,1.47,0.32,1.91,0.6c0.43,0.28,0.489,0.57,0.619,0.99c0.141,0.41,0.33,0.96,0.341,1.28
			c0,0.33-0.19,0.45-0.44,0.36c-0.26-0.08-0.58-0.37-1.91-0.3c-1.34,0.06-3.689,0.48-5.37,0.93c-1.689,0.45-2.71,0.93-4.27,1.4
			c-1.55,0.48-3.641,0.94-4.811,1.4c-1.159,0.46-1.39,0.91-2.25,3.12c-0.859,2.21-2.34,6.16-3.239,8.71
			c-0.9,2.55-1.221,3.69-1.24,4.28c-0.03,0.6,0.24,0.65,0.47,0.51c0.23-0.13,0.41-0.46,0.58-0.77c0.16-0.31,0.31-0.62,0.81-1.02
			c0.5-0.39,1.36-0.87,1.891-1.11c0.54-0.23,0.74-0.22,0.76,0.02c0.021,0.24-0.15,0.7-0.41,2.98c-0.27,2.29-0.64,6.4-0.7,10.11
			c-0.069,3.71,0.16,7.03,0.811,9.52c0.649,2.49,1.72,4.17,2.93,5.44c1.2,1.27,2.54,2.13,3.47,2.66c0.921,0.54,1.44,0.73,1.891,0.58
			c0.439-0.15,0.82-0.65,1.59-1.53c0.78-0.88,1.95-2.15,2.74-3.48c0.79-1.34,1.2-2.75,0.96-4.79c-0.25-2.05-1.16-4.74-1.88-7.31
			c-0.71-2.56-1.23-5-1.66-6.81c-0.43-1.8-0.76-2.98-0.851-4.36c-0.079-1.38,0.07-2.97,0.24-4.04s0.36-1.63,0.8-2.24
			c0.45-0.62,1.16-1.3,1.601-1.64c0.45-0.33,0.63-0.31,0.8,0.05c0.18,0.36,0.35,1.06,0.59,1.46c0.24,0.4,0.55,0.5,0.8,0.49
			c0.261-0.01,0.471-0.12,0.521-1.16c0.05-1.03-0.061-2.97-0.061-4.01c-0.01-1.05,0.101-1.19,0.48-1.26
			c0.37-0.08,1.02-0.08,1.479-0.21c0.45-0.12,0.71-0.38,0.62-0.84c-0.1-0.47-0.55-1.15-0.93-1.78c-0.37-0.63-0.67-1.21-0.8-1.54
			c-0.141-0.33-0.11-0.42,0.939-0.38c1.051,0.04,3.13,0.21,4.94,0.61c1.82,0.41,3.37,1.04,4.29,1.73c0.91,0.68,1.189,1.42,1.34,1.94
			c0.15,0.53,0.16,0.85,0.21,1.37s0.15,1.24,0.561,1.94c0.42,0.7,1.149,1.38,1.43,2.17c0.28,0.8,0.109,1.71-0.13,2.37
			c-0.24,0.66-0.55,1.07-1.16,1.51s-1.53,0.92-1.82,2.03c-0.29,1.11,0.05,2.85,0.57,3.57c0.51,0.73,1.2,0.43,2.01,0.1
			c0.8-0.33,1.72-0.71,2.351-1.55c0.63-0.85,0.949-2.17,1.239-3.09c0.3-0.93,0.55-1.45,0.84-1.63c0.29-0.19,0.601-0.02,1.12,0.45
			c0.511,0.46,1.221,1.23,2.021,2.81c0.8,1.57,1.689,3.94,2.1,5.67c0.42,1.72,0.351,2.81,0.17,3.48c-0.18,0.68-0.47,0.94-0.93,1.46
			c-0.46,0.53-1.1,1.3-1.6,2.01c-0.5,0.7-0.87,1.34-1.101,2.65c-0.229,1.3-0.33,3.28-0.33,4.46c-0.01,1.17,0.08,1.54,0.181,1.72
			c0.109,0.19,0.229,0.19,0.68,0.19c0.46,0,1.229,0,1.89,0s1.19,0,1.33,0.31c0.13,0.32-0.13,0.95-0.08,1.25
			c0.05,0.3,0.41,0.27,1.101,0.02c0.68-0.26,1.689-0.76,2.949-1.32c1.25-0.57,2.74-1.2,4.36-2.04c1.61-0.84,3.34-1.88,5.18-3.16
			c1.851-1.28,3.801-2.78,5.95-4.73c2.15-1.94,4.49-4.31,5.9-6.18c1.399-1.88,1.88-3.25,2.05-4.02s0.02-0.94-0.34-1.47
			c-0.36-0.53-0.93-1.43-1.26-2.04c-0.32-0.62-0.381-0.96-0.33-1.21c0.05-0.26,0.22-0.42,1.109-0.87c0.9-0.45,2.521-1.18,4.62-1.92
			c2.11-0.73,4.7-1.46,6.07-1.75c1.36-0.29,1.51-0.14,1.939-0.33c0.44-0.19,1.181-0.72,1.811-1.17c0.64-0.45,1.18-0.82,1.54-1.04
			c0.34-0.23,0.5-0.31,0.51-0.54s-0.13-0.6-0.28-1.16c-0.149-0.56-0.31-1.31-0.27-1.82c0.05-0.52,0.3-0.81,0.39-1.51
			c0.101-0.71,0.05-1.84,0.16-2.91c0.1-1.07,0.35-2.09,0.811-3.24c0.46-1.15,1.13-2.44,1.909-3.38c0.78-0.94,1.66-1.54,2.521-2.04
			c0.85-0.5,1.66-0.91,2.96-1.45c1.3-0.53,3.08-1.19,5.35-1.93c2.271-0.74,5.04-1.55,7.181-2.22c2.14-0.67,3.64-1.2,4.609-1.72
			c0.971-0.52,1.41-1.03,2.16-1.79c0.76-0.75,1.84-1.74,2.61-2.63c0.77-0.89,1.239-1.67,1.63-2.09c0.39-0.42,0.7-0.48,1.05-0.57
			c0.34-0.09,0.73-0.21,0.73-0.36c0-0.14-0.391-0.31-0.79-0.63c-0.4-0.32-0.82-0.78-0.96-1.26c-0.131-0.49,0.01-1.01,0.109-1.83
			c0.101-0.82,0.15-1.94,0.16-3.57c0.021-1.64-0.01-3.78,0.01-6.59c0.021-2.8,0.08-6.27,0.101-8.6c0.43,0.12,0.609,0.76,0.88,1.14
			c0.27,0.38,0.64,0.5,1.01,0.53c0.37,0.02,0.75-0.04,1.21-0.13c0.45-0.09,0.99-0.22,1.35-0.48c0.36-0.26,0.54-0.66,0.87-1.15
			c0.33-0.49,0.811-1.07,1.15-1.33c0.35-0.26,0.59-0.2,0.89-0.1c0.301,0.1,0.67,0.24,1.16,0.52c0.49,0.28,1.101,0.69,1.45,1.31
			c0.34,0.62,0.42,1.44,0.57,2.49c0.14,1.04,0.35,2.31,0.88,3.67c0.54,1.37,1.399,2.84,2.21,4.18c0.8,1.33,1.55,2.54,3.25,3.56
			C493.4,33.85,496.05,34.69,497.26,35.22z M326.92,227.75v-4.73h-43.14v4.73H326.92z M323.13,222.07v-3.79h-2.649V201.3h2.649
			v-3.79h-35.56v3.79h2.65v16.98h-2.65v3.79H323.13z M323.13,196.57v-3.79l-17.78-9.05l-17.78,9.05v3.79H323.13z"/>
		<path fill="#A6DCE1" d="M473.11,90.17v16.61h-4.301v-4.87c0.24-0.87,0.351-1.74,0.23-2.67c-0.05-0.35-0.12-0.7-0.23-1.05v-6.28
			c0.171-0.08,0.45-0.3,0.82-0.49c0.57-0.3,1.351-0.51,2.44-0.87C472.39,90.44,472.75,90.31,473.11,90.17z"/>
		<path fill="#B9D871" d="M473.11,89.81v0.36c-0.36,0.14-0.721,0.27-1.04,0.38c-1.09,0.36-1.87,0.57-2.44,0.87
			c-0.37,0.19-0.649,0.41-0.82,0.49v-0.69c0.171-0.38,0.471-0.87,0.95-1.36c0.01-0.02,0.03-0.03,0.04-0.05H473.11z"/>
		<path fill="#B9D871" d="M469.04,99.24c0.12,0.93,0.01,1.8-0.23,2.67v-3.72C468.92,98.54,468.99,98.89,469.04,99.24z"/>
		<path fill="#F1E188" d="M466.33,116.54c0.35,0.76,0.18,1.25-0.271,2.08c-0.439,0.83-1.159,2.01-1.6,2.67
			c-0.44,0.67-0.61,0.83-0.76,0.72c-0.15-0.11-0.28-0.49-0.4-0.82c-0.12-0.34-0.24-0.64-0.47-1.09c-0.24-0.45-0.61-1.05-0.87-1.44
			c-0.26-0.38-0.41-0.55-0.79-0.58c-0.39-0.03-1,0.09-1.3,0.39c-0.3,0.3-0.271,0.8-0.42,1.17c-0.141,0.38-0.45,0.62-0.67,0.62
			c-0.221-0.01-0.34-0.27-0.41-0.58c-0.07-0.3-0.08-0.65,0.22-1.1c0.3-0.44,0.92-0.99,1.271-1.43c0.3-0.36,0.42-0.65,0.42-0.89
			h5.899C466.24,116.36,466.29,116.45,466.33,116.54z"/>
		<path fill="#F1E188" d="M465.01,126.58c0.221,1.11,0.521,2.2,0.471,2.81c-0.051,0.61-0.45,0.73-0.841,0.75
			c-0.39,0.01-0.779-0.08-0.83-1.04c-0.05-0.96,0.23-2.8,0.341-3.97c0.109-1.18,0.05-1.69,0.08-1.89
			c0.029-0.21,0.149-0.11,0.279,0.49C464.64,124.35,464.79,125.47,465.01,126.58z"/>
		<path fill="#F1E188" d="M464.55,89.81v16.97h-4.03c-0.02-0.16-0.02-0.34-0.01-0.54c0.08-1.02,0.65-2.54,1.101-3.48
			c0.46-0.94,0.8-1.3,0.84-1.51s-0.21-0.27-0.82-0.13c-0.47,0.11-1.149,0.34-1.7,0.75V89.81H464.55z"/>
		<path fill="#A6DCE1" d="M461.63,101.12c0.61-0.14,0.86-0.08,0.82,0.13s-0.38,0.57-0.84,1.51c-0.45,0.94-1.021,2.46-1.101,3.48
			c-0.01,0.2-0.01,0.38,0.01,0.54h-0.59v-4.91C460.48,101.46,461.16,101.23,461.63,101.12z"/>
		<rect x="451.38" y="89.81" fill="#F1E188" width="4.29" height="16.97"/>
		<rect x="311.92" y="201.3" fill="#F1E188" width="4.29" height="16.98"/>
		<rect x="303.04" y="201.3" fill="#F1E188" width="4.62" height="16.98"/>
		<rect x="294.48" y="201.3" fill="#F1E188" width="4.29" height="16.98"/>
		<path fill="#F1E188" d="M294.42,276.67c0.49,0.16,0.64,0.22,0.01,0.46c-0.63,0.24-2.03,0.66-2.99,0.521
			c-0.96-0.131-1.47-0.83-1.27-1.2c0.21-0.36,1.14-0.391,2.02-0.29C293.08,276.27,293.92,276.52,294.42,276.67z"/>
		<path fill="#F1E188" d="M287.72,271.98c0.02,0.13-0.17,0.149-0.57,0.05c-0.4-0.101-1-0.32-1.27-0.601
			c-0.26-0.279-0.19-0.63,0.1-0.66c0.28-0.029,0.77,0.271,1.13,0.54C287.47,271.58,287.7,271.84,287.72,271.98z"/>
		<path fill="#F1E188" d="M284.69,265.15c0.29,0.67,0.27,1.55,0.19,2.27c-0.08,0.73-0.22,1.29-0.45,1.3
			c-0.23,0-0.56-0.55-0.71-1.239c-0.15-0.69-0.13-1.521-0.27-2.101c-0.13-0.58-0.43-0.92-0.5-1.189c-0.07-0.261,0.08-0.45,0.46-0.32
			C283.79,264.01,284.4,264.47,284.69,265.15z"/>
		<rect x="110.53" y="138.04" fill="#F1E188" width="4.29" height="16.97"/>
		<path fill="#F1E188" d="M106.27,138.04v16.97h-3.95c-0.01-0.01-0.03-0.029-0.04-0.04c-0.19-0.18-0.41-0.39-0.63-0.609v-16.32
			H106.27z"/>
		<path fill="#A6DCE1" d="M97.38,140.27v14.74h-4.29v-16.97h2.74c0.06,0.09,0.13,0.18,0.2,0.27
			C96.46,138.89,96.93,139.58,97.38,140.27z"/>
		<path fill="#F1E188" d="M97.38,138.04v2.23c-0.45-0.69-0.92-1.38-1.35-1.96c-0.07-0.09-0.14-0.18-0.2-0.27H97.38z"/>
	</g>
	<g>
		<path fill="none" stroke="#000000" stroke-linecap="round" stroke-linejoin="round" d="M101.61,159.75
			c-0.01-0.19-0.01-0.37,0-0.53c0.02-0.16,0.04-0.3,0.08-0.42"/>
		<path fill="none" stroke="#000000" stroke-width="0.75" stroke-linecap="round" stroke-linejoin="round" d="M454.28,116.26v0.01
			c0.06,0.45,0.17,0.94,0.89,2.65c0.72,1.7,2.061,4.62,3.2,7.24c1.13,2.61,2.06,4.93,2.7,6.21c0.64,1.28,1,1.54,1.35,1.55
			c0.35,0,0.69-0.25,1.14-0.24c0.46,0.01,1.03,0.26,1.46,0.55c0.431,0.3,0.721,0.63,1.11,1.52s0.87,2.33,1.61,3.71
			c0.75,1.37,1.75,2.67,2.22,3.58s0.4,1.44,0.26,1.92c-0.14,0.48-0.35,0.9-1.06,1.7c-0.71,0.8-1.91,1.97-2.53,2.95
			s-0.649,1.77-0.66,2.35c-0.02,0.57-0.029,0.94,0.07,1.01c0.09,0.08,0.29-0.13,0.53-0.05c0.239,0.08,0.51,0.45,0.76,0.75
			c0.25,0.29,0.47,0.51,0.43,0.79c-0.04,0.271-0.35,0.59-0.81,0.771c-0.46,0.189-1.07,0.229-1.72,0.34
			c-0.65,0.1-1.33,0.26-1.851,0.5c-0.51,0.239-0.87,0.55-1.2,1.529c-0.33,0.98-0.649,2.631-1.3,3.92
			c-0.649,1.29-1.63,2.221-2.03,3.011c-0.39,0.79-0.189,1.439-0.21,1.87c-0.02,0.43-0.25,0.63-0.85,0.8
			c-0.59,0.17-1.55,0.31-2.46,0.67c-0.9,0.36-1.75,0.939-2.43,1.61c-0.681,0.67-1.181,1.409-1.5,2.5
			c-0.311,1.09-0.44,2.51-0.58,3.689c-0.141,1.17-0.301,2.1-0.91,3.21c-0.62,1.12-1.7,2.44-2.851,3.71
			c-1.14,1.271-2.359,2.49-3.67,4.24c-1.31,1.75-2.71,4.01-3.359,6.49c-0.66,2.47-0.57,5.14-0.57,6.55
			c0.01,1.41-0.09,1.54-0.41,1.51c-0.319-0.04-0.87-0.24-1.149-0.3c-0.28-0.05-0.29,0.05-0.311,0.3c-0.02,0.24-0.05,0.63,0.021,1.55
			c0.08,0.92,0.25,2.37,0.779,4.03c0.53,1.65,1.42,3.5,2.53,5.59c1.11,2.101,2.45,4.431,4.46,7.33c2.01,2.9,4.7,6.36,7.311,9.68
			c2.6,3.33,5.109,6.521,6.77,8.681c1.65,2.17,2.45,3.3,2.89,4.3c0.44,0.99,0.53,1.84,0.471,3.39c-0.061,1.561-0.271,3.82-0.28,5.32
			c-0.021,1.49,0.16,2.23,0.29,3.24c0.13,1.02,0.22,2.31,0.09,2.97s-0.479,0.69-1.03,0.78c-0.55,0.09-1.29,0.25-1.989,0.62
			c-0.7,0.38-1.351,0.97-1.761,1.18c-0.409,0.21-0.58,0.03-0.52-0.19c0.05-0.22,0.33-0.489,0.5-0.739s0.24-0.49-0.45-1.17
			c-0.689-0.69-2.14-1.82-3.8-3.131c-1.67-1.3-3.561-2.76-4.88-3.72c-1.32-0.96-2.061-1.41-2.431-1.8
			c-0.369-0.38-0.369-0.7-0.029-1.19c0.33-0.479,1-1.13,1.239-1.43c0.23-0.32,0.021-0.29-0.539-0.3c-0.561,0-1.48-0.04-1.9,0.22
			c-0.41,0.26-0.33,0.82-0.42,1.101c-0.101,0.29-0.38,0.3-0.46-0.21c-0.08-0.511,0.04-1.54,0.12-2.211c0.08-0.68,0.12-1,0.02-1.199
			c-0.09-0.2-0.34-0.28-0.77-0.24c-0.44,0.03-1.08,0.18-1.32,0.41c-0.24,0.22-0.08,0.54,0,0.899c0.08,0.37,0.08,0.78-0.02,0.87
			c-0.101,0.09-0.301-0.14-0.94-0.83c-0.65-0.699-1.73-1.859-2.49-2.55c-0.76-0.689-1.189-0.92-1.26-1.229
			c-0.06-0.301,0.229-0.681,0.42-1.23s0.29-1.27,0.41-2.04c0.12-0.76,0.27-1.56,0.29-2.03c0.03-0.47-0.08-0.6-0.44-0.71
			c-0.37-0.1-1.01-0.18-1.54-0.229c-0.54-0.04-0.97-0.061-1.229-0.13c-0.26-0.061-0.351-0.181-0.41-0.49
			c-0.07-0.31-0.12-0.82-0.19-1.42c-0.069-0.601-0.17-1.28-0.47-2.79s-0.82-3.86-1.16-5.04c-0.35-1.19-0.51-1.22-0.819-1.18
			c-0.301,0.04-0.73,0.159-1.301,0.1c-0.569-0.06-1.27-0.29-2.21-0.85c-0.949-0.57-2.149-1.46-3.35-2.431
			c-1.2-0.96-2.4-1.989-3.5-2.6s-2.11-0.8-3.04-0.86c-0.93-0.06-1.79,0-2.42,0.101c-0.63,0.109-1.03,0.239-1.37,0.529
			s-0.62,0.73-0.84,1.181c-0.21,0.45-0.36,0.899-0.83,1.439s-1.25,1.17-1.89,1.78c-0.631,0.62-1.11,1.22-1.391,1.61
			c-0.27,0.39-0.35,0.56-0.54,0.52c-0.18-0.05-0.47-0.32-0.81-0.68c-0.34-0.37-0.73-0.83-1.33-1.33c-0.6-0.51-1.4-1.061-2.55-1.55
			c-1.16-0.48-2.65-0.91-4.3-1.13c-1.65-0.221-3.44-0.25-4.91-0.24c-1.46,0.01-2.59,0.06-4.061,0.39c-1.47,0.33-3.27,0.94-4.27,1.2
			c-1.01,0.26-1.23,0.18-1.62-0.13c-0.39-0.311-0.95-0.84-1.23-1.24c-0.27-0.41-0.26-0.71-0.149-1.05
			c0.109-0.34,0.31-0.73,0.189-0.89c-0.12-0.15-0.56-0.061-1.01-0.03c-0.45,0.04-0.9,0.02-1.14,0.17
			c-0.23,0.149-0.24,0.47-0.15,1.16c0.101,0.7,0.311,1.77,0.38,2.39c0.07,0.63-0.01,0.811-0.49,0.68
			c-0.47-0.119-1.34-0.56-2.729-0.59c-1.39-0.029-3.29,0.351-4.66,0.88c-1.38,0.53-2.22,1.221-2.81,1.98
			c-0.59,0.77-0.931,1.63-1.63,1.82c-0.7,0.18-1.761-0.311-2.681-0.58c-0.92-0.271-1.7-0.311-2.42-0.12
			c-0.71,0.189-1.359,0.62-1.7,1.149c-0.35,0.521-0.38,1.141-0.279,1.66c0.09,0.521,0.3,0.931,1.29,1.3
			c0.989,0.36,2.76,0.67,3.75,0.71c0.989,0.051,1.21-0.17,1.54-0.67c0.319-0.5,0.77-1.27,1.359-1.409
			c0.58-0.141,1.311,0.359,1.24,0.909c-0.07,0.551-0.93,1.16-1.58,1.73c-0.64,0.57-1.06,1.1-0.71,1.76
			c0.34,0.66,1.45,1.44,2.62,2.05c1.17,0.601,2.42,1.03,2.89,1.37c0.48,0.33,0.2,0.57-0.35,0.58c-0.54,0.01-1.351-0.22-1.96-0.55
			c-0.62-0.33-1.04-0.771-1.38-0.771c-0.351-0.01-0.61,0.41-0.86,0.421c-0.25,0.02-0.47-0.381-0.75-0.82
			c-0.29-0.43-0.62-0.9-1.04-1.271c-0.41-0.37-0.91-0.64-1.479-0.72c-0.57-0.09-1.23,0.01-1.61,0.44
			c-0.38,0.43-0.49,1.18-0.26,1.649c0.22,0.471,0.79,0.67,1.09,1s0.33,0.811,0.16,0.96c-0.17,0.16-0.54-0.01-0.84-0.34
			c-0.301-0.34-0.53-0.84-0.78-1.09c-0.26-0.25-0.55-0.25-0.87-0.26c-0.311,0-0.66-0.021-1.16,0.37c-0.5,0.39-1.16,1.189-1.5,1.699
			c-0.33,0.511-0.35,0.73-0.71,0.91c-0.37,0.17-1.08,0.3-1.52,0.37c-0.44,0.07-0.601,0.08-0.83-0.51c-0.23-0.601-0.54-1.8-0.82-2.59
			c-0.271-0.79-0.521-1.19-0.83-1.16c-0.32,0.03-0.71,0.47-0.99,0.78c-0.27,0.3-0.45,0.449-0.819,0.17c-0.381-0.28-0.96-1-1.82-1.61
			c-0.87-0.61-2.03-1.1-2.94-1.1c-0.909,0-1.569,0.489-2.02,1.069s-0.68,1.25-0.73,1.69c-0.04,0.43,0.11,0.62,0.15,0.72
			c0.05,0.09-0.01,0.08-0.44,0.09c-0.43,0.011-1.229,0.03-1.989-0.149c-0.75-0.181-1.46-0.57-2.9-0.8c-1.45-0.23-3.64-0.301-5-0.131
			c-1.35,0.17-1.87,0.58-2.17,0.801c-0.31,0.22-0.41,0.25-0.5,0.14c-0.09-0.1-0.17-0.34-0.15-0.78c0.03-0.45,0.16-1.1,0.21-1.479
			c0.04-0.38,0-0.48-0.29-0.54c-0.29-0.061-0.819-0.09-1.189-0.03c-0.36,0.06-0.55,0.2-0.7,0.42c-0.14,0.24-0.24,0.55-0.36,0.771
			c-0.13,0.22-0.27,0.34-0.34,0.58c-0.069,0.25-0.06,0.619-0.14,0.84c-0.08,0.229-0.25,0.31-0.49,0.399
			c-0.25,0.08-0.56,0.17-0.85,0.351c-0.3,0.17-0.58,0.439-0.76,0.779c-0.19,0.341-0.271,0.761-0.37,0.96
			c-0.091,0.21-0.19,0.19-0.65,0.24c-0.46,0.061-1.28,0.181-1.72,0.16c-0.44-0.02-0.5-0.19-0.54-0.57
			c-0.03-0.39-0.04-0.979-0.11-1.38c-0.07-0.399-0.21-0.6-0.31-0.72c-0.11-0.13-0.19-0.17-0.38-0.05c-0.2,0.13-0.511,0.41-0.9,0.649
			c-0.39,0.25-0.86,0.45-1.3,0.63c-0.44,0.181-0.851,0.33-1.01,0.601c-0.15,0.26-0.061,0.64,0.279,1.28
			c0.351,0.649,0.96,1.56,1.24,2.09c0.28,0.54,0.24,0.7,0.1,0.8c-0.14,0.09-0.39,0.12-1.09,0.52c-0.7,0.41-1.87,1.2-2.87,2.141
			c-1,0.93-1.83,2-2.77,2.96c-0.93,0.95-1.97,1.79-2.811,2.189c-0.85,0.4-1.489,0.37-1.859,0.2c-0.36-0.18-0.45-0.49-0.79-0.76
			c-0.34-0.28-0.95-0.51-1.51-0.54c-0.561-0.03-1.07,0.15-1.24,0.41c-0.18,0.26-0.03,0.6,0.3,1.03c0.33,0.42,0.83,0.949,1.15,1.38
			c0.31,0.439,0.439,0.779,0.06,0.87c-0.37,0.09-1.25-0.07-1.81-0.171c-0.57-0.09-0.83-0.13-0.771,0.131
			c0.061,0.25,0.42,0.779,0.22,1.26c-0.199,0.479-0.979,0.91-1.439,1.01c-0.47,0.1-0.62-0.13-0.93-0.18
			c-0.301-0.05-0.75,0.09-0.95,0.31c-0.21,0.23-0.17,0.55,0.05,1.11c0.22,0.55,0.62,1.359,0.8,1.899c0.181,0.54,0.13,0.82-0.46,0.83
			c-0.58,0.021-1.7-0.229-2.34-0.319c-0.64-0.101-0.81-0.03-0.71,0.279c0.11,0.32,0.49,0.891,0.96,1.44
			c0.46,0.54,1.02,1.07,1.32,1.51c0.29,0.44,0.319,0.811,0.109,1.17c-0.21,0.36-0.649,0.71-1.16,0.88
			c-0.52,0.16-1.1,0.131-1.529-0.08c-0.42-0.22-0.69-0.63-0.94-0.819c-0.26-0.19-0.51-0.16-0.62-0.05
			c-0.1,0.109-0.069,0.3-0.06,0.779c0.01,0.48,0.01,1.23,0.17,1.63c0.15,0.391,0.479,0.431,0.96,0.471s1.13,0.09,1.5,0.14
			c0.37,0.061,0.47,0.14,0.43,0.53c-0.05,0.39-0.239,1.1-0.3,1.859c-0.07,0.771,0,1.58,0.33,2.58s0.92,2.19,1.34,2.94
			c0.431,0.74,0.7,1.04,0.54,3.15c-0.58,0.489-1.76-0.091-4.07-0.851c-2.319-0.75-5.75-1.7-7.729-2.1
			c-1.98-0.4-2.49-0.271-2.72-0.28s-0.18-0.17-0.21-0.46c-0.04-0.28-0.17-0.69-0.58-1.64c-0.4-0.95-1.08-2.44-1.82-3.761
			c-0.73-1.319-1.51-2.479-2.54-4.09c-1.03-1.609-2.3-3.68-4.19-6.52s-4.39-6.46-6.66-9.44c-2.27-2.99-4.32-5.34-5.41-6.59
			c-1.09-1.25-1.23-1.4-2.11-1.63c-0.88-0.22-2.5-0.53-4.52-0.561c-2.02-0.029-4.45,0.2-6.01,0.601c-1.57,0.399-2.28,0.96-2.98,2.38
			c-0.7,1.43-1.39,3.72-1.79,4.87c-0.39,1.149-0.5,1.16-1.34,1.02c-0.84-0.14-2.42-0.439-3.69-0.97c-1.28-0.53-2.24-1.31-3.15-2.2
			c-0.9-0.89-1.74-1.89-2.36-3.12c-0.61-1.22-0.99-2.659-1.42-4.06c-0.44-1.41-0.92-2.78-1.6-3.84
			c-0.67-1.061-1.54-1.811-3.02-3.141c-1.48-1.34-3.57-3.26-5.75-5.14c-2.19-1.88-4.47-3.71-5.83-4.74
			c-1.36-1.02-1.79-1.229-2.93-1.42c-1.14-0.189-3-0.359-4.91-0.56c-1.91-0.19-3.87-0.42-5.41-0.42
			c-1.53-0.011-2.65,0.199-3.3,0.529c-0.65,0.32-0.84,0.761-0.93,1.54c-0.09,0.79-0.09,1.92-0.13,2.511
			c-0.04,0.59-0.13,0.649-1.19,0.67c-1.06,0.01-3.09-0.021-5.22-0.08c-2.13-0.061-4.36-0.15-6.85-0.28
			c-2.5-0.14-5.26-0.31-7.37-0.53c-2.1-0.22-3.55-0.5-5.32-1.199c-1.77-0.7-3.87-1.82-6.49-3.391c-2.63-1.56-5.78-3.57-8.77-5.12
			c-2.98-1.55-5.8-2.649-7.53-3.239c-1.74-0.591-2.38-0.681-2.78-0.801s-0.57-0.26-0.57-0.75c-0.01-0.489,0.13-1.31,0.1-1.899
			c-0.04-0.59-0.26-0.931-0.55-1.181c-0.28-0.239-0.63-0.39-1.23-0.42c-0.6-0.029-1.46,0.051-2.44,0.15s-2.09,0.2-3.46,0.229
			c-1.37,0.03-3.01-0.02-4.74-0.05c-1.73-0.02-3.55-0.029-4.65-0.069c-1.1-0.051-1.49-0.131-2.01-0.33
			c-0.52-0.2-1.17-0.511-1.7-0.66c-0.54-0.15-0.96-0.141-1.17-0.24c-0.21-0.11-0.21-0.33-0.18-1.12c0.04-0.79,0.11-2.14,0.14-3.02
			c0.02-0.87,0-1.28-0.53-2.16c-0.53-0.88-1.56-2.24-2.7-3.271c-1.14-1.029-2.38-1.72-3.23-2.029c-0.85-0.32-1.3-0.25-1.52-0.32
			c-0.22-0.06-0.21-0.25-0.23-0.73c-0.02-0.479-0.08-1.25-0.13-1.72c-0.05-0.47-0.1-0.63-0.39-0.81c-0.3-0.181-0.85-0.37-1.77-0.54
			c-0.92-0.16-2.21-0.29-3.04-0.58s-1.19-0.74-1.32-1.16c-0.14-0.41-0.03-0.78-0.06-1.21c-0.02-0.44-0.17-0.93-0.73-1.37
			c-0.56-0.45-1.53-0.84-2.78-1.18c-1.26-0.33-2.79-0.61-3.85-0.8c-1.05-0.2-1.62-0.311-1.91-0.381
			c-0.28-0.079-0.28-0.109-0.28-0.779c0-0.681,0-1.99-0.1-3.24c-0.09-1.26-0.27-2.46-0.65-3.66c-0.37-1.189-0.93-2.37-1.66-3.729
			c-0.74-1.36-1.66-2.91-2.4-4.341c-0.19-0.359-0.37-0.729-0.54-1.079"/>
		<path fill="none" stroke="#000000" stroke-linecap="round" stroke-linejoin="round" d="M102.32,155.01
			c-0.01-0.01-0.03-0.029-0.04-0.04c-0.19-0.18-0.41-0.39-0.63-0.609"/>
		<path fill="none" stroke="#000000" stroke-width="0.75" stroke-linecap="round" stroke-linejoin="round" d="M97.38,140.27
			c-0.45-0.69-0.92-1.38-1.35-1.96c-0.07-0.09-0.14-0.18-0.2-0.27"/>
		<path fill="none" stroke="#000000" stroke-linecap="round" stroke-linejoin="round" d="M93.28,134.25
			c-0.1-0.32-0.16-0.64-0.2-0.95"/>
		<path fill="none" stroke="#000000" stroke-width="0.75" stroke-linecap="round" stroke-linejoin="round" d="M94.03,125.51
			c0.11-0.89,0.2-1.71,0.21-2.32c0.01-0.88-0.13-1.29-0.57-1.85c-0.43-0.57-1.14-1.27-1.62-1.92s-0.71-1.23-0.75-1.7
			c-0.03-0.47,0.14-0.83,0.64-1.63c0.5-0.8,1.32-2.05,1.96-3.17c0.63-1.11,1.07-2.09,1.32-3.77c0.24-1.68,0.3-4.06,0.24-6.07
			c-0.07-2.01-0.26-3.64-0.29-5.39c-0.04-1.74,0.08-3.59,0.36-4.97c0.28-1.39,0.72-2.31,1.67-3.42c0.96-1.12,2.45-2.44,3.22-3.25
			c0.77-0.8,0.83-1.09,1.06-2.06c0.23-0.96,0.64-2.6,0.88-4.09c0.24-1.49,0.31-2.83,0.4-3.64c0.1-0.82,0.22-1.1,0.62-1.81
			c0.4-0.72,1.08-1.88,1.61-2.71c0.53-0.83,0.9-1.32,1.25-2.17c0.35-0.84,0.67-2.03,0.91-3.17c0.24-1.14,0.39-2.24,0.54-4.07
			s0.29-4.39,0.3-6.71c0.02-2.33-0.08-4.42-0.38-6.13c-0.3-1.7-0.79-3.02-0.92-9.6c2.14,1.73,4.03,2.92,5.6,3.56
			c1.57,0.63,2.81,0.71,3.61,0.44c0.79-0.27,1.12-0.88,1.53-1.72c0.41-0.85,0.88-1.93,1.35-2.77c0.46-0.84,0.91-1.44,1.35-1.68
			c0.43-0.25,0.84-0.14,1.41,0.04c0.56,0.19,1.27,0.45,5.56,1.28s12.15,2.24,17.95,3.27c5.8,1.04,9.54,1.7,12.8,2.18
			c3.26,0.49,6.05,0.8,12.36,1.44c6.32,0.64,16.15,1.61,23.71,2.27c7.55,0.67,12.83,1.02,17.41,1.33c4.59,0.3,8.48,0.57,11.76,0.82
			c3.28,0.26,5.94,0.51,9.48,0.65s7.95,0.17,11.47,0.2c3.52,0.02,6.15,0.05,8.23-0.11c2.09-0.17,3.63-0.53,6.49-0.95
			c2.86-0.42,7.04-0.9,10.04-1.26c3.01-0.37,4.84-0.61,6.57-0.55s3.35,0.43,5.3,0.58c1.96,0.14,4.26,0.05,6.81,0.06
			c2.54,0.01,5.34,0.13,7.73-0.18c2.39-0.3,4.37-1.03,5.77-1.48c1.4-0.46,2.2-0.65,2.65-0.74c0.44-0.09,0.521-0.08,0.66,0.16
			c0.14,0.25,0.34,0.73,0.49,1.2c0.149,0.48,0.25,0.94,0.58,1.28c0.33,0.35,0.89,0.58,1.96,0.62c1.08,0.03,2.67-0.12,3.77-0.29
			c1.101-0.18,1.71-0.37,2.83-0.37c1.11-0.01,2.73,0.18,3.89,0.46c1.16,0.28,1.851,0.66,2.891,1.17c1.03,0.5,2.41,1.14,3.52,1.61
			c1.101,0.48,1.94,0.8,2.87,0.91c0.93,0.11,1.95,0.02,2.76-0.25c0.811-0.26,1.42-0.69,2.45-0.95c1.03-0.26,2.49-0.36,3.53-0.3
			c1.05,0.05,1.67,0.27,1.92,0.45c0.24,0.19,0.09,0.34-1.12,1.29c-1.21,0.94-3.49,2.67-5.41,4.38s-3.479,3.38-4.16,4.76
			c-0.67,1.38-0.46,2.46-0.149,2.98c0.31,0.52,0.72,0.48,1.26,0.34c0.55-0.14,1.25-0.37,2.04-0.75s1.69-0.92,2.34-1.3
			c0.65-0.38,1.05-0.6,1.22-0.62c0.16-0.01,0.091,0.19-0.029,0.72c-0.13,0.54-0.29,1.41-0.15,1.92c0.141,0.5,0.59,0.63,1.34,0.51
			c0.761-0.12,1.82-0.48,2.69-0.7c0.88-0.21,1.56-0.28,1.99-0.33c0.43-0.06,0.609-0.11,1.409-0.91c0.79-0.8,2.221-2.34,3.4-3.65
			c1.18-1.3,2.12-2.36,3.08-3.35c0.96-0.98,1.94-1.88,2.56-2.35c0.631-0.47,0.9-0.5,1.261-0.55c0.359-0.04,0.81-0.1,0.989-0.05
			c0.19,0.05,0.101,0.22-0.31,0.83c-0.42,0.61-1.16,1.66-1.61,2.3c-0.439,0.65-0.59,0.89-0.59,1.53c0,0.65,0.13,1.71,0.25,2.23
			c0.11,0.52,0.19,0.49,0.46,0.19c0.271-0.31,0.73-0.9,1.351-1.39c0.63-0.49,1.42-0.88,1.859-1.01c0.44-0.13,0.53,0.01,0.91,0.37
			c0.38,0.35,1.05,0.92,1.54,1.48c0.5,0.55,0.82,1.1,1.18,1.5c0.36,0.39,0.761,0.64,0.99,0.71c0.23,0.07,0.29-0.04,0.98-0.4
			c0.68-0.37,1.979-0.99,3.229-1.66c1.26-0.68,2.45-1.4,3.99-2.06s3.42-1.25,4.62-1.62c1.2-0.38,1.74-0.54,2.07-0.54
			c0.329,0,0.449,0.15,0.529,0.47c0.08,0.31,0.12,0.79,0.141,1.22c0.02,0.42,0.01,0.8,0.34,1.02c0.319,0.22,0.97,0.29,1.56,0.23
			c0.58-0.05,1.11-0.22,1.771-0.17c0.67,0.05,1.47,0.32,1.91,0.6c0.43,0.28,0.489,0.57,0.619,0.99c0.141,0.41,0.33,0.96,0.341,1.28
			c0,0.33-0.19,0.45-0.44,0.36c-0.26-0.08-0.58-0.37-1.91-0.3c-1.34,0.06-3.689,0.48-5.37,0.93c-1.689,0.45-2.71,0.93-4.27,1.4
			c-1.55,0.48-3.641,0.94-4.811,1.4c-1.159,0.46-1.39,0.91-2.25,3.12c-0.859,2.21-2.34,6.16-3.239,8.71
			c-0.9,2.55-1.221,3.69-1.24,4.28c-0.03,0.6,0.24,0.65,0.47,0.51c0.23-0.13,0.41-0.46,0.58-0.77c0.16-0.31,0.31-0.62,0.81-1.02
			c0.5-0.39,1.36-0.87,1.891-1.11c0.54-0.23,0.74-0.22,0.76,0.02c0.021,0.24-0.15,0.7-0.41,2.98c-0.27,2.29-0.64,6.4-0.7,10.11
			c-0.069,3.71,0.16,7.03,0.811,9.52c0.649,2.49,1.72,4.17,2.93,5.44c1.2,1.27,2.54,2.13,3.47,2.66c0.921,0.54,1.44,0.73,1.891,0.58
			c0.439-0.15,0.82-0.65,1.59-1.53c0.78-0.88,1.95-2.15,2.74-3.48c0.79-1.34,1.2-2.75,0.96-4.79c-0.25-2.05-1.16-4.74-1.88-7.31
			c-0.71-2.56-1.23-5-1.66-6.81c-0.43-1.8-0.76-2.98-0.851-4.36c-0.079-1.38,0.07-2.97,0.24-4.04s0.36-1.63,0.8-2.24
			c0.45-0.62,1.16-1.3,1.601-1.64c0.45-0.33,0.63-0.31,0.8,0.05c0.18,0.36,0.35,1.06,0.59,1.46c0.24,0.4,0.55,0.5,0.8,0.49
			c0.261-0.01,0.471-0.12,0.521-1.16c0.05-1.03-0.061-2.97-0.061-4.01c-0.01-1.05,0.101-1.19,0.48-1.26
			c0.37-0.08,1.02-0.08,1.479-0.21c0.45-0.12,0.71-0.38,0.62-0.84c-0.1-0.47-0.55-1.15-0.93-1.78c-0.37-0.63-0.67-1.21-0.8-1.54
			c-0.141-0.33-0.11-0.42,0.939-0.38c1.051,0.04,3.13,0.21,4.94,0.61c1.82,0.41,3.37,1.04,4.29,1.73c0.91,0.68,1.189,1.42,1.34,1.94
			c0.15,0.53,0.16,0.85,0.21,1.37s0.15,1.24,0.561,1.94c0.42,0.7,1.149,1.38,1.43,2.17c0.28,0.8,0.109,1.71-0.13,2.37
			c-0.24,0.66-0.55,1.07-1.16,1.51s-1.53,0.92-1.82,2.03c-0.29,1.11,0.05,2.85,0.57,3.57c0.51,0.73,1.2,0.43,2.01,0.1
			c0.8-0.33,1.72-0.71,2.351-1.55c0.63-0.85,0.949-2.17,1.239-3.09c0.3-0.93,0.55-1.45,0.84-1.63c0.29-0.19,0.601-0.02,1.12,0.45
			c0.511,0.46,1.221,1.23,2.021,2.81c0.8,1.57,1.689,3.94,2.1,5.67c0.42,1.72,0.351,2.81,0.17,3.48c-0.18,0.68-0.47,0.94-0.93,1.46
			c-0.46,0.53-1.1,1.3-1.6,2.01c-0.5,0.7-0.87,1.34-1.101,2.65c-0.229,1.3-0.33,3.28-0.33,4.46c-0.01,1.17,0.08,1.54,0.181,1.72
			c0.109,0.19,0.229,0.19,0.68,0.19c0.46,0,1.229,0,1.89,0s1.19,0,1.33,0.31c0.13,0.32-0.13,0.95-0.08,1.25
			c0.05,0.3,0.41,0.27,1.101,0.02c0.68-0.26,1.689-0.76,2.949-1.32c1.25-0.57,2.74-1.2,4.36-2.04c1.61-0.84,3.34-1.88,5.18-3.16
			c1.851-1.28,3.801-2.78,5.95-4.73c2.15-1.94,4.49-4.31,5.9-6.18c1.399-1.88,1.88-3.25,2.05-4.02s0.02-0.94-0.34-1.47
			c-0.36-0.53-0.93-1.43-1.26-2.04c-0.32-0.62-0.381-0.96-0.33-1.21c0.05-0.26,0.22-0.42,1.109-0.87c0.9-0.45,2.521-1.18,4.62-1.92
			c2.11-0.73,4.7-1.46,6.07-1.75c1.36-0.29,1.51-0.14,1.939-0.33c0.44-0.19,1.181-0.72,1.811-1.17c0.64-0.45,1.18-0.82,1.54-1.04
			c0.34-0.23,0.5-0.31,0.51-0.54s-0.13-0.6-0.28-1.16c-0.149-0.56-0.31-1.31-0.27-1.82c0.05-0.52,0.3-0.81,0.39-1.51
			c0.101-0.71,0.05-1.84,0.16-2.91c0.1-1.07,0.35-2.09,0.811-3.24c0.46-1.15,1.13-2.44,1.909-3.38c0.78-0.94,1.66-1.54,2.521-2.04
			c0.85-0.5,1.66-0.91,2.96-1.45c1.3-0.53,3.08-1.19,5.35-1.93c2.271-0.74,5.04-1.55,7.181-2.22c2.14-0.67,3.64-1.2,4.609-1.72
			c0.971-0.52,1.41-1.03,2.16-1.79c0.76-0.75,1.84-1.74,2.61-2.63c0.77-0.89,1.239-1.67,1.63-2.09c0.39-0.42,0.7-0.48,1.05-0.57
			c0.34-0.09,0.73-0.21,0.73-0.36c0-0.14-0.391-0.31-0.79-0.63c-0.4-0.32-0.82-0.78-0.96-1.26c-0.131-0.49,0.01-1.01,0.109-1.83
			c0.101-0.82,0.15-1.94,0.16-3.57c0.021-1.64-0.01-3.78,0.01-6.59c0.021-2.8,0.08-6.27,0.101-8.6c0.43,0.12,0.609,0.76,0.88,1.14
			c0.27,0.38,0.64,0.5,1.01,0.53c0.37,0.02,0.75-0.04,1.21-0.13c0.45-0.09,0.99-0.22,1.35-0.48c0.36-0.26,0.54-0.66,0.87-1.15
			c0.33-0.49,0.811-1.07,1.15-1.33c0.35-0.26,0.59-0.2,0.89-0.1c0.301,0.1,0.67,0.24,1.16,0.52c0.49,0.28,1.101,0.69,1.45,1.31
			c0.34,0.62,0.42,1.44,0.57,2.49c0.14,1.04,0.35,2.31,0.88,3.67c0.54,1.37,1.399,2.84,2.21,4.18c0.8,1.33,1.55,2.54,3.25,3.56
			c1.7,1.03,4.35,1.87,5.56,2.4c1.21,0.53,0.98,0.74,0.74,0.86c-0.24,0.13-0.5,0.16-0.89,0.48c-0.391,0.33-0.91,0.93-1.45,1.46
			c-0.54,0.52-1.101,0.97-1.34,1.42c-0.24,0.46-0.17,0.91-0.13,1.23c0.04,0.31,0.04,0.48-0.25,0.61
			c-0.301,0.13-0.891,0.22-1.811,0.13c-0.92-0.09-2.18-0.37-2.83-0.45c-0.64-0.09-0.68,0.01-0.87,0.19
			c-0.189,0.18-0.529,0.43-0.779,1.16c-0.24,0.73-0.4,1.93-0.12,2.96c0.279,1.02,0.979,1.87,1.279,2.38
			c0.29,0.51,0.171,0.69-0.22,0.75c-0.39,0.06-1.04-0.01-2.04,0.11c-0.99,0.11-2.33,0.4-3.06,0.54c-0.73,0.14-0.851,0.14-0.771,0.44
			c0.08,0.29,0.37,0.87,0.391,1.5c0.02,0.62-0.221,1.29-0.511,3c-0.279,1.72-0.619,4.48-0.88,6.69c-0.26,2.21-0.43,3.85-0.13,5.57
			c0.29,1.72,1.07,3.51,2.37,4.69s3.13,1.76,4.26,2.14c1.141,0.38,1.58,0.57,1.61,0.8c0.04,0.23-0.34,0.5-0.6,0.77
			c-0.271,0.27-0.421,0.54-0.131,0.82c0.29,0.27,1.021,0.56,1.181,0.8c0.17,0.25-0.24,0.46-0.55,0.4
			c-0.311-0.05-0.53-0.36-1.051-0.71c-0.5-0.34-1.3-0.72-1.84-0.88c-0.55-0.16-0.84-0.09-1.31,0.11c-0.471,0.21-1.12,0.55-1.46,0.5
			c-0.33-0.06-0.34-0.53-0.42-0.92c-0.07-0.39-0.21-0.7-0.48-0.8c-0.28-0.1-0.689,0-1.06,0.38c-0.37,0.37-0.681,1.01-0.7,1.82
			c-0.021,0.81,0.27,1.79,0.43,2.38c0.16,0.6,0.2,0.8-0.75,1.28c-0.5,0.24-1.26,0.56-2.13,0.91"/>
		<path fill="none" stroke="#000000" stroke-linecap="round" stroke-linejoin="round" d="M470.24,85.07
			c-0.34,0.31-0.65,0.63-0.92,0.95"/>
		<path fill="none" stroke="#000000" stroke-width="0.75" stroke-linecap="round" stroke-linejoin="round" d="M468.81,98.19
			c0.11,0.35,0.181,0.7,0.23,1.05c0.12,0.93,0.01,1.8-0.23,2.67"/>
		<path fill="none" stroke="#000000" stroke-width="0.75" stroke-linecap="round" stroke-linejoin="round" d="M473.11,90.17
			c-0.36,0.14-0.721,0.27-1.04,0.38c-1.09,0.36-1.87,0.57-2.44,0.87c-0.37,0.19-0.649,0.41-0.82,0.49"/>
		<path fill="none" stroke="#000000" stroke-linecap="round" stroke-linejoin="round" d="M468.81,91.22
			c0.171-0.38,0.471-0.87,0.95-1.36c0.01-0.02,0.03-0.03,0.04-0.05"/>
		<path fill="none" stroke="#000000" stroke-width="0.75" stroke-linecap="round" stroke-linejoin="round" d="M460.52,106.78
			c-0.02-0.16-0.02-0.34-0.01-0.54c0.08-1.02,0.65-2.54,1.101-3.48c0.46-0.94,0.8-1.3,0.84-1.51s-0.21-0.27-0.82-0.13
			c-0.47,0.11-1.149,0.34-1.7,0.75"/>
		<path fill="none" stroke="#000000" stroke-linecap="round" stroke-linejoin="round" d="M461.34,110.57
			c0.28,0.3,0.58,0.62,0.88,0.95"/>
		<path fill="none" stroke="#000000" stroke-width="0.75" stroke-linecap="round" stroke-linejoin="round" d="M466.18,116.26
			c0.061,0.1,0.11,0.19,0.15,0.28c0.35,0.76,0.18,1.25-0.271,2.08c-0.439,0.83-1.159,2.01-1.6,2.67c-0.44,0.67-0.61,0.83-0.76,0.72
			c-0.15-0.11-0.28-0.49-0.4-0.82c-0.12-0.34-0.24-0.64-0.47-1.09c-0.24-0.45-0.61-1.05-0.87-1.44c-0.26-0.38-0.41-0.55-0.79-0.58
			c-0.39-0.03-1,0.09-1.3,0.39c-0.3,0.3-0.271,0.8-0.42,1.17c-0.141,0.38-0.45,0.62-0.67,0.62c-0.221-0.01-0.34-0.27-0.41-0.58
			c-0.07-0.3-0.08-0.65,0.22-1.1c0.3-0.44,0.92-0.99,1.271-1.43c0.3-0.36,0.42-0.65,0.42-0.89"/>
		<path fill="none" stroke="#000000" stroke-linecap="round" stroke-linejoin="round" d="M436.54,238.41
			c-0.07,0.149-0.36,0.24-0.69,0c-0.33-0.23-0.689-0.79-0.8-1.23c-0.1-0.439,0.061-0.76,0.28-0.84c0.21-0.07,0.5,0.101,0.67,0.391
			c0.17,0.289,0.24,0.699,0.35,1.01C436.46,238.05,436.61,238.26,436.54,238.41z"/>
		<path fill="none" stroke="#000000" stroke-width="0.75" stroke-linecap="round" stroke-linejoin="round" d="M284.43,268.72
			c-0.23,0-0.56-0.55-0.71-1.239c-0.15-0.69-0.13-1.521-0.27-2.101c-0.13-0.58-0.43-0.92-0.5-1.189c-0.07-0.261,0.08-0.45,0.46-0.32
			c0.38,0.14,0.99,0.6,1.28,1.28c0.29,0.67,0.27,1.55,0.19,2.27C284.8,268.15,284.66,268.71,284.43,268.72z"/>
		<path fill="none" stroke="#000000" stroke-width="0.75" stroke-linecap="round" stroke-linejoin="round" d="M287.15,272.03
			c-0.4-0.101-1-0.32-1.27-0.601c-0.26-0.279-0.19-0.63,0.1-0.66c0.28-0.029,0.77,0.271,1.13,0.54c0.36,0.271,0.59,0.53,0.61,0.671
			C287.74,272.11,287.55,272.13,287.15,272.03z"/>
		<path fill="none" stroke="#000000" stroke-width="0.75" stroke-linecap="round" stroke-linejoin="round" d="M294.42,276.67
			c-0.5-0.15-1.34-0.4-2.23-0.51c-0.88-0.101-1.81-0.07-2.02,0.29c-0.2,0.37,0.31,1.069,1.27,1.2c0.96,0.14,2.36-0.28,2.99-0.521
			C295.06,276.89,294.91,276.83,294.42,276.67z"/>
		<path fill="none" stroke="#000000" stroke-width="0.75" stroke-linecap="round" stroke-linejoin="round" d="M464.23,123.24
			c-0.03,0.2,0.029,0.71-0.08,1.89c-0.11,1.17-0.391,3.01-0.341,3.97c0.051,0.96,0.44,1.05,0.83,1.04
			c0.391-0.02,0.79-0.14,0.841-0.75c0.05-0.61-0.25-1.7-0.471-2.81c-0.22-1.11-0.37-2.23-0.5-2.85
			C464.38,123.13,464.26,123.03,464.23,123.24z"/>
		<polygon fill="none" stroke="#000000" stroke-linecap="round" stroke-linejoin="round" points="93.08,133.3 121.74,133.3 
			121.74,129.51 103.96,120.46 94.03,125.51 86.17,129.51 86.17,133.3 		"/>
		<polygon fill="none" stroke="#000000" stroke-linecap="round" stroke-linejoin="round" points="101.61,159.75 82.38,159.75 
			82.38,164.48 103.18,164.48 125.53,164.48 125.53,159.75 		"/>
		<polygon fill="none" stroke="#000000" stroke-linecap="round" stroke-linejoin="round" points="101.65,154.36 101.65,138.04 
			106.27,138.04 106.27,155.01 102.32,155.01 101.65,155.01 		"/>
		
			<rect x="110.53" y="138.04" fill="none" stroke="#000000" stroke-linecap="round" stroke-linejoin="round" width="4.29" height="16.97"/>
		<polygon fill="none" stroke="#000000" stroke-linecap="round" stroke-linejoin="round" points="95.83,138.04 93.09,138.04 
			93.09,155.01 97.38,155.01 97.38,140.27 97.38,138.04 		"/>
		<polygon fill="none" stroke="#000000" stroke-linecap="round" stroke-linejoin="round" points="93.28,134.25 121.74,134.25 
			121.74,138.04 119.08,138.04 119.08,155.01 121.74,155.01 121.74,158.8 101.69,158.8 86.17,158.8 86.17,155.01 88.83,155.01 
			88.83,138.04 86.17,138.04 86.17,134.25 		"/>
		<polygon fill="none" stroke="#000000" stroke-linecap="round" stroke-linejoin="round" points="305.35,183.73 287.57,192.78 
			287.57,196.57 323.13,196.57 323.13,192.78 		"/>
		
			<rect x="283.78" y="223.02" fill="none" stroke="#000000" stroke-linecap="round" stroke-linejoin="round" width="43.14" height="4.73"/>
		
			<rect x="303.04" y="201.3" fill="none" stroke="#000000" stroke-linecap="round" stroke-linejoin="round" width="4.62" height="16.98"/>
		
			<rect x="311.92" y="201.3" fill="none" stroke="#000000" stroke-linecap="round" stroke-linejoin="round" width="4.29" height="16.98"/>
		
			<rect x="294.48" y="201.3" fill="none" stroke="#000000" stroke-linecap="round" stroke-linejoin="round" width="4.29" height="16.98"/>
		<polygon fill="none" stroke="#000000" stroke-linecap="round" stroke-linejoin="round" points="320.48,218.28 323.13,218.28 
			323.13,222.07 287.57,222.07 287.57,218.28 290.22,218.28 290.22,201.3 287.57,201.3 287.57,197.51 323.13,197.51 323.13,201.3 
			320.48,201.3 		"/>
		<polygon fill="none" stroke="#000000" stroke-linecap="round" stroke-linejoin="round" points="478.96,80.74 462.24,72.24 
			444.46,81.28 444.46,85.07 470.24,85.07 480.02,85.07 480.02,81.28 		"/>
		<polygon fill="none" stroke="#000000" stroke-linecap="round" stroke-linejoin="round" points="462.22,111.52 440.67,111.52 
			440.67,116.26 454.28,116.26 460.28,116.26 466.18,116.26 483.81,116.26 483.81,111.52 		"/>
		<polygon fill="none" stroke="#000000" stroke-linecap="round" stroke-linejoin="round" points="459.93,101.87 459.93,89.81 
			464.55,89.81 464.55,106.78 460.52,106.78 459.93,106.78 		"/>
		<polygon fill="none" stroke="#000000" stroke-linecap="round" stroke-linejoin="round" points="468.81,101.91 468.81,106.78 
			473.11,106.78 473.11,90.17 473.11,89.81 469.8,89.81 468.81,89.81 468.81,91.22 468.81,91.91 468.81,98.19 		"/>
		
			<rect x="451.38" y="89.81" fill="none" stroke="#000000" stroke-linecap="round" stroke-linejoin="round" width="4.29" height="16.97"/>
		<polygon fill="none" stroke="#000000" stroke-linecap="round" stroke-linejoin="round" points="469.32,86.02 480.02,86.02 
			480.02,89.81 477.37,89.81 477.37,106.78 480.02,106.78 480.02,110.57 461.34,110.57 444.46,110.57 444.46,106.78 447.11,106.78 
			447.11,89.81 444.46,89.81 444.46,86.02 		"/>
	</g>
</g>
<g>
	<g>
		<path fill="none" stroke="#F39232" stroke-linecap="round" stroke-linejoin="round" d="M120.658,119.461
			c12.97-13.808,17.52-29.281,13.648-46.42"/>
		<g>
			<polygon fill="#F39232" points="132.363,66.252 138.945,74.75 134.396,73.563 131.112,76.927 			"/>
		</g>
	</g>
</g>
<g>
	<g>
		<path fill="none" stroke="#F39232" stroke-linecap="round" stroke-linejoin="round" d="M129.88,140.388
			c55.574-9.914,73.98-30.482,82.209-44.665"/>
		<g>
			<polygon fill="#F39232" points="215.37,89.473 214.259,100.164 211.789,96.164 207.091,96.327 			"/>
		</g>
	</g>
</g>
<g>
	<g>
		<path fill="none" stroke="#F39232" stroke-linecap="round" stroke-linejoin="round" d="M133.971,156.189
			c30.155,5.291,50.723,15.854,61.705,31.688"/>
		<g>
			<polygon fill="#F39232" points="190.978,187.512 194.95,186.874 197.249,183.571 198.784,192.975 			"/>
		</g>
	</g>
</g>
<g>
	<g>
		<path fill="none" stroke="#F39232" stroke-linecap="round" stroke-linejoin="round" d="M280.036,204.594
			c-16.282-5.634-33.117-7.217-50.505-4.745"/>
		<g>
			<polygon fill="#F39232" points="222.571,201.049 231.712,195.396 230.055,199.796 233.055,203.415 			"/>
		</g>
	</g>
</g>
<g>
	<g>
		<path fill="none" stroke="#F39232" stroke-linecap="round" stroke-linejoin="round" d="M289.613,178.699
			c-11.098-26.592-25.068-43.451-41.914-50.577"/>
		<g>
			<polygon fill="#F39232" points="241.016,125.846 251.75,125.307 248.176,128.36 249.057,132.977 			"/>
		</g>
	</g>
</g>
<g>
	<g>
		<path fill="none" stroke="#F39232" stroke-linecap="round" stroke-linejoin="round" d="M309.832,177.281
			c-4.47-24.263,0.734-43.641,15.611-58.136"/>
		<g>
			<polygon fill="#F39232" points="330.76,114.496 326.038,124.151 325.096,119.545 320.629,118.082 			"/>
		</g>
	</g>
</g>
<g>
	<g>
		<path fill="none" stroke="#F39232" stroke-linecap="round" stroke-linejoin="round" d="M330.656,203.951
			c16.77-20.69,35.045-25.736,54.826-15.134"/>
		<g>
			<polygon fill="#F39232" points="381.154,190.684 384.374,188.271 384.874,184.279 390.604,191.891 			"/>
		</g>
	</g>
</g>
<g>
	<g>
		<path fill="none" stroke="#F39232" stroke-linecap="round" stroke-linejoin="round" d="M442.901,124.943
			c-15.628,11.289-22.988,29.749-22.079,55.381"/>
		<g>
			<polygon fill="#F39232" points="421.265,187.373 416.649,177.666 420.841,179.797 424.767,177.212 			"/>
		</g>
	</g>
</g>
<g>
	<g>
		<path fill="none" stroke="#F39232" stroke-linecap="round" stroke-linejoin="round" d="M430.132,112.528
			c-17.62,20.167-36.192,27.758-55.719,22.768"/>
		<g>
			<polygon fill="#F39232" points="367.701,133.101 378.412,132.214 374.938,135.381 375.969,139.968 			"/>
		</g>
	</g>
</g>
</svg>
