<?xml version="1.0" encoding="utf-8"?>
<!-- Generator: Adobe Illustrator 15.0.0, SVG Export Plug-In . SVG Version: 6.00 Build 0)  -->
<!DOCTYPE svg PUBLIC "-//W3C//DTD SVG 1.1//EN" "http://www.w3.org/Graphics/SVG/1.1/DTD/svg11.dtd">
<svg version="1.1" id="Layer_1" xmlns="http://www.w3.org/2000/svg" xmlns:xlink="http://www.w3.org/1999/xlink" x="0px" y="0px"
	 width="600px" height="300px" viewBox="0 0 600 300" enable-background="new 0 0 600 300" xml:space="preserve">
<rect y="0" fill="#FDF8E5" width="600" height="300"/>
<rect x="501.573" y="32.952" fill="#F1E188" stroke="#000000" stroke-miterlimit="10" width="33.427" height="33.426"/>
<rect x="401.298" y="32.952" fill="#A8DDE2" stroke="#000000" stroke-linecap="round" stroke-linejoin="round" width="33.426" height="33.426"/>
<rect x="351.161" y="32.952" fill="#A8DDE2" stroke="#000000" stroke-linecap="round" stroke-linejoin="round" width="33.426" height="33.426"/>
<rect x="301.022" y="32.952" fill="#A8DDE2" stroke="#000000" stroke-linecap="round" stroke-linejoin="round" width="33.425" height="33.426"/>
<rect x="250.886" y="32.952" fill="#A8DDE2" stroke="#000000" stroke-linecap="round" stroke-linejoin="round" width="33.425" height="33.426"/>
<rect x="200.748" y="32.952" fill="#A8DDE2" stroke="#000000" stroke-linecap="round" stroke-linejoin="round" width="33.424" height="33.426"/>
<rect x="150.609" y="32.952" fill="#A8DDE2" stroke="#000000" stroke-linecap="round" stroke-linejoin="round" width="33.425" height="33.426"/>
<rect x="100.472" y="32.952" fill="#A8DDE2" stroke="#000000" stroke-linecap="round" stroke-linejoin="round" width="33.425" height="33.426"/>
<rect x="50.333" y="32.952" fill="#A8DDE2" stroke="#000000" stroke-linecap="round" stroke-linejoin="round" width="33.425" height="33.426"/>
<text transform="matrix(1 0 0 1 56.8726 55.7744)" font-family="'MyriadPro-Regular'" font-size="17.383">13</text>
<text transform="matrix(1 0 0 1 108.1924 55.3604)" font-family="'MyriadPro-Regular'" font-size="17.383">12</text>
<text transform="matrix(1 0 0 1 162.8252 55.3623)" font-family="'MyriadPro-Regular'" font-size="17.383">9</text>
<text transform="matrix(1 0 0 1 212.0781 54.9463)" font-family="'MyriadPro-Regular'" font-size="17.383">6</text>
<text transform="matrix(1 0 0 1 263.8125 54.5342)" font-family="'MyriadPro-Regular'" font-size="17.383">4</text>
<text transform="matrix(1 0 0 1 308.9258 54.9463)" font-family="'MyriadPro-Regular'" font-size="17.383">16</text>
<text transform="matrix(1 0 0 1 359.0029 55.3604)" font-family="'MyriadPro-Regular'" font-size="17.383">17</text>
<text transform="matrix(1 0 0 1 408.2559 56.1885)" font-family="'MyriadPro-Regular'" font-size="17.383">10</text>
<text transform="matrix(1 0 0 1 512.9658 54.5332)" font-family="'MyriadPro-Regular'" font-size="17.383">6</text>
<rect x="500.24" y="178.952" fill="#F1E188" stroke="#000000" stroke-miterlimit="10" width="33.427" height="33.426"/>
<rect x="399.965" y="178.952" fill="#A8DDE2" stroke="#000000" stroke-linecap="round" stroke-linejoin="round" width="33.426" height="33.426"/>
<rect x="349.828" y="178.952" fill="#A8DDE2" stroke="#000000" stroke-linecap="round" stroke-linejoin="round" width="33.426" height="33.426"/>
<rect x="299.689" y="178.952" fill="#A8DDE2" stroke="#000000" stroke-linecap="round" stroke-linejoin="round" width="33.425" height="33.426"/>
<rect x="249.553" y="178.952" fill="#A8DDE2" stroke="#000000" stroke-linecap="round" stroke-linejoin="round" width="33.425" height="33.426"/>
<rect x="199.415" y="178.952" fill="#A8DDE2" stroke="#000000" stroke-linecap="round" stroke-linejoin="round" width="33.424" height="33.426"/>
<rect x="149.276" y="178.952" fill="#BD2E2A" stroke="#000000" stroke-miterlimit="10" width="33.425" height="33.426"/>
<rect x="99.139" y="178.952" fill="#A8DDE2" stroke="#000000" stroke-linecap="round" stroke-linejoin="round" width="33.425" height="33.426"/>
<rect x="49" y="178.952" fill="#A8DDE2" stroke="#000000" stroke-linecap="round" stroke-linejoin="round" width="33.425" height="33.426"/>
<text transform="matrix(1 0 0 1 55.5396 201.7744)" font-family="'MyriadPro-Regular'" font-size="17.383">13</text>
<text transform="matrix(1 0 0 1 106.8594 201.3604)" font-family="'MyriadPro-Regular'" font-size="17.383">12</text>
<text transform="matrix(1 0 0 1 157.4922 201.3623)" font-family="'MyriadPro-Regular'" font-size="17.383">11</text>
<text transform="matrix(1 0 0 1 210.7451 200.9463)" font-family="'MyriadPro-Regular'" font-size="17.383">6</text>
<text transform="matrix(1 0 0 1 262.4795 200.5342)" font-family="'MyriadPro-Regular'" font-size="17.383">4</text>
<text transform="matrix(1 0 0 1 307.5928 200.9463)" font-family="'MyriadPro-Regular'" font-size="17.383">16</text>
<text transform="matrix(1 0 0 1 357.6699 201.3604)" font-family="'MyriadPro-Regular'" font-size="17.383">17</text>
<text transform="matrix(1 0 0 1 406.9229 202.1885)" font-family="'MyriadPro-Regular'" font-size="17.383">10</text>
<text transform="matrix(1 0 0 1 511.6328 200.5332)" font-family="'MyriadPro-Regular'" font-size="17.383">6</text>
<rect x="61.667" y="240.286" fill="#BD2E2A" stroke="#000000" stroke-miterlimit="10" width="33.425" height="33.425"/>
<text transform="matrix(1 0 0 1 73.667 262.332)" font-family="'MyriadPro-Bold'" font-size="18">5</text>
<rect x="62" y="92.286" fill="#BAD872" stroke="#000000" stroke-miterlimit="10" width="33.425" height="33.425"/>
<text transform="matrix(1 0 0 1 74 114.332)" font-family="'MyriadPro-Bold'" font-size="18">3</text>
<text transform="matrix(1 0 0 1 74 170.334)" font-family="'MyriadPro-Bold'" font-size="18">Corrupted / Altered Data</text>
<g>
	<g>
		<path fill="none" stroke="#000000" stroke-width="2" stroke-miterlimit="10" d="M42.17,119.451
			c-0.295,0.305-0.575,0.61-0.836,0.917c-1.038,1.218-1.99,2.485-2.863,3.797"/>
		<path fill="none" stroke="#000000" stroke-width="2" stroke-miterlimit="10" stroke-dasharray="10.9239,10.9239" d="
			M33.625,133.928c-0.511,1.43-0.963,2.893-1.36,4.387c-3.497,13.146-8.294,26.634-9.265,40.655
			c-0.911,13.154,0.159,27.621,5.17,39.346c2.208,5.169,5.014,10.359,7.871,15.482"/>
		<path fill="none" stroke="#000000" stroke-width="2" stroke-miterlimit="10" d="M38.844,238.487
			c1.094,1.596,2.333,3.189,3.603,4.804"/>
		<g>
			<polygon points="51.667,109 32.282,118.289 41.478,120.248 44.333,129.205 			"/>
		</g>
		<g>
			<polygon points="50.334,255.001 32.398,243.152 41.776,242.467 45.827,233.984 			"/>
		</g>
	</g>
</g>
<text transform="matrix(1 0 0 1 399.666 276.334)" font-family="'MyriadPro-Bold'" font-size="18">FAILED CHECKSUM</text>
</svg>
