<?xml version="1.0" encoding="utf-8"?>
<!-- Generator: Adobe Illustrator 15.0.0, SVG Export Plug-In . SVG Version: 6.00 Build 0)  -->
<!DOCTYPE svg PUBLIC "-//W3C//DTD SVG 1.1//EN" "http://www.w3.org/Graphics/SVG/1.1/DTD/svg11.dtd">
<svg version="1.1" id="Layer_1" xmlns="http://www.w3.org/2000/svg" xmlns:xlink="http://www.w3.org/1999/xlink" x="0px" y="0px"
	 width="600px" height="300px" viewBox="0 0 600 300" enable-background="new 0 0 600 300" xml:space="preserve">
<rect fill="#FEF9E4" width="600" height="300"/>
<g id="XMLID_2_">
	<g>
		<path fill="#FFFFFF" d="M509.69,230.4v-5.36c0.22-0.05,0.34-0.17,0.47-0.34c0.27-0.37,0.62-0.98,1.51-1.99v5.44L509.69,230.4z"/>
		<rect x="371.87" y="205.05" fill="#FFFFFF" width="107.6" height="34.851"/>
		<path fill="#F1E188" d="M479.47,239.9V205.05h41.44V239.9H479.47z M511.67,214.63h-21.89l-1.98,2.24v13.53h21.891l1.979-2.25
			v-5.44c0.05-0.07,0.05-1.29,0.05-1.94c0-0.649,0-0.72-0.05-0.699V214.63z"/>
		<path fill="#F1E188" d="M506.17,223.97c-0.24-0.08-0.3-0.22-0.22-0.46c0.09-0.229,0.22-0.3,0.46-0.21
			c0.24,0.08,0.3,0.22,0.21,0.46C506.54,223.99,506.41,224.06,506.17,223.97z"/>
		<path fill="#FFFFFF" d="M509.69,216.87H487.8l1.98-2.24h21.89v5.44c-0.89,1.01-1.24,1.63-1.51,1.989
			c-0.13,0.181-0.25,0.29-0.47,0.341v-0.011V216.87z"/>
		<path fill="#FFFFFF" d="M369.26,63.49c1.101-5.24,3.94-10.11,15.58-10.11c11.65,0,14.49,4.87,15.59,10.11
			c1.09,5.25,0.431,10.86-1.109,14.87c-1.54,4.01-3.96,6.41-5.351,7.98c-1.39,1.57-1.75,2.3-1.93,2.77
			c-0.18,0.47-0.18,0.69,2.99,2.01c3.17,1.32,9.51,3.76,13.09,4.97c3.59,1.22,4.41,1.22,4.41,9.02c-9.23,0-18.46,0-27.69,0
			c-9.229,0-18.46,0-27.689,0c0-7.8,0.83-7.8,4.42-9.02c3.58-1.21,9.92-3.65,13.09-4.97c3.17-1.32,3.17-1.54,2.99-2.01
			c-0.181-0.47-0.54-1.2-1.931-2.77c-1.39-1.57-3.81-3.97-5.35-7.98C368.83,74.35,368.17,68.74,369.26,63.49z"/>
		<path fill="#A7DCE1" d="M419.38,113.14h-69.07V47.08h69.07V113.14z M384.84,53.38c-11.64,0-14.479,4.87-15.58,10.11
			c-1.09,5.25-0.43,10.86,1.11,14.87c1.54,4.01,3.96,6.41,5.35,7.98c1.391,1.57,1.75,2.3,1.931,2.77c0.18,0.47,0.18,0.69-2.99,2.01
			c-3.17,1.32-9.51,3.76-13.09,4.97c-3.59,1.22-4.42,1.22-4.42,9.02c9.229,0,18.46,0,27.689,0c9.23,0,18.46,0,27.69,0
			c0-7.8-0.82-7.8-4.41-9.02c-3.58-1.21-9.92-3.65-13.09-4.97c-3.17-1.32-3.17-1.54-2.99-2.01c0.18-0.47,0.54-1.2,1.93-2.77
			c1.391-1.57,3.811-3.97,5.351-7.98c1.54-4.01,2.199-9.62,1.109-14.87C399.33,58.25,396.49,53.38,384.84,53.38z"/>
		<path fill="#A7DCE1" d="M504.43,186.55H435.36v-66.06h69.069V186.55z M442.21,178.53c9.23,0,18.46,0,27.69,0
			c9.229,0,18.46,0,27.689,0c0-7.811-0.83-7.811-4.42-9.021c-3.58-1.22-9.92-3.649-13.09-4.979c-3.17-1.32-3.17-1.54-2.99-2.011
			c0.18-0.47,0.54-1.199,1.93-2.77c1.391-1.56,3.811-3.97,5.351-7.98c1.54-4.01,2.2-9.62,1.11-14.859
			c-1.101-5.25-3.94-10.12-15.58-10.12c-11.65,0-14.49,4.87-15.591,10.12c-1.09,5.24-0.43,10.85,1.11,14.859
			c1.54,4.011,3.96,6.421,5.35,7.98c1.391,1.57,1.75,2.3,1.931,2.77c0.18,0.471,0.18,0.69-2.99,2.011
			c-3.17,1.33-9.51,3.76-13.09,4.979C443.03,170.72,442.21,170.72,442.21,178.53z"/>
		<path fill="#FFFFFF" d="M469.9,178.53c-9.23,0-18.46,0-27.69,0c0-7.811,0.82-7.811,4.41-9.021c3.58-1.22,9.92-3.649,13.09-4.979
			c3.17-1.32,3.17-1.54,2.99-2.011c-0.181-0.47-0.54-1.199-1.931-2.77c-1.39-1.56-3.81-3.97-5.35-7.98
			c-1.54-4.01-2.2-9.62-1.11-14.859c1.101-5.25,3.94-10.12,15.591-10.12c11.64,0,14.479,4.87,15.58,10.12
			c1.09,5.24,0.43,10.85-1.11,14.859c-1.54,4.011-3.96,6.421-5.351,7.98c-1.39,1.57-1.75,2.3-1.93,2.77
			c-0.18,0.471-0.18,0.69,2.99,2.011c3.17,1.33,9.51,3.76,13.09,4.979c3.59,1.21,4.42,1.21,4.42,9.021
			C488.36,178.53,479.13,178.53,469.9,178.53z"/>
		<rect x="81.04" y="61.13" fill="#FFFFFF" width="107.59" height="34.85"/>
		<path fill="#F1E188" d="M188.63,95.98V61.13h41.45v34.85H188.63z M198.94,70.71l-1.98,2.25v13.52h21.9l1.98-2.25v-5.44
			c0.05-0.06,0.05-1.29,0.05-1.94s0-0.72-0.05-0.7v-5.44H198.94z"/>
		<path fill="#F1E188" d="M215.33,80.05c-0.23-0.08-0.3-0.22-0.21-0.45c0.08-0.24,0.22-0.31,0.45-0.22
			c0.24,0.08,0.31,0.22,0.22,0.46C215.71,80.08,215.57,80.14,215.33,80.05z"/>
		<path fill="#B9D871" d="M197.92,144.18c0.95,0,1.73,0.78,1.73,1.73c0,0.95-0.78,1.72-1.73,1.72c-0.95,0-1.72-0.77-1.72-1.72
			C196.2,144.96,196.97,144.18,197.92,144.18z"/>
		<path fill="#FFFFFF" d="M218.86,72.96h-21.9l1.98-2.25h21.9v5.44c-0.89,1.01-1.25,1.63-1.52,1.99c-0.13,0.18-0.24,0.29-0.46,0.34
			V72.96z"/>
		<path fill="#B9D871" d="M230.08,163.74h-41.45v-34.85h41.45V163.74z M220.84,148.35c0.76-0.68,1.51-1.35,2.27-2.03
			c0.17,0,0.33,0,0.5,0c0.21-0.17,0.42-0.34,0.63-0.51c-0.21-0.18-0.42-0.35-0.63-0.52c-0.17,0-0.33,0-0.5,0
			c-1.04-0.93-2.08-1.86-3.12-2.78c-4.19,0-8.39,0-12.58,0c-3.67-6.74-13.93-3.72-13.36,3.93c0.57,7.64,11.16,9.11,13.79,1.91
			c0.73,0,1.45,0,2.18,0c0-0.31,0-0.63,0-0.94c0.22,0,0.44,0,0.66,0c0,0.31,0,0.63,0,0.94c0.18,0,0.36,0,0.55,0
			c0-0.59,0-1.17,0-1.76c0.2,0,0.39,0,0.59,0c0,0.59,0,1.17,0,1.76c0.17,0,0.34,0,0.51,0c0-0.59,0-1.17,0-1.76c0.2,0,0.4,0,0.59,0
			c0,0.59,0,1.17,0,1.76c0.17,0,0.34,0,0.51,0c0-0.59,0-1.17,0-1.76c0.2,0,0.4,0,0.59,0c0,0.59,0,1.17,0,1.76c0.17,0,0.34,0,0.51,0
			c0-0.31,0-0.63,0-0.94c0.22,0,0.44,0,0.66,0c0,0.31,0,0.63,0,0.94c0.83,0,1.65,0,2.48,0c0-0.31,0-0.63,0-0.94
			c0.22,0,0.44,0,0.66,0c0,0.31,0,0.63,0,0.94C219.17,148.35,220,148.35,220.84,148.35z"/>
		<rect x="81.04" y="196.64" fill="#FFFFFF" width="107.59" height="34.851"/>
		<rect x="81.04" y="128.89" fill="#FFFFFF" width="107.59" height="34.85"/>
		<path fill="#A7DCE1" d="M199.65,213.66c0,0.96-0.78,1.729-1.73,1.729c-0.95,0-1.72-0.77-1.72-1.729c0-0.95,0.77-1.72,1.72-1.72
			C198.87,211.94,199.65,212.71,199.65,213.66z"/>
		<path fill="#A7DCE1" d="M188.63,231.49V196.64h41.45v34.851H188.63z M194.05,214.19c0.57,7.649,11.16,9.119,13.79,1.909
			c0.73,0,1.45,0,2.18,0c0-0.31,0-0.619,0-0.939c0.22,0,0.44,0,0.66,0c0,0.32,0,0.63,0,0.939c0.18,0,0.36,0,0.55,0
			c0-0.58,0-1.17,0-1.75c0.2,0,0.39,0,0.59,0c0,0.58,0,1.17,0,1.75c0.17,0,0.34,0,0.51,0c0-0.58,0-1.17,0-1.75c0.2,0,0.4,0,0.59,0
			c0,0.58,0,1.17,0,1.75c0.17,0,0.34,0,0.51,0c0-0.58,0-1.17,0-1.75c0.2,0,0.4,0,0.59,0c0,0.58,0,1.17,0,1.75c0.17,0,0.34,0,0.51,0
			c0-0.31,0-0.619,0-0.939c0.22,0,0.44,0,0.66,0c0,0.32,0,0.63,0,0.939c0.83,0,1.65,0,2.48,0c0-0.31,0-0.619,0-0.939
			c0.22,0,0.44,0,0.66,0c0,0.32,0,0.63,0,0.939c0.84,0,1.67,0,2.51,0c0.76-0.67,1.51-1.35,2.27-2.02c0.17,0,0.33,0,0.5,0
			c0.21-0.17,0.42-0.35,0.63-0.521c-0.21-0.17-0.42-0.35-0.63-0.52c-0.17,0-0.33,0-0.5,0c-1.04-0.92-2.08-1.85-3.12-2.78
			c-4.19,0-8.39,0-12.58,0C203.74,203.53,193.48,206.54,194.05,214.19z"/>
		<path fill="#FFFFFF" d="M220.84,78.79v5.44l-1.98,2.25v-5.36c0.21-0.05,0.32-0.17,0.46-0.34
			C219.59,80.42,219.95,79.8,220.84,78.79z"/>
	</g>
	<g>
		<polyline fill="none" stroke="#000000" stroke-width="0.5" stroke-linecap="round" stroke-linejoin="round" points="
			509.69,222.39 509.69,216.87 487.8,216.87 		"/>
		<path fill="none" stroke="#000000" stroke-width="0.25" stroke-linecap="round" stroke-linejoin="round" d="M506.41,223.3
			c-0.24-0.09-0.37-0.02-0.46,0.21c-0.08,0.24-0.021,0.38,0.22,0.46c0.24,0.09,0.37,0.021,0.45-0.21
			C506.71,223.52,506.65,223.38,506.41,223.3z"/>
		<polyline fill="none" stroke="#000000" stroke-width="0.5" stroke-linecap="round" stroke-linejoin="round" points="487.8,230.4 
			509.69,230.4 509.69,225.04 509.69,225.03 		"/>
		
			<line fill="none" stroke="#000000" stroke-width="0.5" stroke-linecap="round" stroke-linejoin="round" x1="509.69" y1="230.4" x2="511.67" y2="228.15"/>
		<polyline fill="none" stroke="#000000" stroke-width="0.5" stroke-linecap="round" stroke-linejoin="round" points="
			511.67,220.07 511.67,214.63 489.78,214.63 		"/>
		
			<line fill="none" stroke="#000000" stroke-width="0.5" stroke-linecap="round" stroke-linejoin="round" x1="487.8" y1="216.87" x2="489.78" y2="214.63"/>
		<polygon fill="none" stroke="#000000" stroke-linecap="round" stroke-linejoin="round" points="479.47,205.05 371.87,205.05 
			371.87,239.9 479.47,239.9 520.91,239.9 520.91,205.05 		"/>
		<path fill="none" stroke="#000000" stroke-width="0.5" stroke-linecap="round" stroke-linejoin="round" d="M511.67,220.07
			c0.05-0.021,0.05,0.05,0.05,0.699c0,0.65,0,1.87-0.05,1.94c-0.89,1.01-1.24,1.62-1.51,1.99c-0.13,0.17-0.25,0.29-0.47,0.34
			c-0.23,0.04-0.58,0.02-1.19-0.09c-0.74,0-1.48,0-2.21,0c-0.73,0-1.32-0.59-1.32-1.32c0-0.72,0.59-1.31,1.32-1.31
			c0.74,0,1.47,0,2.21,0c0.61,0.1,0.96,0.13,1.19,0.08c0.22-0.051,0.34-0.16,0.47-0.341C510.43,221.7,510.78,221.08,511.67,220.07z"
			/>
		
			<line fill="none" stroke="#000000" stroke-linecap="round" stroke-linejoin="round" x1="479.47" y1="239.9" x2="479.47" y2="205.05"/>
		
			<line fill="none" stroke="#000000" stroke-width="0.5" stroke-linecap="round" stroke-linejoin="round" x1="511.67" y1="228.15" x2="511.67" y2="222.71"/>
		
			<line fill="none" stroke="#000000" stroke-width="0.5" stroke-linecap="round" stroke-linejoin="round" x1="487.8" y1="230.4" x2="487.8" y2="216.87"/>
		
			<rect x="435.36" y="120.49" fill="none" stroke="#000000" stroke-linecap="round" stroke-linejoin="round" width="69.069" height="66.06"/>
		<path fill="none" stroke="#000000" stroke-width="0.5" stroke-linecap="round" stroke-linejoin="round" d="M469.9,178.53
			c-9.23,0-18.46,0-27.69,0c0-7.811,0.82-7.811,4.41-9.021c3.58-1.22,9.92-3.649,13.09-4.979c3.17-1.32,3.17-1.54,2.99-2.011
			c-0.181-0.47-0.54-1.199-1.931-2.77c-1.39-1.56-3.81-3.97-5.35-7.98c-1.54-4.01-2.2-9.62-1.11-14.859
			c1.101-5.25,3.94-10.12,15.591-10.12c11.64,0,14.479,4.87,15.58,10.12c1.09,5.24,0.43,10.85-1.11,14.859
			c-1.54,4.011-3.96,6.421-5.351,7.98c-1.39,1.57-1.75,2.3-1.93,2.77c-0.18,0.471-0.18,0.69,2.99,2.011
			c3.17,1.33,9.51,3.76,13.09,4.979c3.59,1.21,4.42,1.21,4.42,9.021C488.36,178.53,479.13,178.53,469.9,178.53z"/>
		
			<rect x="350.31" y="47.08" fill="none" stroke="#000000" stroke-linecap="round" stroke-linejoin="round" width="69.07" height="66.06"/>
		<path fill="none" stroke="#000000" stroke-width="0.5" stroke-linecap="round" stroke-linejoin="round" d="M384.84,105.11
			c-9.229,0-18.46,0-27.689,0c0-7.8,0.83-7.8,4.42-9.02c3.58-1.21,9.92-3.65,13.09-4.97c3.17-1.32,3.17-1.54,2.99-2.01
			c-0.181-0.47-0.54-1.2-1.931-2.77c-1.39-1.57-3.81-3.97-5.35-7.98c-1.54-4.01-2.2-9.62-1.11-14.87
			c1.101-5.24,3.94-10.11,15.58-10.11c11.65,0,14.49,4.87,15.59,10.11c1.09,5.25,0.431,10.86-1.109,14.87
			c-1.54,4.01-3.96,6.41-5.351,7.98c-1.39,1.57-1.75,2.3-1.93,2.77c-0.18,0.47-0.18,0.69,2.99,2.01c3.17,1.32,9.51,3.76,13.09,4.97
			c3.59,1.22,4.41,1.22,4.41,9.02C403.3,105.11,394.07,105.11,384.84,105.11z"/>
		
			<line fill="none" stroke="#000000" stroke-width="0.5" stroke-linecap="round" stroke-linejoin="round" x1="196.96" y1="86.48" x2="196.96" y2="72.96"/>
		<polyline fill="none" stroke="#000000" stroke-width="0.5" stroke-linecap="round" stroke-linejoin="round" points="218.86,78.48 
			218.86,72.96 196.96,72.96 		"/>
		<polyline fill="none" stroke="#000000" stroke-width="0.5" stroke-linecap="round" stroke-linejoin="round" points="196.96,86.48 
			218.86,86.48 218.86,81.12 218.86,81.11 		"/>
		<path fill="none" stroke="#000000" stroke-width="0.5" stroke-linecap="round" stroke-linejoin="round" d="M220.84,76.15
			c0.05-0.02,0.05,0.05,0.05,0.7s0,1.88-0.05,1.94c-0.89,1.01-1.25,1.63-1.52,1.99c-0.14,0.17-0.25,0.29-0.46,0.34
			c-0.23,0.04-0.58,0.02-1.19-0.09c-0.74,0-1.48,0-2.22,0c-0.73,0-1.31-0.59-1.31-1.32c0-0.72,0.59-1.31,1.32-1.31s1.47,0,2.21,0
			c0.61,0.1,0.96,0.13,1.19,0.08c0.22-0.05,0.33-0.16,0.46-0.34C219.59,77.78,219.95,77.16,220.84,76.15z"/>
		<polyline fill="none" stroke="#000000" stroke-width="0.5" stroke-linecap="round" stroke-linejoin="round" points="220.84,76.15 
			220.84,70.71 198.94,70.71 		"/>
		
			<line fill="none" stroke="#000000" stroke-width="0.5" stroke-linecap="round" stroke-linejoin="round" x1="220.84" y1="84.23" x2="220.84" y2="78.79"/>
		
			<line fill="none" stroke="#000000" stroke-width="0.5" stroke-linecap="round" stroke-linejoin="round" x1="196.96" y1="72.96" x2="198.94" y2="70.71"/>
		<path fill="none" stroke="#000000" stroke-width="0.25" stroke-linecap="round" stroke-linejoin="round" d="M215.57,79.38
			c-0.23-0.09-0.37-0.02-0.45,0.22c-0.09,0.23-0.02,0.37,0.21,0.45c0.24,0.09,0.38,0.03,0.46-0.21
			C215.88,79.6,215.81,79.46,215.57,79.38z"/>
		
			<line fill="none" stroke="#000000" stroke-width="0.5" stroke-linecap="round" stroke-linejoin="round" x1="218.86" y1="86.48" x2="220.84" y2="84.23"/>
		<path fill="none" stroke="#000000" stroke-width="0.5" stroke-linecap="round" stroke-linejoin="round" d="M197.92,211.94
			c-0.95,0-1.72,0.77-1.72,1.72c0,0.96,0.77,1.729,1.72,1.729c0.95,0,1.73-0.77,1.73-1.729
			C199.65,212.71,198.87,211.94,197.92,211.94z"/>
		<path fill="none" stroke="#000000" stroke-width="0.5" stroke-linecap="round" stroke-linejoin="round" d="M223.61,214.08
			c-0.17,0-0.33,0-0.5,0c-0.76,0.67-1.51,1.35-2.27,2.02c-0.84,0-1.67,0-2.51,0c0-0.31,0-0.619,0-0.939c-0.22,0-0.44,0-0.66,0
			c0,0.32,0,0.63,0,0.939c-0.83,0-1.65,0-2.48,0c0-0.31,0-0.619,0-0.939c-0.22,0-0.44,0-0.66,0c0,0.32,0,0.63,0,0.939
			c-0.17,0-0.34,0-0.51,0c0-0.58,0-1.17,0-1.75c-0.19,0-0.39,0-0.59,0c0,0.58,0,1.17,0,1.75c-0.17,0-0.34,0-0.51,0
			c0-0.58,0-1.17,0-1.75c-0.19,0-0.39,0-0.59,0c0,0.58,0,1.17,0,1.75c-0.17,0-0.34,0-0.51,0c0-0.58,0-1.17,0-1.75
			c-0.2,0-0.39,0-0.59,0c0,0.58,0,1.17,0,1.75c-0.19,0-0.37,0-0.55,0c0-0.31,0-0.619,0-0.939c-0.22,0-0.44,0-0.66,0
			c0,0.32,0,0.63,0,0.939c-0.73,0-1.45,0-2.18,0c-2.63,7.21-13.22,5.74-13.79-1.909c-0.57-7.65,9.69-10.66,13.36-3.931
			c4.19,0,8.39,0,12.58,0c1.04,0.931,2.08,1.86,3.12,2.78c0.17,0,0.33,0,0.5,0c0.21,0.17,0.42,0.35,0.63,0.52
			C224.03,213.73,223.82,213.91,223.61,214.08z"/>
		<path fill="none" stroke="#000000" stroke-width="0.5" stroke-linecap="round" stroke-linejoin="round" d="M197.92,144.18
			c-0.95,0-1.72,0.78-1.72,1.73c0,0.95,0.77,1.72,1.72,1.72c0.95,0,1.73-0.77,1.73-1.72C199.65,144.96,198.87,144.18,197.92,144.18z
			"/>
		<path fill="none" stroke="#000000" stroke-width="0.5" stroke-linecap="round" stroke-linejoin="round" d="M223.61,146.32
			c-0.17,0-0.33,0-0.5,0c-0.76,0.68-1.51,1.35-2.27,2.03c-0.84,0-1.67,0-2.51,0c0-0.31,0-0.63,0-0.94c-0.22,0-0.44,0-0.66,0
			c0,0.31,0,0.63,0,0.94c-0.83,0-1.65,0-2.48,0c0-0.31,0-0.63,0-0.94c-0.22,0-0.44,0-0.66,0c0,0.31,0,0.63,0,0.94
			c-0.17,0-0.34,0-0.51,0c0-0.59,0-1.17,0-1.76c-0.19,0-0.39,0-0.59,0c0,0.59,0,1.17,0,1.76c-0.17,0-0.34,0-0.51,0
			c0-0.59,0-1.17,0-1.76c-0.19,0-0.39,0-0.59,0c0,0.59,0,1.17,0,1.76c-0.17,0-0.34,0-0.51,0c0-0.59,0-1.17,0-1.76
			c-0.2,0-0.39,0-0.59,0c0,0.59,0,1.17,0,1.76c-0.19,0-0.37,0-0.55,0c0-0.31,0-0.63,0-0.94c-0.22,0-0.44,0-0.66,0
			c0,0.31,0,0.63,0,0.94c-0.73,0-1.45,0-2.18,0c-2.63,7.2-13.22,5.73-13.79-1.91c-0.57-7.65,9.69-10.67,13.36-3.93
			c4.19,0,8.39,0,12.58,0c1.04,0.92,2.08,1.85,3.12,2.78c0.17,0,0.33,0,0.5,0c0.21,0.17,0.42,0.34,0.63,0.52
			C224.03,145.98,223.82,146.15,223.61,146.32z"/>
		
			<line fill="none" stroke="#000000" stroke-linecap="round" stroke-linejoin="round" x1="188.63" y1="231.49" x2="188.63" y2="196.64"/>
		
			<line fill="none" stroke="#000000" stroke-linecap="round" stroke-linejoin="round" x1="188.63" y1="163.74" x2="188.63" y2="128.89"/>
		
			<line fill="none" stroke="#000000" stroke-linecap="round" stroke-linejoin="round" x1="188.63" y1="95.98" x2="188.63" y2="61.13"/>
		<polygon fill="none" stroke="#000000" stroke-linecap="round" stroke-linejoin="round" points="188.63,196.64 81.04,196.64 
			81.04,231.49 188.63,231.49 230.08,231.49 230.08,196.64 		"/>
		<polygon fill="none" stroke="#000000" stroke-linecap="round" stroke-linejoin="round" points="188.63,128.89 81.04,128.89 
			81.04,163.74 188.63,163.74 230.08,163.74 230.08,128.89 		"/>
		<polygon fill="none" stroke="#000000" stroke-linecap="round" stroke-linejoin="round" points="188.63,61.13 81.04,61.13 
			81.04,95.98 188.63,95.98 230.08,95.98 230.08,61.13 		"/>
	</g>
</g>
<text transform="matrix(1 0 0 1 101.667 149.667)" font-family="'MyriadPro-Regular'" font-size="12">Private Key A</text>
<text transform="matrix(1 0 0 1 103 218)" font-family="'MyriadPro-Regular'" font-size="12">Public Key A</text>
<text transform="matrix(1 0 0 1 93.3335 82)" font-family="'MyriadPro-Regular'" font-size="12">Wallet Address A</text>
<text transform="matrix(1 0 0 1 383.667 226.333)" font-family="'MyriadPro-Regular'" font-size="12">Wallet Address B</text>
<g>
	<g>
		<path fill="none" stroke="#B9D871" stroke-width="2" stroke-miterlimit="10" d="M411.585,166.042
			c-22.402-4.568-33.481-20.46-33.229-47.662"/>
		<g>
			<polygon fill="#B9D871" points="425.645,167.42 406.774,157.126 410.563,165.731 404.965,173.284 			"/>
		</g>
	</g>
</g>
<text transform="matrix(1 0 0 1 363 42)" font-family="'MyriadPro-Regular'" font-size="12">Person A</text>
<text transform="matrix(1 0 0 1 449 114.5)" font-family="'MyriadPro-Regular'" font-size="12">Person B</text>
</svg>
