<?xml version="1.0" encoding="utf-8"?>
<!-- Generator: Adobe Illustrator 15.0.0, SVG Export Plug-In . SVG Version: 6.00 Build 0)  -->
<!DOCTYPE svg PUBLIC "-//W3C//DTD SVG 1.1//EN" "http://www.w3.org/Graphics/SVG/1.1/DTD/svg11.dtd">
<svg version="1.1" id="Layer_1" xmlns="http://www.w3.org/2000/svg" xmlns:xlink="http://www.w3.org/1999/xlink" x="0px" y="0px"
	 width="600px" height="300px" viewBox="0 0 600 300" enable-background="new 0 0 600 300" xml:space="preserve">
<rect fill="#FEF9E4" width="600" height="300"/>
<g id="XMLID_2_">
	<g>
		<path fill="#FFFFFF" d="M259.32,80.78c0.27-0.36,0.63-0.98,1.52-1.99v5.44l-1.98,2.25v-5.36
			C259.07,81.07,259.18,80.95,259.32,80.78z"/>
		<path fill="#A7DCE1" d="M464.43,120.49v66.06H395.36v-66.06H464.43z M429.9,178.53c9.229,0,18.46,0,27.689,0
			c0-7.811-0.83-7.811-4.42-9.021c-3.58-1.22-9.92-3.649-13.09-4.979c-3.17-1.32-3.17-1.54-2.99-2.011
			c0.18-0.47,0.54-1.199,1.93-2.77c1.391-1.56,3.811-3.97,5.351-7.98c1.54-4.01,2.2-9.62,1.11-14.859
			c-1.101-5.25-3.94-10.12-15.58-10.12c-11.65,0-14.49,4.87-15.591,10.12c-1.09,5.24-0.43,10.85,1.11,14.859
			c1.54,4.011,3.96,6.421,5.35,7.98c1.391,1.57,1.75,2.3,1.931,2.77c0.18,0.471,0.18,0.69-2.99,2.011
			c-3.17,1.33-9.51,3.76-13.09,4.979c-3.59,1.21-4.41,1.21-4.41,9.021C411.44,178.53,420.67,178.53,429.9,178.53z"/>
		<path fill="#F1E188" d="M255.33,80.05c-0.23-0.08-0.3-0.22-0.21-0.45c0.08-0.24,0.22-0.31,0.45-0.22
			c0.24,0.08,0.31,0.22,0.22,0.46C255.71,80.08,255.57,80.14,255.33,80.05z"/>
		<path fill="#FFFFFF" d="M372.53,105.11c-9.23,0-18.46,0-27.69,0c-9.229,0-18.46,0-27.689,0c0-7.8,0.83-7.8,4.42-9.02
			c3.58-1.21,9.92-3.65,13.09-4.97c3.17-1.32,3.17-1.54,2.99-2.01c-0.181-0.47-0.54-1.2-1.931-2.77c-1.39-1.57-3.81-3.97-5.35-7.98
			c-1.54-4.01-2.2-9.62-1.11-14.87c1.101-5.24,3.94-10.11,15.58-10.11c11.65,0,14.49,4.87,15.59,10.11
			c1.09,5.25,0.431,10.86-1.109,14.87c-1.54,4.01-3.96,6.41-5.351,7.98c-1.39,1.57-1.75,2.3-1.93,2.77
			c-0.18,0.47-0.18,0.69,2.99,2.01c3.17,1.32,9.51,3.76,13.09,4.97C371.71,97.31,372.53,97.31,372.53,105.11z"/>
		<path fill="#FFFFFF" d="M260.84,70.71v5.44c-0.89,1.01-1.25,1.63-1.52,1.99c-0.13,0.18-0.24,0.29-0.46,0.34v-5.52h-21.9l1.98-2.25
			H260.84z"/>
		<rect x="121.04" y="61.13" fill="#FFFFFF" width="107.59" height="34.85"/>
		<path fill="#F1E188" d="M270.08,61.13v34.85h-41.45V61.13H270.08z M260.84,78.79c0.05-0.06,0.05-1.29,0.05-1.94s0-0.72-0.05-0.7
			v-5.44h-21.9l-1.98,2.25v13.52h21.9l1.98-2.25V78.79z"/>
		<path fill="#F1E188" d="M480.91,205.05V239.9h-41.44V205.05H480.91z M471.67,222.71c0.05-0.07,0.05-1.29,0.05-1.94
			c0-0.649,0-0.72-0.05-0.699v-5.44h-21.89l-1.98,2.24v13.53h21.891l1.979-2.25V222.71z"/>
		<rect x="121.04" y="196.64" fill="#FFFFFF" width="107.59" height="34.851"/>
		<path fill="#FFFFFF" d="M471.67,222.71v5.44l-1.979,2.25v-5.36c0.22-0.05,0.34-0.17,0.47-0.34
			C470.43,224.33,470.78,223.72,471.67,222.71z"/>
		<rect x="331.87" y="205.05" fill="#FFFFFF" width="107.6" height="34.851"/>
		<path fill="#A7DCE1" d="M379.38,47.08v66.06h-69.07V47.08H379.38z M344.84,105.11c9.23,0,18.46,0,27.69,0
			c0-7.8-0.82-7.8-4.41-9.02c-3.58-1.21-9.92-3.65-13.09-4.97c-3.17-1.32-3.17-1.54-2.99-2.01c0.18-0.47,0.54-1.2,1.93-2.77
			c1.391-1.57,3.811-3.97,5.351-7.98c1.54-4.01,2.199-9.62,1.109-14.87c-1.1-5.24-3.939-10.11-15.59-10.11
			c-11.64,0-14.479,4.87-15.58,10.11c-1.09,5.25-0.43,10.86,1.11,14.87c1.54,4.01,3.96,6.41,5.35,7.98
			c1.391,1.57,1.75,2.3,1.931,2.77c0.18,0.47,0.18,0.69-2.99,2.01c-3.17,1.32-9.51,3.76-13.09,4.97c-3.59,1.22-4.42,1.22-4.42,9.02
			C326.38,105.11,335.61,105.11,344.84,105.11z"/>
		<path fill="#A7DCE1" d="M251.23,216.1c0-0.58,0-1.17,0-1.75c0.2,0,0.39,0,0.59,0c0,0.58,0,1.17,0,1.75c0.17,0,0.34,0,0.51,0
			c0-0.58,0-1.17,0-1.75c0.2,0,0.4,0,0.59,0c0,0.58,0,1.17,0,1.75c0.17,0,0.34,0,0.51,0c0-0.58,0-1.17,0-1.75c0.2,0,0.4,0,0.59,0
			c0,0.58,0,1.17,0,1.75c0.17,0,0.34,0,0.51,0c0-0.31,0-0.619,0-0.939c0.22,0,0.44,0,0.66,0c0,0.32,0,0.63,0,0.939
			c0.83,0,1.65,0,2.48,0c0-0.31,0-0.619,0-0.939c0.22,0,0.44,0,0.66,0c0,0.32,0,0.63,0,0.939c0.84,0,1.67,0,2.51,0
			c0.76-0.67,1.51-1.35,2.27-2.02c0.17,0,0.33,0,0.5,0c0.21-0.17,0.42-0.35,0.63-0.521c-0.21-0.17-0.42-0.35-0.63-0.52
			c-0.17,0-0.33,0-0.5,0c-1.04-0.92-2.08-1.85-3.12-2.78c-4.19,0-8.39,0-12.58,0c-3.67-6.729-13.93-3.72-13.36,3.931
			c0.57,7.649,11.16,9.119,13.79,1.909c0.73,0,1.45,0,2.18,0c0-0.31,0-0.619,0-0.939c0.22,0,0.44,0,0.66,0c0,0.32,0,0.63,0,0.939
			C250.86,216.1,251.04,216.1,251.23,216.1z M270.08,196.64v34.851h-41.45V196.64H270.08z"/>
		<path fill="#B9D871" d="M251.82,146.59c0,0.59,0,1.17,0,1.76c0.17,0,0.34,0,0.51,0c0-0.59,0-1.17,0-1.76c0.2,0,0.4,0,0.59,0
			c0,0.59,0,1.17,0,1.76c0.17,0,0.34,0,0.51,0c0-0.59,0-1.17,0-1.76c0.2,0,0.4,0,0.59,0c0,0.59,0,1.17,0,1.76c0.17,0,0.34,0,0.51,0
			c0-0.31,0-0.63,0-0.94c0.22,0,0.44,0,0.66,0c0,0.31,0,0.63,0,0.94c0.83,0,1.65,0,2.48,0c0-0.31,0-0.63,0-0.94
			c0.22,0,0.44,0,0.66,0c0,0.31,0,0.63,0,0.94c0.84,0,1.67,0,2.51,0c0.76-0.68,1.51-1.35,2.27-2.03c0.17,0,0.33,0,0.5,0
			c0.21-0.17,0.42-0.34,0.63-0.51c-0.21-0.18-0.42-0.35-0.63-0.52c-0.17,0-0.33,0-0.5,0c-1.04-0.93-2.08-1.86-3.12-2.78
			c-4.19,0-8.39,0-12.58,0c-3.67-6.74-13.93-3.72-13.36,3.93c0.57,7.64,11.16,9.11,13.79,1.91c0.73,0,1.45,0,2.18,0
			c0-0.31,0-0.63,0-0.94c0.22,0,0.44,0,0.66,0c0,0.31,0,0.63,0,0.94c0.18,0,0.36,0,0.55,0c0-0.59,0-1.17,0-1.76
			C251.43,146.59,251.62,146.59,251.82,146.59z M270.08,128.89v34.85h-41.45v-34.85H270.08z"/>
		<rect x="121.04" y="128.89" fill="#FFFFFF" width="107.59" height="34.85"/>
		<path fill="#A7DCE1" d="M237.92,211.94c0.95,0,1.73,0.77,1.73,1.72c0,0.96-0.78,1.729-1.73,1.729c-0.95,0-1.72-0.77-1.72-1.729
			C236.2,212.71,236.97,211.94,237.92,211.94z"/>
		<path fill="#FFFFFF" d="M469.69,216.87H447.8l1.98-2.24h21.89v5.44c-0.89,1.01-1.24,1.63-1.51,1.989
			c-0.13,0.181-0.25,0.29-0.47,0.341v-0.011V216.87z"/>
		<path fill="#F1E188" d="M466.17,223.97c-0.24-0.08-0.3-0.22-0.22-0.46c0.09-0.229,0.22-0.3,0.46-0.21
			c0.24,0.08,0.3,0.22,0.21,0.46C466.54,223.99,466.41,224.06,466.17,223.97z"/>
		<path fill="#B9D871" d="M237.92,144.18c0.95,0,1.73,0.78,1.73,1.73c0,0.95-0.78,1.72-1.73,1.72c-0.95,0-1.72-0.77-1.72-1.72
			C236.2,144.96,236.97,144.18,237.92,144.18z"/>
		<path fill="#FFFFFF" d="M457.59,178.53c-9.229,0-18.46,0-27.689,0c-9.23,0-18.46,0-27.69,0c0-7.811,0.82-7.811,4.41-9.021
			c3.58-1.22,9.92-3.649,13.09-4.979c3.17-1.32,3.17-1.54,2.99-2.011c-0.181-0.47-0.54-1.199-1.931-2.77
			c-1.39-1.56-3.81-3.97-5.35-7.98c-1.54-4.01-2.2-9.62-1.11-14.859c1.101-5.25,3.94-10.12,15.591-10.12
			c11.64,0,14.479,4.87,15.58,10.12c1.09,5.24,0.43,10.85-1.11,14.859c-1.54,4.011-3.96,6.421-5.351,7.98
			c-1.39,1.57-1.75,2.3-1.93,2.77c-0.18,0.471-0.18,0.69,2.99,2.011c3.17,1.33,9.51,3.76,13.09,4.979
			C456.76,170.72,457.59,170.72,457.59,178.53z"/>
	</g>
	<g>
		<polyline fill="none" stroke="#000000" stroke-width="0.5" stroke-linecap="round" stroke-linejoin="round" points="
			469.69,222.39 469.69,216.87 447.8,216.87 		"/>
		<path fill="none" stroke="#000000" stroke-width="0.25" stroke-linecap="round" stroke-linejoin="round" d="M466.41,223.3
			c-0.24-0.09-0.37-0.02-0.46,0.21c-0.08,0.24-0.021,0.38,0.22,0.46c0.24,0.09,0.37,0.021,0.45-0.21
			C466.71,223.52,466.65,223.38,466.41,223.3z"/>
		<polyline fill="none" stroke="#000000" stroke-width="0.5" stroke-linecap="round" stroke-linejoin="round" points="447.8,230.4 
			469.69,230.4 469.69,225.04 469.69,225.03 		"/>
		
			<line fill="none" stroke="#000000" stroke-width="0.5" stroke-linecap="round" stroke-linejoin="round" x1="469.69" y1="230.4" x2="471.67" y2="228.15"/>
		<polyline fill="none" stroke="#000000" stroke-width="0.5" stroke-linecap="round" stroke-linejoin="round" points="
			471.67,220.07 471.67,214.63 449.78,214.63 		"/>
		
			<line fill="none" stroke="#000000" stroke-width="0.5" stroke-linecap="round" stroke-linejoin="round" x1="447.8" y1="216.87" x2="449.78" y2="214.63"/>
		<polygon fill="none" stroke="#000000" stroke-linecap="round" stroke-linejoin="round" points="439.47,205.05 331.87,205.05 
			331.87,239.9 439.47,239.9 480.91,239.9 480.91,205.05 		"/>
		<path fill="none" stroke="#000000" stroke-width="0.5" stroke-linecap="round" stroke-linejoin="round" d="M471.67,220.07
			c0.05-0.021,0.05,0.05,0.05,0.699c0,0.65,0,1.87-0.05,1.94c-0.89,1.01-1.24,1.62-1.51,1.99c-0.13,0.17-0.25,0.29-0.47,0.34
			c-0.23,0.04-0.58,0.02-1.19-0.09c-0.74,0-1.48,0-2.21,0c-0.73,0-1.32-0.59-1.32-1.32c0-0.72,0.59-1.31,1.32-1.31
			c0.74,0,1.47,0,2.21,0c0.61,0.1,0.96,0.13,1.19,0.08c0.22-0.051,0.34-0.16,0.47-0.341C470.43,221.7,470.78,221.08,471.67,220.07z"
			/>
		
			<line fill="none" stroke="#000000" stroke-linecap="round" stroke-linejoin="round" x1="439.47" y1="239.9" x2="439.47" y2="205.05"/>
		
			<line fill="none" stroke="#000000" stroke-width="0.5" stroke-linecap="round" stroke-linejoin="round" x1="471.67" y1="228.15" x2="471.67" y2="222.71"/>
		
			<line fill="none" stroke="#000000" stroke-width="0.5" stroke-linecap="round" stroke-linejoin="round" x1="447.8" y1="230.4" x2="447.8" y2="216.87"/>
		
			<rect x="395.36" y="120.49" fill="none" stroke="#000000" stroke-linecap="round" stroke-linejoin="round" width="69.069" height="66.06"/>
		<path fill="none" stroke="#000000" stroke-width="0.5" stroke-linecap="round" stroke-linejoin="round" d="M429.9,178.53
			c-9.23,0-18.46,0-27.69,0c0-7.811,0.82-7.811,4.41-9.021c3.58-1.22,9.92-3.649,13.09-4.979c3.17-1.32,3.17-1.54,2.99-2.011
			c-0.181-0.47-0.54-1.199-1.931-2.77c-1.39-1.56-3.81-3.97-5.35-7.98c-1.54-4.01-2.2-9.62-1.11-14.859
			c1.101-5.25,3.94-10.12,15.591-10.12c11.64,0,14.479,4.87,15.58,10.12c1.09,5.24,0.43,10.85-1.11,14.859
			c-1.54,4.011-3.96,6.421-5.351,7.98c-1.39,1.57-1.75,2.3-1.93,2.77c-0.18,0.471-0.18,0.69,2.99,2.011
			c3.17,1.33,9.51,3.76,13.09,4.979c3.59,1.21,4.42,1.21,4.42,9.021C448.36,178.53,439.13,178.53,429.9,178.53z"/>
		
			<rect x="310.31" y="47.08" fill="none" stroke="#000000" stroke-linecap="round" stroke-linejoin="round" width="69.07" height="66.06"/>
		<path fill="none" stroke="#000000" stroke-width="0.5" stroke-linecap="round" stroke-linejoin="round" d="M344.84,105.11
			c-9.229,0-18.46,0-27.689,0c0-7.8,0.83-7.8,4.42-9.02c3.58-1.21,9.92-3.65,13.09-4.97c3.17-1.32,3.17-1.54,2.99-2.01
			c-0.181-0.47-0.54-1.2-1.931-2.77c-1.39-1.57-3.81-3.97-5.35-7.98c-1.54-4.01-2.2-9.62-1.11-14.87
			c1.101-5.24,3.94-10.11,15.58-10.11c11.65,0,14.49,4.87,15.59,10.11c1.09,5.25,0.431,10.86-1.109,14.87
			c-1.54,4.01-3.96,6.41-5.351,7.98c-1.39,1.57-1.75,2.3-1.93,2.77c-0.18,0.47-0.18,0.69,2.99,2.01c3.17,1.32,9.51,3.76,13.09,4.97
			c3.59,1.22,4.41,1.22,4.41,9.02C363.3,105.11,354.07,105.11,344.84,105.11z"/>
		
			<line fill="none" stroke="#000000" stroke-width="0.5" stroke-linecap="round" stroke-linejoin="round" x1="236.96" y1="86.48" x2="236.96" y2="72.96"/>
		<polyline fill="none" stroke="#000000" stroke-width="0.5" stroke-linecap="round" stroke-linejoin="round" points="258.86,78.48 
			258.86,72.96 236.96,72.96 		"/>
		<polyline fill="none" stroke="#000000" stroke-width="0.5" stroke-linecap="round" stroke-linejoin="round" points="236.96,86.48 
			258.86,86.48 258.86,81.12 258.86,81.11 		"/>
		<path fill="none" stroke="#000000" stroke-width="0.5" stroke-linecap="round" stroke-linejoin="round" d="M260.84,76.15
			c0.05-0.02,0.05,0.05,0.05,0.7s0,1.88-0.05,1.94c-0.89,1.01-1.25,1.63-1.52,1.99c-0.14,0.17-0.25,0.29-0.46,0.34
			c-0.23,0.04-0.58,0.02-1.19-0.09c-0.74,0-1.48,0-2.22,0c-0.73,0-1.31-0.59-1.31-1.32c0-0.72,0.59-1.31,1.32-1.31s1.47,0,2.21,0
			c0.61,0.1,0.96,0.13,1.19,0.08c0.22-0.05,0.33-0.16,0.46-0.34C259.59,77.78,259.95,77.16,260.84,76.15z"/>
		<polyline fill="none" stroke="#000000" stroke-width="0.5" stroke-linecap="round" stroke-linejoin="round" points="260.84,76.15 
			260.84,70.71 238.94,70.71 		"/>
		
			<line fill="none" stroke="#000000" stroke-width="0.5" stroke-linecap="round" stroke-linejoin="round" x1="260.84" y1="84.23" x2="260.84" y2="78.79"/>
		
			<line fill="none" stroke="#000000" stroke-width="0.5" stroke-linecap="round" stroke-linejoin="round" x1="236.96" y1="72.96" x2="238.94" y2="70.71"/>
		<path fill="none" stroke="#000000" stroke-width="0.25" stroke-linecap="round" stroke-linejoin="round" d="M255.57,79.38
			c-0.23-0.09-0.37-0.02-0.45,0.22c-0.09,0.23-0.02,0.37,0.21,0.45c0.24,0.09,0.38,0.03,0.46-0.21
			C255.88,79.6,255.81,79.46,255.57,79.38z"/>
		
			<line fill="none" stroke="#000000" stroke-width="0.5" stroke-linecap="round" stroke-linejoin="round" x1="258.86" y1="86.48" x2="260.84" y2="84.23"/>
		<path fill="none" stroke="#000000" stroke-width="0.5" stroke-linecap="round" stroke-linejoin="round" d="M237.92,211.94
			c-0.95,0-1.72,0.77-1.72,1.72c0,0.96,0.77,1.729,1.72,1.729c0.95,0,1.73-0.77,1.73-1.729
			C239.65,212.71,238.87,211.94,237.92,211.94z"/>
		<path fill="none" stroke="#000000" stroke-width="0.5" stroke-linecap="round" stroke-linejoin="round" d="M263.61,214.08
			c-0.17,0-0.33,0-0.5,0c-0.76,0.67-1.51,1.35-2.27,2.02c-0.84,0-1.67,0-2.51,0c0-0.31,0-0.619,0-0.939c-0.22,0-0.44,0-0.66,0
			c0,0.32,0,0.63,0,0.939c-0.83,0-1.65,0-2.48,0c0-0.31,0-0.619,0-0.939c-0.22,0-0.44,0-0.66,0c0,0.32,0,0.63,0,0.939
			c-0.17,0-0.34,0-0.51,0c0-0.58,0-1.17,0-1.75c-0.19,0-0.39,0-0.59,0c0,0.58,0,1.17,0,1.75c-0.17,0-0.34,0-0.51,0
			c0-0.58,0-1.17,0-1.75c-0.19,0-0.39,0-0.59,0c0,0.58,0,1.17,0,1.75c-0.17,0-0.34,0-0.51,0c0-0.58,0-1.17,0-1.75
			c-0.2,0-0.39,0-0.59,0c0,0.58,0,1.17,0,1.75c-0.19,0-0.37,0-0.55,0c0-0.31,0-0.619,0-0.939c-0.22,0-0.44,0-0.66,0
			c0,0.32,0,0.63,0,0.939c-0.73,0-1.45,0-2.18,0c-2.63,7.21-13.22,5.74-13.79-1.909c-0.57-7.65,9.69-10.66,13.36-3.931
			c4.19,0,8.39,0,12.58,0c1.04,0.931,2.08,1.86,3.12,2.78c0.17,0,0.33,0,0.5,0c0.21,0.17,0.42,0.35,0.63,0.52
			C264.03,213.73,263.82,213.91,263.61,214.08z"/>
		<path fill="none" stroke="#000000" stroke-width="0.5" stroke-linecap="round" stroke-linejoin="round" d="M237.92,144.18
			c-0.95,0-1.72,0.78-1.72,1.73c0,0.95,0.77,1.72,1.72,1.72c0.95,0,1.73-0.77,1.73-1.72C239.65,144.96,238.87,144.18,237.92,144.18z
			"/>
		<path fill="none" stroke="#000000" stroke-width="0.5" stroke-linecap="round" stroke-linejoin="round" d="M263.61,146.32
			c-0.17,0-0.33,0-0.5,0c-0.76,0.68-1.51,1.35-2.27,2.03c-0.84,0-1.67,0-2.51,0c0-0.31,0-0.63,0-0.94c-0.22,0-0.44,0-0.66,0
			c0,0.31,0,0.63,0,0.94c-0.83,0-1.65,0-2.48,0c0-0.31,0-0.63,0-0.94c-0.22,0-0.44,0-0.66,0c0,0.31,0,0.63,0,0.94
			c-0.17,0-0.34,0-0.51,0c0-0.59,0-1.17,0-1.76c-0.19,0-0.39,0-0.59,0c0,0.59,0,1.17,0,1.76c-0.17,0-0.34,0-0.51,0
			c0-0.59,0-1.17,0-1.76c-0.19,0-0.39,0-0.59,0c0,0.59,0,1.17,0,1.76c-0.17,0-0.34,0-0.51,0c0-0.59,0-1.17,0-1.76
			c-0.2,0-0.39,0-0.59,0c0,0.59,0,1.17,0,1.76c-0.19,0-0.37,0-0.55,0c0-0.31,0-0.63,0-0.94c-0.22,0-0.44,0-0.66,0
			c0,0.31,0,0.63,0,0.94c-0.73,0-1.45,0-2.18,0c-2.63,7.2-13.22,5.73-13.79-1.91c-0.57-7.65,9.69-10.67,13.36-3.93
			c4.19,0,8.39,0,12.58,0c1.04,0.92,2.08,1.85,3.12,2.78c0.17,0,0.33,0,0.5,0c0.21,0.17,0.42,0.34,0.63,0.52
			C264.03,145.98,263.82,146.15,263.61,146.32z"/>
		
			<line fill="none" stroke="#000000" stroke-linecap="round" stroke-linejoin="round" x1="228.63" y1="231.49" x2="228.63" y2="196.64"/>
		
			<line fill="none" stroke="#000000" stroke-linecap="round" stroke-linejoin="round" x1="228.63" y1="163.74" x2="228.63" y2="128.89"/>
		
			<line fill="none" stroke="#000000" stroke-linecap="round" stroke-linejoin="round" x1="228.63" y1="95.98" x2="228.63" y2="61.13"/>
		<polygon fill="none" stroke="#000000" stroke-linecap="round" stroke-linejoin="round" points="228.63,196.64 121.04,196.64 
			121.04,231.49 228.63,231.49 270.08,231.49 270.08,196.64 		"/>
		<polygon fill="none" stroke="#000000" stroke-linecap="round" stroke-linejoin="round" points="228.63,128.89 121.04,128.89 
			121.04,163.74 228.63,163.74 270.08,163.74 270.08,128.89 		"/>
		<polygon fill="none" stroke="#000000" stroke-linecap="round" stroke-linejoin="round" points="228.63,61.13 121.04,61.13 
			121.04,95.98 228.63,95.98 270.08,95.98 270.08,61.13 		"/>
	</g>
</g>
<text transform="matrix(1 0 0 1 141.667 149.667)" font-family="'MyriadPro-Regular'" font-size="12">Private Key A</text>
<text transform="matrix(1 0 0 1 153.333 282.667)" font-family="'MyriadPro-Bold'" font-size="18">Typical transaction for funds transfer</text>
<text transform="matrix(1 0 0 1 143 218)" font-family="'MyriadPro-Regular'" font-size="12">Public Key A</text>
<text transform="matrix(1 0 0 1 133.3335 82)" font-family="'MyriadPro-Regular'" font-size="12">Wallet Address A</text>
<text transform="matrix(1 0 0 1 344.667 226.333)" font-family="'MyriadPro-Regular'" font-size="12">Wallet Address B</text>
<g>
	<g>
		<path fill="none" stroke="#B9D871" stroke-width="2" stroke-miterlimit="10" d="M371.585,166.042
			c-22.402-4.568-33.481-20.46-33.229-47.662"/>
		<g>
			<polygon fill="#B9D871" points="385.645,167.42 366.774,157.126 370.563,165.731 364.965,173.284 			"/>
		</g>
	</g>
</g>
<text transform="matrix(1 0 0 1 323 42)" font-family="'MyriadPro-Regular'" font-size="12">Person A</text>
<text transform="matrix(1 0 0 1 409 114.5)" font-family="'MyriadPro-Regular'" font-size="12">Person B</text>
</svg>
