<?xml version="1.0" encoding="utf-8"?>
<!-- Generator: Adobe Illustrator 15.0.0, SVG Export Plug-In . SVG Version: 6.00 Build 0)  -->
<!DOCTYPE svg PUBLIC "-//W3C//DTD SVG 1.1//EN" "http://www.w3.org/Graphics/SVG/1.1/DTD/svg11.dtd">
<svg version="1.1" id="Layer_1" xmlns="http://www.w3.org/2000/svg" xmlns:xlink="http://www.w3.org/1999/xlink" x="0px" y="0px"
	 width="600px" height="300px" viewBox="0 0 600 300" enable-background="new 0 0 600 300" xml:space="preserve">
<rect fill="#FEF9E4" width="600" height="300"/>
<g id="XMLID_2_">
	<g>
		<path fill="#FFFFFF" d="M417.47,133.79v89.43h65.17V156.44l-20.18-22.65H417.47z M323.6,146.24h-4.479v81.04h31.82v-81.04h-4.48
			v-25.73H323.6V146.24z M518.68,76.89V263.81H269.07V76.89H518.68z"/>
		<rect x="337.26" y="123.55" fill="#FFFFFF" width="4.061" height="11.2"/>
		<polygon fill="#A7DCE1" points="462.46,133.79 460.14,153.84 482.64,156.44 482.64,223.22 417.47,223.22 417.47,133.79 		"/>
		<polygon fill="#454545" points="346.46,146.24 350.94,146.24 350.94,227.28 319.12,227.28 319.12,146.24 323.6,146.24 		"/>
		<rect x="328.74" y="123.55" fill="#FFFFFF" width="4.06" height="11.2"/>
		<path fill="#FEF9E4" d="M332.8,123.55h-4.06v11.2h4.06V123.55z M323.6,146.24v-25.73h22.86v25.73H323.6z M337.26,134.75h4.061
			v-11.2h-4.061V134.75z"/>
		<path fill="#A7DCE1" d="M192.4,188.33h9.18c0,4.62-1.36,8.93-3.72,12.53h-7.69C191.8,196.81,192.4,192.76,192.4,188.33z"/>
		<path fill="#FEF9E4" d="M178.62,211.29c0.18,0,0.35-0.01,0.53-0.01c7.84-0.17,14.71-4.28,18.71-10.42
			c2.36-3.601,3.72-7.91,3.72-12.53s-1.36-8.92-3.72-12.521c-4-6.149-10.87-10.26-18.71-10.43c-0.18,0-0.35-0.01-0.53-0.01
			c-0.22,0-0.45,0-0.67,0.02c-7.78,0.21-14.6,4.311-18.57,10.42c-2.36,3.601-3.72,7.9-3.72,12.521c0,4.63,1.36,8.93,3.72,12.53
			c3.89,5.97,10.49,10.02,18.06,10.399c0.38,0.021,0.77,0.03,1.16,0.03C178.61,211.29,178.61,211.29,178.62,211.29z M239.87,154.87
			v67.14h-122.5v-67.14H239.87z"/>
		<rect x="269.07" y="34.81" fill="#A7DCE1" width="249.61" height="42.08"/>
		<path fill="#FFFFFF" d="M269.07,76.89V263.81H88.17V76.89H269.07z M239.87,222.01v-67.14v-13.91h-122.5v13.91v67.14H239.87z"/>
		<rect x="88.17" y="34.81" fill="#F1E188" width="180.9" height="42.08"/>
		<path fill="#454545" d="M239.87,140.96v13.91h-122.5v-13.91H239.87z M235.22,147.58c0-1.7-1.38-3.08-3.08-3.08
			c-1.7,0-3.08,1.38-3.08,3.08c0,1.7,1.38,3.08,3.08,3.08C233.84,150.66,235.22,149.28,235.22,147.58z M226.1,147.58
			c0-1.7-1.38-3.08-3.08-3.08s-3.08,1.38-3.08,3.08c0,1.7,1.38,3.08,3.08,3.08S226.1,149.28,226.1,147.58z M216.98,147.58
			c0-1.7-1.38-3.08-3.09-3.08c-1.7,0-3.08,1.38-3.08,3.08c0,1.7,1.38,3.08,3.08,3.08C215.6,150.66,216.98,149.28,216.98,147.58z"/>
		<circle fill="#BC2B2A" cx="232.14" cy="147.58" r="3.08"/>
		<circle fill="#B9D871" cx="223.02" cy="147.58" r="3.08"/>
		<path fill="#A7DCE1" d="M213.89,144.5c1.71,0,3.09,1.38,3.09,3.08c0,1.7-1.38,3.08-3.09,3.08c-1.7,0-3.08-1.38-3.08-3.08
			C210.81,145.88,212.19,144.5,213.89,144.5z"/>
		<path fill="#A7DCE1" d="M201.58,188.33h-9.18c0-4.42-0.6-8.47-2.23-12.521h7.69C200.22,179.41,201.58,183.71,201.58,188.33z"/>
		<path fill="#A7DCE1" d="M197.86,175.81h-7.69c-0.22-0.569-0.47-1.14-0.74-1.71c-1.85-3.89-5.32-8.409-10.28-8.72
			C186.99,165.55,193.86,169.66,197.86,175.81z"/>
		<path fill="#A7DCE1" d="M190.17,200.86h7.69c-4,6.14-10.87,10.25-18.71,10.42c4.95-0.311,8.43-4.82,10.28-8.71
			C189.7,202,189.95,201.43,190.17,200.86z"/>
		<path fill="#A7DCE1" d="M192.4,188.33h-10.08c0-4.17-0.37-8.34-1.1-12.521h8.95C191.8,179.86,192.4,183.91,192.4,188.33z"/>
		<path fill="#A7DCE1" d="M182.32,188.33h10.08c0,4.43-0.6,8.479-2.23,12.53h-8.95C181.95,196.69,182.32,192.51,182.32,188.33z"/>
		<path fill="#A7DCE1" d="M190.17,175.81h-8.95c-0.61-3.479-1.48-6.96-2.6-10.439c0.18,0,0.35,0.01,0.53,0.01
			c4.96,0.311,8.43,4.83,10.28,8.72C189.7,174.67,189.95,175.24,190.17,175.81z"/>
		<path fill="#A7DCE1" d="M181.22,200.86h8.95c-0.22,0.569-0.47,1.14-0.74,1.71c-1.85,3.89-5.33,8.399-10.28,8.71
			c-0.18,0-0.35,0.01-0.53,0.01C179.74,207.81,180.61,204.34,181.22,200.86z"/>
		<path fill="#A7DCE1" d="M182.32,188.33h-12.84c0-4.271,0.4-8.38,1.49-12.521h10.25C181.95,179.99,182.32,184.16,182.32,188.33z"/>
		<path fill="#A7DCE1" d="M169.48,188.33h12.84c0,4.18-0.37,8.36-1.1,12.53h-10.25C169.88,196.72,169.48,192.61,169.48,188.33z"/>
		<path fill="#A7DCE1" d="M181.22,175.81h-10.25c0.03-0.18,0.08-0.35,0.13-0.529c0.83-3,3.06-9.91,7.52-9.91
			C179.74,168.85,180.61,172.33,181.22,175.81z"/>
		<path fill="#A7DCE1" d="M170.97,200.86h10.25c-0.61,3.479-1.48,6.949-2.6,10.43c-0.01,0-0.01,0-0.02,0
			c-4.45-0.021-6.67-6.9-7.5-9.9C171.05,201.21,171,201.04,170.97,200.86z"/>
		<path fill="#A7DCE1" d="M177.95,165.39c0.22-0.02,0.45-0.02,0.67-0.02c-4.46,0-6.69,6.91-7.52,9.91
			c-0.05,0.18-0.1,0.35-0.13,0.529h-9.31C164.98,169.95,170.66,165.64,177.95,165.39z"/>
		<path fill="#A7DCE1" d="M178.6,211.29c-0.39,0-0.78-0.01-1.16-0.03c-7.06-0.43-12.55-4.68-15.79-10.399h9.32
			c0.03,0.18,0.08,0.35,0.13,0.529C171.93,204.39,174.15,211.27,178.6,211.29z"/>
		<path fill="#A7DCE1" d="M161.66,175.81h9.31c-1.09,4.141-1.49,8.25-1.49,12.521h-11.13C158.35,183.96,159.52,179.57,161.66,175.81
			z"/>
		<path fill="#A7DCE1" d="M170.97,200.86h-9.32c-2.14-3.761-3.3-8.15-3.3-12.521v-0.01h11.13
			C169.48,192.61,169.88,196.72,170.97,200.86z"/>
		<path fill="#A7DCE1" d="M177.95,165.39c-7.29,0.25-12.97,4.561-16.29,10.42h-2.28C163.35,169.7,170.17,165.6,177.95,165.39z"/>
		<path fill="#A7DCE1" d="M177.44,211.26c-7.57-0.38-14.17-4.43-18.06-10.399h2.27C164.89,206.58,170.38,210.83,177.44,211.26z"/>
		<path fill="#A7DCE1" d="M159.38,175.81h2.28c-2.14,3.761-3.31,8.15-3.31,12.521h-2.69C155.66,183.71,157.02,179.41,159.38,175.81z
			"/>
		<path fill="#A7DCE1" d="M161.65,200.86h-2.27c-2.36-3.601-3.72-7.9-3.72-12.53h2.69v0.01
			C158.35,192.71,159.51,197.1,161.65,200.86z"/>
	</g>
	<g>
		<polyline fill="none" stroke="#000000" stroke-linecap="round" stroke-linejoin="round" points="482.64,156.44 482.64,223.22 
			417.47,223.22 417.47,133.79 462.46,133.79 		"/>
		<polyline fill="none" stroke="#000000" stroke-width="0.5" stroke-linecap="round" stroke-linejoin="round" points="
			462.46,133.79 460.14,153.84 482.64,156.44 		"/>
		
			<rect x="328.74" y="123.55" fill="none" stroke="#000000" stroke-width="0.5" stroke-linecap="round" stroke-linejoin="round" width="4.06" height="11.2"/>
		
			<rect x="337.26" y="123.55" fill="none" stroke="#000000" stroke-width="0.5" stroke-linecap="round" stroke-linejoin="round" width="4.061" height="11.2"/>
		<polyline fill="none" stroke="#000000" stroke-linecap="round" stroke-linejoin="round" points="346.46,146.24 346.46,120.51 
			323.6,120.51 323.6,146.24 		"/>
		<polygon fill="none" stroke="#000000" stroke-linecap="round" stroke-linejoin="round" points="323.6,146.24 319.12,146.24 
			319.12,227.28 350.94,227.28 350.94,146.24 346.46,146.24 		"/>
		
			<line fill="none" stroke="#000000" stroke-width="0.5" stroke-linecap="round" stroke-linejoin="round" x1="425.18" y1="165.06" x2="474.94" y2="165.06"/>
		
			<line fill="none" stroke="#000000" stroke-width="0.5" stroke-linecap="round" stroke-linejoin="round" x1="425.18" y1="174.31" x2="474.94" y2="174.31"/>
		
			<line fill="none" stroke="#000000" stroke-width="0.5" stroke-linecap="round" stroke-linejoin="round" x1="425.18" y1="192.81" x2="474.94" y2="192.81"/>
		
			<line fill="none" stroke="#000000" stroke-width="0.5" stroke-linecap="round" stroke-linejoin="round" x1="425.18" y1="183.56" x2="474.94" y2="183.56"/>
		
			<line fill="none" stroke="#000000" stroke-width="0.5" stroke-linecap="round" stroke-linejoin="round" x1="462.46" y1="133.79" x2="482.64" y2="156.44"/>
		
			<line fill="none" stroke="#000000" stroke-width="0.5" stroke-linecap="round" stroke-linejoin="round" x1="425.18" y1="202.06" x2="474.94" y2="202.06"/>
		
			<circle fill="none" stroke="#000000" stroke-width="0.25" stroke-linecap="round" stroke-linejoin="round" cx="232.14" cy="147.58" r="3.08"/>
		
			<circle fill="none" stroke="#000000" stroke-width="0.25" stroke-linecap="round" stroke-linejoin="round" cx="223.02" cy="147.58" r="3.08"/>
		<path fill="none" stroke="#000000" stroke-width="0.5" stroke-linecap="round" stroke-linejoin="round" d="M178.62,165.37
			c1.12,3.479,1.99,6.96,2.6,10.439c0.73,4.181,1.1,8.351,1.1,12.521c0,4.18-0.37,8.36-1.1,12.53c-0.61,3.479-1.48,6.949-2.6,10.43"
			/>
		<path fill="none" stroke="#000000" stroke-width="0.25" stroke-linecap="round" stroke-linejoin="round" d="M213.89,144.5
			c-1.7,0-3.08,1.38-3.08,3.08c0,1.7,1.38,3.08,3.08,3.08c1.71,0,3.09-1.38,3.09-3.08C216.98,145.88,215.6,144.5,213.89,144.5z"/>
		<polyline fill="none" stroke="#000000" stroke-width="0.5" stroke-linecap="round" stroke-linejoin="round" points="
			159.38,200.86 161.65,200.86 170.97,200.86 181.22,200.86 190.17,200.86 197.86,200.86 		"/>
		<path fill="none" stroke="#000000" stroke-width="0.5" stroke-linecap="round" stroke-linejoin="round" d="M178.62,165.37
			c-4.46,0-6.69,6.91-7.52,9.91c-0.05,0.18-0.1,0.35-0.13,0.529c-1.09,4.141-1.49,8.25-1.49,12.521c0,4.28,0.4,8.39,1.49,12.53
			c0.03,0.18,0.08,0.35,0.13,0.529c0.83,3,3.05,9.88,7.5,9.9"/>
		<polyline fill="none" stroke="#000000" stroke-width="0.5" stroke-linecap="round" stroke-linejoin="round" points="
			159.38,175.81 161.66,175.81 170.97,175.81 181.22,175.81 190.17,175.81 197.86,175.81 		"/>
		<path fill="none" stroke="#000000" stroke-width="0.5" stroke-linecap="round" stroke-linejoin="round" d="M177.95,165.39
			c-7.29,0.25-12.97,4.561-16.29,10.42c-2.14,3.761-3.31,8.15-3.31,12.521v0.01c0,4.37,1.16,8.76,3.3,12.521
			c3.24,5.72,8.73,9.97,15.79,10.399"/>
		<path fill="none" stroke="#000000" stroke-width="0.5" stroke-linecap="round" stroke-linejoin="round" d="M179.15,211.28
			c7.84-0.17,14.71-4.28,18.71-10.42c2.36-3.601,3.72-7.91,3.72-12.53s-1.36-8.92-3.72-12.521c-4-6.149-10.87-10.26-18.71-10.43"/>
		<path fill="none" stroke="#000000" stroke-width="0.5" stroke-linecap="round" stroke-linejoin="round" d="M178.62,165.37
			c-0.22,0-0.45,0-0.67,0.02c-7.78,0.21-14.6,4.311-18.57,10.42c-2.36,3.601-3.72,7.9-3.72,12.521c0,4.63,1.36,8.93,3.72,12.53
			c3.89,5.97,10.49,10.02,18.06,10.399c0.38,0.021,0.77,0.03,1.16,0.03c0.01,0,0.01,0,0.02,0"/>
		<path fill="none" stroke="#000000" stroke-width="0.5" stroke-linecap="round" stroke-linejoin="round" d="M178.62,211.29
			c0.18,0,0.35-0.01,0.53-0.01c4.95-0.311,8.43-4.82,10.28-8.71c0.27-0.57,0.52-1.141,0.74-1.71c1.63-4.051,2.23-8.101,2.23-12.53
			c0-4.42-0.6-8.47-2.23-12.521c-0.22-0.569-0.47-1.14-0.74-1.71c-1.85-3.89-5.32-8.409-10.28-8.72c-0.18,0-0.35-0.01-0.53-0.01"/>
		<polyline fill="none" stroke="#000000" stroke-width="0.5" stroke-linecap="round" stroke-linejoin="round" points="
			155.66,188.33 158.35,188.33 169.48,188.33 182.32,188.33 192.4,188.33 201.58,188.33 		"/>
		<polygon fill="none" stroke="#000000" stroke-linecap="round" stroke-linejoin="round" points="117.37,154.87 117.37,222.01 
			239.87,222.01 239.87,154.87 239.87,140.96 117.37,140.96 		"/>
		
			<line fill="none" stroke="#000000" stroke-width="0.75" stroke-linecap="round" stroke-linejoin="round" x1="117.37" y1="154.87" x2="239.87" y2="154.87"/>
		<polyline fill="none" stroke="#000000" stroke-width="0.75" stroke-linecap="round" stroke-linejoin="round" points="88.17,76.89 
			269.07,76.89 518.68,76.89 		"/>
		<polyline fill="none" stroke="#000000" stroke-width="0.75" stroke-linecap="round" stroke-linejoin="round" points="
			269.07,263.81 518.68,263.81 518.68,76.89 518.68,34.81 269.07,34.81 		"/>
		<polygon fill="none" stroke="#000000" stroke-width="0.75" stroke-linecap="round" stroke-linejoin="round" points="88.17,76.89 
			88.17,263.81 269.07,263.81 269.07,76.89 269.07,34.81 88.17,34.81 		"/>
	</g>
</g>
<text transform="matrix(1 0 0 1 135.0005 59.3335)" font-family="'MyriadPro-Bold'" font-size="18">Hot Wallets</text>
<text transform="matrix(1 0 0 1 348.667 60.3335)" font-family="'MyriadPro-Bold'" font-size="18">Cold Wallets</text>
<text transform="matrix(1 0 0 1 129.3335 249)" font-family="'MyriadPro-Regular'" font-size="14">Software Wallets</text>
<text transform="matrix(1 0 0 1 287 249)" font-family="'MyriadPro-Regular'" font-size="14">Hardware Wallets</text>
<text transform="matrix(1 0 0 1 412.333 248.667)" font-family="'MyriadPro-Regular'" font-size="14">Paper wallets</text>
</svg>
